<svg width="297" height="172" viewBox="0 0 297 172" fill="none" xmlns="http://www.w3.org/2000/svg">
<ellipse cx="289.377" cy="7.61016" rx="7.61016" ry="7.6228" transform="rotate(90 289.377 7.61016)" fill="#006BB9" fill-opacity="0.05"/>
<ellipse cx="289.377" cy="38.9661" rx="7.61016" ry="7.6228" transform="rotate(90 289.377 38.9661)" fill="#006BB9" fill-opacity="0.05"/>
<ellipse cx="289.377" cy="70.3219" rx="7.61016" ry="7.6228" transform="rotate(90 289.377 70.3219)" fill="#006BB9" fill-opacity="0.05"/>
<ellipse cx="289.377" cy="101.678" rx="7.61016" ry="7.6228" transform="rotate(90 289.377 101.678)" fill="#006BB9" fill-opacity="0.05"/>
<ellipse cx="289.377" cy="133.034" rx="7.61016" ry="7.6228" transform="rotate(90 289.377 133.034)" fill="#006BB9" fill-opacity="0.05"/>
<ellipse cx="289.377" cy="164.39" rx="7.61016" ry="7.6228" transform="rotate(90 289.377 164.39)" fill="#006BB9" fill-opacity="0.05"/>
<ellipse cx="254.158" cy="7.61016" rx="7.61016" ry="7.6228" transform="rotate(90 254.158 7.61016)" fill="#006BB9" fill-opacity="0.05"/>
<ellipse cx="254.158" cy="38.9661" rx="7.61016" ry="7.6228" transform="rotate(90 254.158 38.9661)" fill="#006BB9" fill-opacity="0.05"/>
<ellipse cx="254.158" cy="70.3219" rx="7.61016" ry="7.6228" transform="rotate(90 254.158 70.3219)" fill="#006BB9" fill-opacity="0.05"/>
<ellipse cx="254.158" cy="101.678" rx="7.61016" ry="7.6228" transform="rotate(90 254.158 101.678)" fill="#006BB9" fill-opacity="0.05"/>
<ellipse cx="254.158" cy="133.034" rx="7.61016" ry="7.6228" transform="rotate(90 254.158 133.034)" fill="#006BB9" fill-opacity="0.05"/>
<ellipse cx="254.158" cy="164.39" rx="7.61016" ry="7.6228" transform="rotate(90 254.158 164.39)" fill="#006BB9" fill-opacity="0.05"/>
<ellipse cx="218.939" cy="7.61016" rx="7.61016" ry="7.62281" transform="rotate(90 218.939 7.61016)" fill="#006BB9" fill-opacity="0.05"/>
<ellipse cx="218.939" cy="38.9661" rx="7.61016" ry="7.62281" transform="rotate(90 218.939 38.9661)" fill="#006BB9" fill-opacity="0.05"/>
<ellipse cx="218.939" cy="70.3219" rx="7.61016" ry="7.62281" transform="rotate(90 218.939 70.3219)" fill="#006BB9" fill-opacity="0.05"/>
<ellipse cx="218.939" cy="101.678" rx="7.61016" ry="7.62281" transform="rotate(90 218.939 101.678)" fill="#006BB9" fill-opacity="0.05"/>
<ellipse cx="218.939" cy="133.034" rx="7.61016" ry="7.62281" transform="rotate(90 218.939 133.034)" fill="#006BB9" fill-opacity="0.05"/>
<ellipse cx="218.939" cy="164.39" rx="7.61016" ry="7.62281" transform="rotate(90 218.939 164.39)" fill="#006BB9" fill-opacity="0.05"/>
<ellipse cx="183.719" cy="7.61016" rx="7.61016" ry="7.6228" transform="rotate(90 183.719 7.61016)" fill="#006BB9" fill-opacity="0.05"/>
<ellipse cx="183.719" cy="38.9661" rx="7.61016" ry="7.6228" transform="rotate(90 183.719 38.9661)" fill="#006BB9" fill-opacity="0.05"/>
<ellipse cx="183.719" cy="70.3219" rx="7.61016" ry="7.6228" transform="rotate(90 183.719 70.3219)" fill="#006BB9" fill-opacity="0.05"/>
<ellipse cx="183.719" cy="101.678" rx="7.61016" ry="7.6228" transform="rotate(90 183.719 101.678)" fill="#006BB9" fill-opacity="0.05"/>
<ellipse cx="183.719" cy="133.034" rx="7.61016" ry="7.6228" transform="rotate(90 183.719 133.034)" fill="#006BB9" fill-opacity="0.05"/>
<ellipse cx="183.719" cy="164.39" rx="7.61016" ry="7.6228" transform="rotate(90 183.719 164.39)" fill="#006BB9" fill-opacity="0.05"/>
<ellipse cx="148.5" cy="7.61016" rx="7.61016" ry="7.62281" transform="rotate(90 148.5 7.61016)" fill="#006BB9" fill-opacity="0.05"/>
<ellipse cx="148.5" cy="38.9661" rx="7.61016" ry="7.62281" transform="rotate(90 148.5 38.9661)" fill="#006BB9" fill-opacity="0.05"/>
<ellipse cx="148.5" cy="70.3219" rx="7.61016" ry="7.62281" transform="rotate(90 148.5 70.3219)" fill="#006BB9" fill-opacity="0.05"/>
<ellipse cx="148.5" cy="101.678" rx="7.61016" ry="7.62281" transform="rotate(90 148.5 101.678)" fill="#006BB9" fill-opacity="0.05"/>
<ellipse cx="148.5" cy="133.034" rx="7.61016" ry="7.62281" transform="rotate(90 148.5 133.034)" fill="#006BB9" fill-opacity="0.05"/>
<ellipse cx="148.5" cy="164.39" rx="7.61016" ry="7.62281" transform="rotate(90 148.5 164.39)" fill="#006BB9" fill-opacity="0.05"/>
<ellipse cx="113.281" cy="7.61016" rx="7.61016" ry="7.6228" transform="rotate(90 113.281 7.61016)" fill="#006BB9" fill-opacity="0.05"/>
<ellipse cx="113.281" cy="38.9661" rx="7.61016" ry="7.6228" transform="rotate(90 113.281 38.9661)" fill="#006BB9" fill-opacity="0.05"/>
<ellipse cx="113.281" cy="70.3219" rx="7.61016" ry="7.6228" transform="rotate(90 113.281 70.3219)" fill="#006BB9" fill-opacity="0.05"/>
<ellipse cx="113.281" cy="101.678" rx="7.61016" ry="7.6228" transform="rotate(90 113.281 101.678)" fill="#006BB9" fill-opacity="0.05"/>
<ellipse cx="113.281" cy="133.034" rx="7.61016" ry="7.6228" transform="rotate(90 113.281 133.034)" fill="#006BB9" fill-opacity="0.05"/>
<ellipse cx="113.281" cy="164.39" rx="7.61016" ry="7.6228" transform="rotate(90 113.281 164.39)" fill="#006BB9" fill-opacity="0.05"/>
<ellipse cx="78.0613" cy="7.61016" rx="7.61016" ry="7.62281" transform="rotate(90 78.0613 7.61016)" fill="#006BB9" fill-opacity="0.05"/>
<ellipse cx="78.0613" cy="38.9661" rx="7.61016" ry="7.62281" transform="rotate(90 78.0613 38.9661)" fill="#006BB9" fill-opacity="0.05"/>
<ellipse cx="78.0613" cy="70.3219" rx="7.61016" ry="7.62281" transform="rotate(90 78.0613 70.3219)" fill="#006BB9" fill-opacity="0.05"/>
<ellipse cx="78.0613" cy="101.678" rx="7.61016" ry="7.62281" transform="rotate(90 78.0613 101.678)" fill="#006BB9" fill-opacity="0.05"/>
<ellipse cx="78.0613" cy="133.034" rx="7.61016" ry="7.62281" transform="rotate(90 78.0613 133.034)" fill="#006BB9" fill-opacity="0.05"/>
<ellipse cx="78.0613" cy="164.39" rx="7.61016" ry="7.62281" transform="rotate(90 78.0613 164.39)" fill="#006BB9" fill-opacity="0.05"/>
<ellipse cx="42.842" cy="7.61016" rx="7.61016" ry="7.6228" transform="rotate(90 42.842 7.61016)" fill="#006BB9" fill-opacity="0.05"/>
<ellipse cx="42.842" cy="38.9661" rx="7.61016" ry="7.6228" transform="rotate(90 42.842 38.9661)" fill="#006BB9" fill-opacity="0.05"/>
<ellipse cx="42.842" cy="70.3219" rx="7.61016" ry="7.6228" transform="rotate(90 42.842 70.3219)" fill="#006BB9" fill-opacity="0.05"/>
<ellipse cx="42.842" cy="101.678" rx="7.61016" ry="7.6228" transform="rotate(90 42.842 101.678)" fill="#006BB9" fill-opacity="0.05"/>
<ellipse cx="42.842" cy="133.034" rx="7.61016" ry="7.6228" transform="rotate(90 42.842 133.034)" fill="#006BB9" fill-opacity="0.05"/>
<ellipse cx="42.842" cy="164.39" rx="7.61016" ry="7.6228" transform="rotate(90 42.842 164.39)" fill="#006BB9" fill-opacity="0.05"/>
<ellipse cx="7.6228" cy="7.61016" rx="7.61016" ry="7.6228" transform="rotate(90 7.6228 7.61016)" fill="#006BB9" fill-opacity="0.05"/>
<ellipse cx="7.6228" cy="38.9661" rx="7.61016" ry="7.6228" transform="rotate(90 7.6228 38.9661)" fill="#006BB9" fill-opacity="0.05"/>
<ellipse cx="7.6228" cy="70.3219" rx="7.61016" ry="7.6228" transform="rotate(90 7.6228 70.3219)" fill="#006BB9" fill-opacity="0.05"/>
<ellipse cx="7.6228" cy="101.678" rx="7.61016" ry="7.6228" transform="rotate(90 7.6228 101.678)" fill="#006BB9" fill-opacity="0.05"/>
<ellipse cx="7.6228" cy="133.034" rx="7.61016" ry="7.6228" transform="rotate(90 7.6228 133.034)" fill="#006BB9" fill-opacity="0.05"/>
<ellipse cx="7.6228" cy="164.39" rx="7.61016" ry="7.6228" transform="rotate(90 7.6228 164.39)" fill="#006BB9" fill-opacity="0.05"/>
</svg>
