<svg width="172" height="297" viewBox="0 0 172 297" fill="none" xmlns="http://www.w3.org/2000/svg">
<ellipse cx="7.61016" cy="7.6228" rx="7.61016" ry="7.6228" fill="white" fill-opacity="0.15"/>
<ellipse cx="38.9661" cy="7.6228" rx="7.61016" ry="7.6228" fill="white" fill-opacity="0.15"/>
<ellipse cx="70.3221" cy="7.6228" rx="7.61016" ry="7.6228" fill="white" fill-opacity="0.15"/>
<ellipse cx="101.678" cy="7.6228" rx="7.61016" ry="7.6228" fill="white" fill-opacity="0.15"/>
<ellipse cx="133.034" cy="7.6228" rx="7.61016" ry="7.6228" fill="white" fill-opacity="0.15"/>
<ellipse cx="164.39" cy="7.6228" rx="7.61016" ry="7.6228" fill="white" fill-opacity="0.15"/>
<ellipse cx="7.61016" cy="42.842" rx="7.61016" ry="7.6228" fill="white" fill-opacity="0.15"/>
<ellipse cx="38.9661" cy="42.842" rx="7.61016" ry="7.6228" fill="white" fill-opacity="0.15"/>
<ellipse cx="70.3221" cy="42.842" rx="7.61016" ry="7.6228" fill="white" fill-opacity="0.15"/>
<ellipse cx="101.678" cy="42.842" rx="7.61016" ry="7.6228" fill="white" fill-opacity="0.15"/>
<ellipse cx="133.034" cy="42.842" rx="7.61016" ry="7.6228" fill="white" fill-opacity="0.15"/>
<ellipse cx="164.39" cy="42.842" rx="7.61016" ry="7.6228" fill="white" fill-opacity="0.15"/>
<ellipse cx="7.61016" cy="78.0613" rx="7.61016" ry="7.62281" fill="white" fill-opacity="0.15"/>
<ellipse cx="38.9661" cy="78.0613" rx="7.61016" ry="7.62281" fill="white" fill-opacity="0.15"/>
<ellipse cx="70.3221" cy="78.0613" rx="7.61016" ry="7.62281" fill="white" fill-opacity="0.15"/>
<ellipse cx="101.678" cy="78.0613" rx="7.61016" ry="7.62281" fill="white" fill-opacity="0.15"/>
<ellipse cx="133.034" cy="78.0613" rx="7.61016" ry="7.62281" fill="white" fill-opacity="0.15"/>
<ellipse cx="164.39" cy="78.0613" rx="7.61016" ry="7.62281" fill="white" fill-opacity="0.15"/>
<ellipse cx="7.61016" cy="113.281" rx="7.61016" ry="7.6228" fill="white" fill-opacity="0.15"/>
<ellipse cx="38.9661" cy="113.281" rx="7.61016" ry="7.6228" fill="white" fill-opacity="0.15"/>
<ellipse cx="70.3221" cy="113.281" rx="7.61016" ry="7.6228" fill="white" fill-opacity="0.15"/>
<ellipse cx="101.678" cy="113.281" rx="7.61016" ry="7.6228" fill="white" fill-opacity="0.15"/>
<ellipse cx="133.034" cy="113.281" rx="7.61016" ry="7.6228" fill="white" fill-opacity="0.15"/>
<ellipse cx="164.39" cy="113.281" rx="7.61016" ry="7.6228" fill="white" fill-opacity="0.15"/>
<ellipse cx="7.61016" cy="148.5" rx="7.61016" ry="7.62281" fill="white" fill-opacity="0.15"/>
<ellipse cx="38.9661" cy="148.5" rx="7.61016" ry="7.62281" fill="white" fill-opacity="0.15"/>
<ellipse cx="70.3221" cy="148.5" rx="7.61016" ry="7.62281" fill="white" fill-opacity="0.15"/>
<ellipse cx="101.678" cy="148.5" rx="7.61016" ry="7.62281" fill="white" fill-opacity="0.15"/>
<ellipse cx="133.034" cy="148.5" rx="7.61016" ry="7.62281" fill="white" fill-opacity="0.15"/>
<ellipse cx="164.39" cy="148.5" rx="7.61016" ry="7.62281" fill="white" fill-opacity="0.15"/>
<ellipse cx="7.61016" cy="183.719" rx="7.61016" ry="7.6228" fill="white" fill-opacity="0.15"/>
<ellipse cx="38.9661" cy="183.719" rx="7.61016" ry="7.6228" fill="white" fill-opacity="0.15"/>
<ellipse cx="70.3221" cy="183.719" rx="7.61016" ry="7.6228" fill="white" fill-opacity="0.15"/>
<ellipse cx="101.678" cy="183.719" rx="7.61016" ry="7.6228" fill="white" fill-opacity="0.15"/>
<ellipse cx="133.034" cy="183.719" rx="7.61016" ry="7.6228" fill="white" fill-opacity="0.15"/>
<ellipse cx="164.39" cy="183.719" rx="7.61016" ry="7.6228" fill="white" fill-opacity="0.15"/>
<ellipse cx="7.61016" cy="218.938" rx="7.61016" ry="7.62281" fill="white" fill-opacity="0.15"/>
<ellipse cx="38.9661" cy="218.938" rx="7.61016" ry="7.62281" fill="white" fill-opacity="0.15"/>
<ellipse cx="70.3221" cy="218.938" rx="7.61016" ry="7.62281" fill="white" fill-opacity="0.15"/>
<ellipse cx="101.678" cy="218.938" rx="7.61016" ry="7.62281" fill="white" fill-opacity="0.15"/>
<ellipse cx="133.034" cy="218.938" rx="7.61016" ry="7.62281" fill="white" fill-opacity="0.15"/>
<ellipse cx="164.39" cy="218.938" rx="7.61016" ry="7.62281" fill="white" fill-opacity="0.15"/>
<ellipse cx="7.61016" cy="254.158" rx="7.61016" ry="7.6228" fill="white" fill-opacity="0.15"/>
<ellipse cx="38.9661" cy="254.158" rx="7.61016" ry="7.6228" fill="white" fill-opacity="0.15"/>
<ellipse cx="70.3221" cy="254.158" rx="7.61016" ry="7.6228" fill="white" fill-opacity="0.15"/>
<ellipse cx="101.678" cy="254.158" rx="7.61016" ry="7.6228" fill="white" fill-opacity="0.15"/>
<ellipse cx="133.034" cy="254.158" rx="7.61016" ry="7.6228" fill="white" fill-opacity="0.15"/>
<ellipse cx="164.39" cy="254.158" rx="7.61016" ry="7.6228" fill="white" fill-opacity="0.15"/>
<ellipse cx="7.61016" cy="289.377" rx="7.61016" ry="7.6228" fill="white" fill-opacity="0.15"/>
<ellipse cx="38.9661" cy="289.377" rx="7.61016" ry="7.6228" fill="white" fill-opacity="0.15"/>
<ellipse cx="70.3221" cy="289.377" rx="7.61016" ry="7.6228" fill="white" fill-opacity="0.15"/>
<ellipse cx="101.678" cy="289.377" rx="7.61016" ry="7.6228" fill="white" fill-opacity="0.15"/>
<ellipse cx="133.034" cy="289.377" rx="7.61016" ry="7.6228" fill="white" fill-opacity="0.15"/>
<ellipse cx="164.39" cy="289.377" rx="7.61016" ry="7.6228" fill="white" fill-opacity="0.15"/>
</svg>
