<svg width="297" height="173" viewBox="0 0 297 173" fill="none" xmlns="http://www.w3.org/2000/svg">
<ellipse cx="289.377" cy="8.11016" rx="7.61016" ry="7.6228" transform="rotate(90 289.377 8.11016)" fill="white" fill-opacity="0.15"/>
<ellipse cx="289.377" cy="39.4661" rx="7.61016" ry="7.6228" transform="rotate(90 289.377 39.4661)" fill="white" fill-opacity="0.15"/>
<ellipse cx="289.377" cy="70.8221" rx="7.61016" ry="7.6228" transform="rotate(90 289.377 70.8221)" fill="white" fill-opacity="0.15"/>
<ellipse cx="289.377" cy="102.178" rx="7.61016" ry="7.6228" transform="rotate(90 289.377 102.178)" fill="white" fill-opacity="0.15"/>
<ellipse cx="289.377" cy="133.534" rx="7.61016" ry="7.6228" transform="rotate(90 289.377 133.534)" fill="white" fill-opacity="0.15"/>
<ellipse cx="289.377" cy="164.89" rx="7.61016" ry="7.6228" transform="rotate(90 289.377 164.89)" fill="white" fill-opacity="0.15"/>
<ellipse cx="254.158" cy="8.11016" rx="7.61016" ry="7.6228" transform="rotate(90 254.158 8.11016)" fill="white" fill-opacity="0.15"/>
<ellipse cx="254.158" cy="39.4661" rx="7.61016" ry="7.6228" transform="rotate(90 254.158 39.4661)" fill="white" fill-opacity="0.15"/>
<ellipse cx="254.158" cy="70.8221" rx="7.61016" ry="7.6228" transform="rotate(90 254.158 70.8221)" fill="white" fill-opacity="0.15"/>
<ellipse cx="254.158" cy="102.178" rx="7.61016" ry="7.6228" transform="rotate(90 254.158 102.178)" fill="white" fill-opacity="0.15"/>
<ellipse cx="254.158" cy="133.534" rx="7.61016" ry="7.6228" transform="rotate(90 254.158 133.534)" fill="white" fill-opacity="0.15"/>
<ellipse cx="254.158" cy="164.89" rx="7.61016" ry="7.6228" transform="rotate(90 254.158 164.89)" fill="white" fill-opacity="0.15"/>
<ellipse cx="218.939" cy="8.11016" rx="7.61016" ry="7.62281" transform="rotate(90 218.939 8.11016)" fill="white" fill-opacity="0.15"/>
<ellipse cx="218.939" cy="39.4661" rx="7.61016" ry="7.62281" transform="rotate(90 218.939 39.4661)" fill="white" fill-opacity="0.15"/>
<ellipse cx="218.939" cy="70.8221" rx="7.61016" ry="7.62281" transform="rotate(90 218.939 70.8221)" fill="white" fill-opacity="0.15"/>
<ellipse cx="218.939" cy="102.178" rx="7.61016" ry="7.62281" transform="rotate(90 218.939 102.178)" fill="white" fill-opacity="0.15"/>
<ellipse cx="218.939" cy="133.534" rx="7.61016" ry="7.62281" transform="rotate(90 218.939 133.534)" fill="white" fill-opacity="0.15"/>
<ellipse cx="218.939" cy="164.89" rx="7.61016" ry="7.62281" transform="rotate(90 218.939 164.89)" fill="white" fill-opacity="0.15"/>
<ellipse cx="183.719" cy="8.11016" rx="7.61016" ry="7.6228" transform="rotate(90 183.719 8.11016)" fill="white" fill-opacity="0.15"/>
<ellipse cx="183.719" cy="39.4661" rx="7.61016" ry="7.6228" transform="rotate(90 183.719 39.4661)" fill="white" fill-opacity="0.15"/>
<ellipse cx="183.719" cy="70.8221" rx="7.61016" ry="7.6228" transform="rotate(90 183.719 70.8221)" fill="white" fill-opacity="0.15"/>
<ellipse cx="183.719" cy="102.178" rx="7.61016" ry="7.6228" transform="rotate(90 183.719 102.178)" fill="white" fill-opacity="0.15"/>
<ellipse cx="183.719" cy="133.534" rx="7.61016" ry="7.6228" transform="rotate(90 183.719 133.534)" fill="white" fill-opacity="0.15"/>
<ellipse cx="183.719" cy="164.89" rx="7.61016" ry="7.6228" transform="rotate(90 183.719 164.89)" fill="white" fill-opacity="0.15"/>
<ellipse cx="148.5" cy="8.11016" rx="7.61016" ry="7.62281" transform="rotate(90 148.5 8.11016)" fill="white" fill-opacity="0.15"/>
<ellipse cx="148.5" cy="39.4661" rx="7.61016" ry="7.62281" transform="rotate(90 148.5 39.4661)" fill="white" fill-opacity="0.15"/>
<ellipse cx="148.5" cy="70.8221" rx="7.61016" ry="7.62281" transform="rotate(90 148.5 70.8221)" fill="white" fill-opacity="0.15"/>
<ellipse cx="148.5" cy="102.178" rx="7.61016" ry="7.62281" transform="rotate(90 148.5 102.178)" fill="white" fill-opacity="0.15"/>
<ellipse cx="148.5" cy="133.534" rx="7.61016" ry="7.62281" transform="rotate(90 148.5 133.534)" fill="white" fill-opacity="0.15"/>
<ellipse cx="148.5" cy="164.89" rx="7.61016" ry="7.62281" transform="rotate(90 148.5 164.89)" fill="white" fill-opacity="0.15"/>
<ellipse cx="113.281" cy="8.11016" rx="7.61016" ry="7.6228" transform="rotate(90 113.281 8.11016)" fill="white" fill-opacity="0.15"/>
<ellipse cx="113.281" cy="39.4661" rx="7.61016" ry="7.6228" transform="rotate(90 113.281 39.4661)" fill="white" fill-opacity="0.15"/>
<ellipse cx="113.281" cy="70.8221" rx="7.61016" ry="7.6228" transform="rotate(90 113.281 70.8221)" fill="white" fill-opacity="0.15"/>
<ellipse cx="113.281" cy="102.178" rx="7.61016" ry="7.6228" transform="rotate(90 113.281 102.178)" fill="white" fill-opacity="0.15"/>
<ellipse cx="113.281" cy="133.534" rx="7.61016" ry="7.6228" transform="rotate(90 113.281 133.534)" fill="white" fill-opacity="0.15"/>
<ellipse cx="113.281" cy="164.89" rx="7.61016" ry="7.6228" transform="rotate(90 113.281 164.89)" fill="white" fill-opacity="0.15"/>
<ellipse cx="78.0613" cy="8.11016" rx="7.61016" ry="7.62281" transform="rotate(90 78.0613 8.11016)" fill="white" fill-opacity="0.15"/>
<ellipse cx="78.0613" cy="39.4661" rx="7.61016" ry="7.62281" transform="rotate(90 78.0613 39.4661)" fill="white" fill-opacity="0.15"/>
<ellipse cx="78.0613" cy="70.8221" rx="7.61016" ry="7.62281" transform="rotate(90 78.0613 70.8221)" fill="white" fill-opacity="0.15"/>
<ellipse cx="78.0613" cy="102.178" rx="7.61016" ry="7.62281" transform="rotate(90 78.0613 102.178)" fill="white" fill-opacity="0.15"/>
<ellipse cx="78.0613" cy="133.534" rx="7.61016" ry="7.62281" transform="rotate(90 78.0613 133.534)" fill="white" fill-opacity="0.15"/>
<ellipse cx="78.0613" cy="164.89" rx="7.61016" ry="7.62281" transform="rotate(90 78.0613 164.89)" fill="white" fill-opacity="0.15"/>
<ellipse cx="42.842" cy="8.11016" rx="7.61016" ry="7.6228" transform="rotate(90 42.842 8.11016)" fill="white" fill-opacity="0.15"/>
<ellipse cx="42.842" cy="39.4661" rx="7.61016" ry="7.6228" transform="rotate(90 42.842 39.4661)" fill="white" fill-opacity="0.15"/>
<ellipse cx="42.842" cy="70.8221" rx="7.61016" ry="7.6228" transform="rotate(90 42.842 70.8221)" fill="white" fill-opacity="0.15"/>
<ellipse cx="42.842" cy="102.178" rx="7.61016" ry="7.6228" transform="rotate(90 42.842 102.178)" fill="white" fill-opacity="0.15"/>
<ellipse cx="42.842" cy="133.534" rx="7.61016" ry="7.6228" transform="rotate(90 42.842 133.534)" fill="white" fill-opacity="0.15"/>
<ellipse cx="42.842" cy="164.89" rx="7.61016" ry="7.6228" transform="rotate(90 42.842 164.89)" fill="white" fill-opacity="0.15"/>
<ellipse cx="7.6228" cy="8.11016" rx="7.61016" ry="7.6228" transform="rotate(90 7.6228 8.11016)" fill="white" fill-opacity="0.15"/>
<ellipse cx="7.6228" cy="39.4661" rx="7.61016" ry="7.6228" transform="rotate(90 7.6228 39.4661)" fill="white" fill-opacity="0.15"/>
<ellipse cx="7.6228" cy="70.8221" rx="7.61016" ry="7.6228" transform="rotate(90 7.6228 70.8221)" fill="white" fill-opacity="0.15"/>
<ellipse cx="7.6228" cy="102.178" rx="7.61016" ry="7.6228" transform="rotate(90 7.6228 102.178)" fill="white" fill-opacity="0.15"/>
<ellipse cx="7.6228" cy="133.534" rx="7.61016" ry="7.6228" transform="rotate(90 7.6228 133.534)" fill="white" fill-opacity="0.15"/>
<ellipse cx="7.6228" cy="164.89" rx="7.61016" ry="7.6228" transform="rotate(90 7.6228 164.89)" fill="white" fill-opacity="0.15"/>
</svg>
