<svg width="407" height="702" viewBox="0 0 407 702" fill="none" xmlns="http://www.w3.org/2000/svg">
<ellipse cx="388.514" cy="683.906" rx="17.9856" ry="18.0155" transform="rotate(-180 388.514 683.906)" fill="#006BB9" fill-opacity="0.05"/>
<ellipse cx="314.409" cy="683.906" rx="17.9856" ry="18.0155" transform="rotate(-180 314.409 683.906)" fill="#006BB9" fill-opacity="0.05"/>
<ellipse cx="240.303" cy="683.906" rx="17.9856" ry="18.0155" transform="rotate(-180 240.303 683.906)" fill="#006BB9" fill-opacity="0.05"/>
<ellipse cx="166.197" cy="683.906" rx="17.9856" ry="18.0155" transform="rotate(-180 166.197 683.906)" fill="#006BB9" fill-opacity="0.05"/>
<ellipse cx="92.0913" cy="683.906" rx="17.9856" ry="18.0155" transform="rotate(-180 92.0913 683.906)" fill="#006BB9" fill-opacity="0.05"/>
<ellipse cx="17.9856" cy="683.906" rx="17.9856" ry="18.0155" transform="rotate(-180 17.9856 683.906)" fill="#006BB9" fill-opacity="0.05"/>
<ellipse cx="388.514" cy="600.67" rx="17.9856" ry="18.0155" transform="rotate(-180 388.514 600.67)" fill="#006BB9" fill-opacity="0.05"/>
<ellipse cx="314.409" cy="600.67" rx="17.9856" ry="18.0155" transform="rotate(-180 314.409 600.67)" fill="#006BB9" fill-opacity="0.05"/>
<ellipse cx="240.303" cy="600.67" rx="17.9856" ry="18.0155" transform="rotate(-180 240.303 600.67)" fill="#006BB9" fill-opacity="0.05"/>
<ellipse cx="166.197" cy="600.67" rx="17.9856" ry="18.0155" transform="rotate(-180 166.197 600.67)" fill="#006BB9" fill-opacity="0.05"/>
<ellipse cx="92.0913" cy="600.67" rx="17.9856" ry="18.0155" transform="rotate(-180 92.0913 600.67)" fill="#006BB9" fill-opacity="0.05"/>
<ellipse cx="17.9856" cy="600.67" rx="17.9856" ry="18.0155" transform="rotate(-180 17.9856 600.67)" fill="#006BB9" fill-opacity="0.05"/>
<ellipse cx="388.514" cy="517.433" rx="17.9856" ry="18.0155" transform="rotate(-180 388.514 517.433)" fill="#006BB9" fill-opacity="0.05"/>
<ellipse cx="314.409" cy="517.433" rx="17.9856" ry="18.0155" transform="rotate(-180 314.409 517.433)" fill="#006BB9" fill-opacity="0.05"/>
<ellipse cx="240.303" cy="517.433" rx="17.9856" ry="18.0155" transform="rotate(-180 240.303 517.433)" fill="#006BB9" fill-opacity="0.05"/>
<ellipse cx="166.197" cy="517.433" rx="17.9856" ry="18.0155" transform="rotate(-180 166.197 517.433)" fill="#006BB9" fill-opacity="0.05"/>
<ellipse cx="92.0913" cy="517.433" rx="17.9856" ry="18.0155" transform="rotate(-180 92.0913 517.433)" fill="#006BB9" fill-opacity="0.05"/>
<ellipse cx="17.9856" cy="517.433" rx="17.9856" ry="18.0155" transform="rotate(-180 17.9856 517.433)" fill="#006BB9" fill-opacity="0.05"/>
<ellipse cx="388.514" cy="434.197" rx="17.9856" ry="18.0155" transform="rotate(-180 388.514 434.197)" fill="#006BB9" fill-opacity="0.05"/>
<ellipse cx="314.409" cy="434.197" rx="17.9856" ry="18.0155" transform="rotate(-180 314.409 434.197)" fill="#006BB9" fill-opacity="0.05"/>
<ellipse cx="240.303" cy="434.197" rx="17.9856" ry="18.0155" transform="rotate(-180 240.303 434.197)" fill="#006BB9" fill-opacity="0.05"/>
<ellipse cx="166.197" cy="434.197" rx="17.9856" ry="18.0155" transform="rotate(-180 166.197 434.197)" fill="#006BB9" fill-opacity="0.05"/>
<ellipse cx="92.0913" cy="434.197" rx="17.9856" ry="18.0155" transform="rotate(-180 92.0913 434.197)" fill="#006BB9" fill-opacity="0.05"/>
<ellipse cx="17.9856" cy="434.197" rx="17.9856" ry="18.0155" transform="rotate(-180 17.9856 434.197)" fill="#006BB9" fill-opacity="0.05"/>
<ellipse cx="388.514" cy="350.961" rx="17.9856" ry="18.0156" transform="rotate(-180 388.514 350.961)" fill="#006BB9" fill-opacity="0.05"/>
<ellipse cx="314.409" cy="350.961" rx="17.9856" ry="18.0156" transform="rotate(-180 314.409 350.961)" fill="#006BB9" fill-opacity="0.05"/>
<ellipse cx="240.303" cy="350.961" rx="17.9856" ry="18.0156" transform="rotate(-180 240.303 350.961)" fill="#006BB9" fill-opacity="0.05"/>
<ellipse cx="166.197" cy="350.961" rx="17.9856" ry="18.0155" transform="rotate(-180 166.197 350.961)" fill="#006BB9" fill-opacity="0.05"/>
<ellipse cx="92.0913" cy="350.961" rx="17.9856" ry="18.0155" transform="rotate(-180 92.0913 350.961)" fill="#006BB9" fill-opacity="0.05"/>
<ellipse cx="17.9856" cy="350.961" rx="17.9856" ry="18.0155" transform="rotate(-180 17.9856 350.961)" fill="#006BB9" fill-opacity="0.05"/>
<ellipse cx="388.514" cy="267.724" rx="17.9856" ry="18.0155" transform="rotate(-180 388.514 267.724)" fill="#006BB9" fill-opacity="0.05"/>
<ellipse cx="314.409" cy="267.724" rx="17.9856" ry="18.0155" transform="rotate(-180 314.409 267.724)" fill="#006BB9" fill-opacity="0.05"/>
<ellipse cx="240.303" cy="267.724" rx="17.9856" ry="18.0155" transform="rotate(-180 240.303 267.724)" fill="#006BB9" fill-opacity="0.05"/>
<ellipse cx="166.197" cy="267.724" rx="17.9856" ry="18.0155" transform="rotate(-180 166.197 267.724)" fill="#006BB9" fill-opacity="0.05"/>
<ellipse cx="92.0913" cy="267.724" rx="17.9856" ry="18.0155" transform="rotate(-180 92.0913 267.724)" fill="#006BB9" fill-opacity="0.05"/>
<ellipse cx="17.9856" cy="267.724" rx="17.9856" ry="18.0155" transform="rotate(-180 17.9856 267.724)" fill="#006BB9" fill-opacity="0.05"/>
<ellipse cx="388.514" cy="184.488" rx="17.9856" ry="18.0155" transform="rotate(-180 388.514 184.488)" fill="#006BB9" fill-opacity="0.05"/>
<ellipse cx="314.409" cy="184.488" rx="17.9856" ry="18.0155" transform="rotate(-180 314.409 184.488)" fill="#006BB9" fill-opacity="0.05"/>
<ellipse cx="240.303" cy="184.488" rx="17.9856" ry="18.0155" transform="rotate(-180 240.303 184.488)" fill="#006BB9" fill-opacity="0.05"/>
<ellipse cx="166.197" cy="184.488" rx="17.9856" ry="18.0155" transform="rotate(-180 166.197 184.488)" fill="#006BB9" fill-opacity="0.05"/>
<ellipse cx="92.0913" cy="184.488" rx="17.9856" ry="18.0155" transform="rotate(-180 92.0913 184.488)" fill="#006BB9" fill-opacity="0.05"/>
<ellipse cx="17.9856" cy="184.488" rx="17.9856" ry="18.0155" transform="rotate(-180 17.9856 184.488)" fill="#006BB9" fill-opacity="0.05"/>
<ellipse cx="388.514" cy="101.252" rx="17.9856" ry="18.0155" transform="rotate(-180 388.514 101.252)" fill="#006BB9" fill-opacity="0.05"/>
<ellipse cx="314.409" cy="101.252" rx="17.9856" ry="18.0155" transform="rotate(-180 314.409 101.252)" fill="#006BB9" fill-opacity="0.05"/>
<ellipse cx="240.303" cy="101.252" rx="17.9856" ry="18.0155" transform="rotate(-180 240.303 101.252)" fill="#006BB9" fill-opacity="0.05"/>
<ellipse cx="166.197" cy="101.252" rx="17.9856" ry="18.0155" transform="rotate(-180 166.197 101.252)" fill="#006BB9" fill-opacity="0.05"/>
<ellipse cx="92.0913" cy="101.252" rx="17.9856" ry="18.0155" transform="rotate(-180 92.0913 101.252)" fill="#006BB9" fill-opacity="0.05"/>
<ellipse cx="17.9856" cy="101.252" rx="17.9856" ry="18.0155" transform="rotate(-180 17.9856 101.252)" fill="#006BB9" fill-opacity="0.05"/>
<ellipse cx="388.514" cy="18.0154" rx="17.9856" ry="18.0155" transform="rotate(-180 388.514 18.0154)" fill="#006BB9" fill-opacity="0.05"/>
<ellipse cx="314.409" cy="18.0154" rx="17.9856" ry="18.0155" transform="rotate(-180 314.409 18.0154)" fill="#006BB9" fill-opacity="0.05"/>
<ellipse cx="240.303" cy="18.0154" rx="17.9856" ry="18.0155" transform="rotate(-180 240.303 18.0154)" fill="#006BB9" fill-opacity="0.05"/>
<ellipse cx="166.197" cy="18.0154" rx="17.9856" ry="18.0155" transform="rotate(-180 166.197 18.0154)" fill="#006BB9" fill-opacity="0.05"/>
<ellipse cx="92.0913" cy="18.0154" rx="17.9856" ry="18.0155" transform="rotate(-180 92.0913 18.0154)" fill="#006BB9" fill-opacity="0.05"/>
<ellipse cx="17.9856" cy="18.0154" rx="17.9856" ry="18.0155" transform="rotate(-180 17.9856 18.0154)" fill="#006BB9" fill-opacity="0.05"/>
</svg>
