<svg width="172" height="297" viewBox="0 0 172 297" fill="none" xmlns="http://www.w3.org/2000/svg">
<ellipse cx="164.39" cy="289.377" rx="7.61016" ry="7.6228" transform="rotate(-180 164.39 289.377)" fill="#006BB9" fill-opacity="0.05"/>
<ellipse cx="133.034" cy="289.377" rx="7.61016" ry="7.6228" transform="rotate(-180 133.034 289.377)" fill="#006BB9" fill-opacity="0.05"/>
<ellipse cx="101.678" cy="289.377" rx="7.61016" ry="7.6228" transform="rotate(-180 101.678 289.377)" fill="#006BB9" fill-opacity="0.05"/>
<ellipse cx="70.322" cy="289.377" rx="7.61016" ry="7.6228" transform="rotate(-180 70.322 289.377)" fill="#006BB9" fill-opacity="0.05"/>
<ellipse cx="38.966" cy="289.377" rx="7.61016" ry="7.6228" transform="rotate(-180 38.966 289.377)" fill="#006BB9" fill-opacity="0.05"/>
<ellipse cx="7.61005" cy="289.377" rx="7.61016" ry="7.6228" transform="rotate(-180 7.61005 289.377)" fill="#006BB9" fill-opacity="0.05"/>
<ellipse cx="164.39" cy="254.158" rx="7.61016" ry="7.6228" transform="rotate(-180 164.39 254.158)" fill="#006BB9" fill-opacity="0.05"/>
<ellipse cx="133.034" cy="254.158" rx="7.61016" ry="7.6228" transform="rotate(-180 133.034 254.158)" fill="#006BB9" fill-opacity="0.05"/>
<ellipse cx="101.678" cy="254.158" rx="7.61016" ry="7.6228" transform="rotate(-180 101.678 254.158)" fill="#006BB9" fill-opacity="0.05"/>
<ellipse cx="70.322" cy="254.158" rx="7.61016" ry="7.6228" transform="rotate(-180 70.322 254.158)" fill="#006BB9" fill-opacity="0.05"/>
<ellipse cx="38.966" cy="254.158" rx="7.61016" ry="7.6228" transform="rotate(-180 38.966 254.158)" fill="#006BB9" fill-opacity="0.05"/>
<ellipse cx="7.61005" cy="254.158" rx="7.61016" ry="7.6228" transform="rotate(-180 7.61005 254.158)" fill="#006BB9" fill-opacity="0.05"/>
<ellipse cx="164.39" cy="218.939" rx="7.61016" ry="7.62281" transform="rotate(-180 164.39 218.939)" fill="#006BB9" fill-opacity="0.05"/>
<ellipse cx="133.034" cy="218.939" rx="7.61016" ry="7.62281" transform="rotate(-180 133.034 218.939)" fill="#006BB9" fill-opacity="0.05"/>
<ellipse cx="101.678" cy="218.939" rx="7.61016" ry="7.62281" transform="rotate(-180 101.678 218.939)" fill="#006BB9" fill-opacity="0.05"/>
<ellipse cx="70.322" cy="218.938" rx="7.61016" ry="7.62281" transform="rotate(-180 70.322 218.938)" fill="#006BB9" fill-opacity="0.05"/>
<ellipse cx="38.966" cy="218.938" rx="7.61016" ry="7.62281" transform="rotate(-180 38.966 218.938)" fill="#006BB9" fill-opacity="0.05"/>
<ellipse cx="7.61005" cy="218.938" rx="7.61016" ry="7.62281" transform="rotate(-180 7.61005 218.938)" fill="#006BB9" fill-opacity="0.05"/>
<ellipse cx="164.39" cy="183.719" rx="7.61016" ry="7.6228" transform="rotate(-180 164.39 183.719)" fill="#006BB9" fill-opacity="0.05"/>
<ellipse cx="133.034" cy="183.719" rx="7.61016" ry="7.6228" transform="rotate(-180 133.034 183.719)" fill="#006BB9" fill-opacity="0.05"/>
<ellipse cx="101.678" cy="183.719" rx="7.61016" ry="7.6228" transform="rotate(-180 101.678 183.719)" fill="#006BB9" fill-opacity="0.05"/>
<ellipse cx="70.322" cy="183.719" rx="7.61016" ry="7.6228" transform="rotate(-180 70.322 183.719)" fill="#006BB9" fill-opacity="0.05"/>
<ellipse cx="38.966" cy="183.719" rx="7.61016" ry="7.6228" transform="rotate(-180 38.966 183.719)" fill="#006BB9" fill-opacity="0.05"/>
<ellipse cx="7.61005" cy="183.719" rx="7.61016" ry="7.6228" transform="rotate(-180 7.61005 183.719)" fill="#006BB9" fill-opacity="0.05"/>
<ellipse cx="164.39" cy="148.5" rx="7.61016" ry="7.62281" transform="rotate(-180 164.39 148.5)" fill="#006BB9" fill-opacity="0.05"/>
<ellipse cx="133.034" cy="148.5" rx="7.61016" ry="7.62281" transform="rotate(-180 133.034 148.5)" fill="#006BB9" fill-opacity="0.05"/>
<ellipse cx="101.678" cy="148.5" rx="7.61016" ry="7.62281" transform="rotate(-180 101.678 148.5)" fill="#006BB9" fill-opacity="0.05"/>
<ellipse cx="70.322" cy="148.5" rx="7.61016" ry="7.62281" transform="rotate(-180 70.322 148.5)" fill="#006BB9" fill-opacity="0.05"/>
<ellipse cx="38.966" cy="148.5" rx="7.61016" ry="7.62281" transform="rotate(-180 38.966 148.5)" fill="#006BB9" fill-opacity="0.05"/>
<ellipse cx="7.61005" cy="148.5" rx="7.61016" ry="7.62281" transform="rotate(-180 7.61005 148.5)" fill="#006BB9" fill-opacity="0.05"/>
<ellipse cx="164.39" cy="113.281" rx="7.61016" ry="7.6228" transform="rotate(-180 164.39 113.281)" fill="#006BB9" fill-opacity="0.05"/>
<ellipse cx="133.034" cy="113.281" rx="7.61016" ry="7.6228" transform="rotate(-180 133.034 113.281)" fill="#006BB9" fill-opacity="0.05"/>
<ellipse cx="101.678" cy="113.281" rx="7.61016" ry="7.6228" transform="rotate(-180 101.678 113.281)" fill="#006BB9" fill-opacity="0.05"/>
<ellipse cx="70.322" cy="113.281" rx="7.61016" ry="7.6228" transform="rotate(-180 70.322 113.281)" fill="#006BB9" fill-opacity="0.05"/>
<ellipse cx="38.966" cy="113.281" rx="7.61016" ry="7.6228" transform="rotate(-180 38.966 113.281)" fill="#006BB9" fill-opacity="0.05"/>
<ellipse cx="7.6103" cy="113.281" rx="7.61016" ry="7.6228" transform="rotate(-180 7.6103 113.281)" fill="#006BB9" fill-opacity="0.05"/>
<ellipse cx="164.39" cy="78.0615" rx="7.61016" ry="7.62281" transform="rotate(-180 164.39 78.0615)" fill="#006BB9" fill-opacity="0.05"/>
<ellipse cx="133.034" cy="78.0615" rx="7.61016" ry="7.62281" transform="rotate(-180 133.034 78.0615)" fill="#006BB9" fill-opacity="0.05"/>
<ellipse cx="101.678" cy="78.0615" rx="7.61016" ry="7.62281" transform="rotate(-180 101.678 78.0615)" fill="#006BB9" fill-opacity="0.05"/>
<ellipse cx="70.322" cy="78.0615" rx="7.61016" ry="7.62281" transform="rotate(-180 70.322 78.0615)" fill="#006BB9" fill-opacity="0.05"/>
<ellipse cx="38.966" cy="78.0615" rx="7.61016" ry="7.62281" transform="rotate(-180 38.966 78.0615)" fill="#006BB9" fill-opacity="0.05"/>
<ellipse cx="7.6103" cy="78.0615" rx="7.61016" ry="7.62281" transform="rotate(-180 7.6103 78.0615)" fill="#006BB9" fill-opacity="0.05"/>
<ellipse cx="164.39" cy="42.842" rx="7.61016" ry="7.6228" transform="rotate(-180 164.39 42.842)" fill="#006BB9" fill-opacity="0.05"/>
<ellipse cx="133.034" cy="42.842" rx="7.61016" ry="7.6228" transform="rotate(-180 133.034 42.842)" fill="#006BB9" fill-opacity="0.05"/>
<ellipse cx="101.678" cy="42.842" rx="7.61016" ry="7.6228" transform="rotate(-180 101.678 42.842)" fill="#006BB9" fill-opacity="0.05"/>
<ellipse cx="70.322" cy="42.842" rx="7.61016" ry="7.6228" transform="rotate(-180 70.322 42.842)" fill="#006BB9" fill-opacity="0.05"/>
<ellipse cx="38.966" cy="42.842" rx="7.61016" ry="7.6228" transform="rotate(-180 38.966 42.842)" fill="#006BB9" fill-opacity="0.05"/>
<ellipse cx="7.6103" cy="42.842" rx="7.61016" ry="7.6228" transform="rotate(-180 7.6103 42.842)" fill="#006BB9" fill-opacity="0.05"/>
<ellipse cx="164.39" cy="7.6228" rx="7.61016" ry="7.6228" transform="rotate(-180 164.39 7.6228)" fill="#006BB9" fill-opacity="0.05"/>
<ellipse cx="133.034" cy="7.6228" rx="7.61016" ry="7.6228" transform="rotate(-180 133.034 7.6228)" fill="#006BB9" fill-opacity="0.05"/>
<ellipse cx="101.678" cy="7.6228" rx="7.61016" ry="7.6228" transform="rotate(-180 101.678 7.6228)" fill="#006BB9" fill-opacity="0.05"/>
<ellipse cx="70.322" cy="7.6228" rx="7.61016" ry="7.6228" transform="rotate(-180 70.322 7.6228)" fill="#006BB9" fill-opacity="0.05"/>
<ellipse cx="38.966" cy="7.6228" rx="7.61016" ry="7.6228" transform="rotate(-180 38.966 7.6228)" fill="#006BB9" fill-opacity="0.05"/>
<ellipse cx="7.6103" cy="7.6228" rx="7.61016" ry="7.6228" transform="rotate(-180 7.6103 7.6228)" fill="#006BB9" fill-opacity="0.05"/>
</svg>
