<svg width="630" height="683" viewBox="0 0 630 683" fill="none" xmlns="http://www.w3.org/2000/svg">
<g clip-path="url(#clip0)">
<path d="M108.341 509.175H281.772V682.606L108.341 509.175Z" fill="#D29970"/>
<path d="M-65.0896 509.175H108.341V682.606L-65.0896 509.175Z" fill="#D29970"/>
<path d="M-65.0896 335.744H108.341V509.175L-65.0896 335.744Z" fill="#D29970"/>
<path opacity="0.3" d="M281.772 509.175H456.102V682.606L281.772 509.175Z" fill="#D29970"/>
<path opacity="0.1" d="M456.102 509.175H629.532V682.606L456.102 509.175Z" fill="#D29970"/>
<path opacity="0.1" d="M281.772 334.845H456.102V509.175L281.772 334.845Z" fill="#D29970"/>
<path opacity="0.3" d="M108.341 334.845H281.772V509.175L108.341 334.845Z" fill="#D29970"/>
<path opacity="0.3" d="M-65.0896 160.516H108.341V334.845L-65.0896 160.516Z" fill="#D29970"/>
<path opacity="0.1" d="M108.341 161.414H281.772V334.845L108.341 161.414Z" fill="#D29970"/>
<path opacity="0.1" d="M-65.0896 -12.0165H108.341V161.414L-65.0896 -12.0165Z" fill="#D29970"/>
</g>
<defs>
<clipPath id="clip0">
<rect width="630" height="683" fill="white"/>
</clipPath>
</defs>
</svg>
