<svg width="57" height="46" viewBox="0 0 57 46" fill="none" xmlns="http://www.w3.org/2000/svg">
<path d="M0.71504 45.167H18.2357C18.2392 45.167 18.2421 45.1648 18.2457 45.1648C18.2493 45.1648 18.2521 45.167 18.2557 45.167H23.8752H32.6945H38.2933H38.314H55.8146C56.21 45.167 56.5297 44.8473 56.5297 44.4519V19.314C56.5297 19.0043 56.3309 18.7305 56.037 18.6347L39.0298 13.0817V4.3596C39.0298 3.96418 38.7101 3.64456 38.3147 3.64456H36.7466V0.71504C36.7466 0.319623 36.427 0 36.0316 0H20.5381C20.1434 0 19.8231 0.319623 19.8231 0.71504V3.64456H18.2557C17.861 3.64456 17.5407 3.96418 17.5407 4.3596V13.0688L0.492663 18.6347C0.198781 18.7305 0 19.0051 0 19.314V44.4519C0 44.8473 0.319623 45.167 0.71504 45.167ZM24.5902 43.7369V32.4757H27.5691V43.7369H24.5902ZM28.9992 43.7369V32.4757H31.9795V43.7369H28.9992ZM55.0996 19.8324V43.7369H39.0298V14.5861L55.0996 19.8324ZM21.2531 1.43008H35.3158V3.64456H21.2531V1.43008ZM18.9707 5.07464H20.5381H36.0309H37.599V13.4235C37.5854 13.4785 37.5782 13.5357 37.5782 13.5936V43.7369H33.4095V31.7607C33.4095 31.3652 33.0899 31.0456 32.6945 31.0456H23.8752C23.4805 31.0456 23.1602 31.3652 23.1602 31.7607V43.7369H18.9707V5.07464ZM1.43008 19.8324L17.5206 14.579V43.7362H1.43008V19.8324Z" fill="#00365D"/>
<path d="M7.36997 20.9756H3.31856C2.92385 20.9756 2.60352 21.2952 2.60352 21.6906V25.2658C2.60352 25.6612 2.92385 25.9809 3.31856 25.9809H7.36997C7.76468 25.9809 8.08502 25.6612 8.08502 25.2658V21.6906C8.08502 21.2952 7.76539 20.9756 7.36997 20.9756ZM6.65493 24.5508H4.0336V22.4057H6.65493V24.5508Z" fill="#00365D"/>
<path d="M15.117 20.9756H11.0656C10.6709 20.9756 10.3506 21.2952 10.3506 21.6906V25.2658C10.3506 25.6612 10.6709 25.9809 11.0656 25.9809H15.117C15.5117 25.9809 15.8321 25.6612 15.8321 25.2658V21.6906C15.8321 21.2952 15.5125 20.9756 15.117 20.9756ZM14.402 24.5508H11.7807V22.4057H14.402V24.5508Z" fill="#00365D"/>
<path d="M41.156 25.9809H45.2074C45.6028 25.9809 45.9224 25.6612 45.9224 25.2658V21.6906C45.9224 21.2952 45.6028 20.9756 45.2074 20.9756H41.156C40.7605 20.9756 40.4409 21.2952 40.4409 21.6906V25.2658C40.4409 25.6612 40.7613 25.9809 41.156 25.9809ZM41.871 22.4057H44.4923V24.5508H41.871V22.4057Z" fill="#00365D"/>
<path d="M48.9021 25.9809H52.9535C53.3489 25.9809 53.6685 25.6612 53.6685 25.2658V21.6906C53.6685 21.2952 53.3489 20.9756 52.9535 20.9756H48.9021C48.5066 20.9756 48.187 21.2952 48.187 21.6906V25.2658C48.187 25.6612 48.5073 25.9809 48.9021 25.9809ZM49.6171 22.4057H52.2384V24.5508H49.6171V22.4057Z" fill="#00365D"/>
<path d="M41.156 32.4755H45.2074C45.6028 32.4755 45.9224 32.1559 45.9224 31.7605V28.1853C45.9224 27.7898 45.6028 27.4702 45.2074 27.4702H41.156C40.7605 27.4702 40.4409 27.7898 40.4409 28.1853V31.7605C40.4409 32.1559 40.7613 32.4755 41.156 32.4755ZM41.871 28.9003H44.4923V31.0454H41.871V28.9003Z" fill="#00365D"/>
<path d="M48.9021 32.4755H52.9535C53.3489 32.4755 53.6685 32.1559 53.6685 31.7605V28.1853C53.6685 27.7898 53.3489 27.4702 52.9535 27.4702H48.9021C48.5066 27.4702 48.187 27.7898 48.187 28.1853V31.7605C48.187 32.1559 48.5073 32.4755 48.9021 32.4755ZM49.6171 28.9003H52.2384V31.0454H49.6171V28.9003Z" fill="#00365D"/>
<path d="M41.156 38.8217H45.2074C45.6028 38.8217 45.9224 38.5021 45.9224 38.1066V34.5314C45.9224 34.136 45.6028 33.8164 45.2074 33.8164H41.156C40.7605 33.8164 40.4409 34.136 40.4409 34.5314V38.1066C40.4409 38.5021 40.7613 38.8217 41.156 38.8217ZM41.871 35.2465H44.4923V37.3916H41.871V35.2465Z" fill="#00365D"/>
<path d="M48.9021 38.8217H52.9535C53.3489 38.8217 53.6685 38.5021 53.6685 38.1066V34.5314C53.6685 34.136 53.3489 33.8164 52.9535 33.8164H48.9021C48.5066 33.8164 48.187 34.136 48.187 34.5314V38.1066C48.187 38.5021 48.5073 38.8217 48.9021 38.8217ZM49.6171 35.2465H52.2384V37.3916H49.6171V35.2465Z" fill="#00365D"/>
<path d="M22.385 11.6488H26.4364C26.8311 11.6488 27.1514 11.3292 27.1514 10.9338V7.3586C27.1514 6.96318 26.8311 6.64355 26.4364 6.64355H22.385C21.9903 6.64355 21.6699 6.96318 21.6699 7.3586V10.9338C21.6699 11.3292 21.9903 11.6488 22.385 11.6488ZM23.1 8.07364H25.7213V10.2188H23.1V8.07364Z" fill="#00365D"/>
<path d="M30.132 11.6488H34.1835C34.5789 11.6488 34.8985 11.3292 34.8985 10.9338V7.3586C34.8985 6.96318 34.5789 6.64355 34.1835 6.64355H30.132C29.7366 6.64355 29.417 6.96318 29.417 7.3586V10.9338C29.417 11.3292 29.7373 11.6488 30.132 11.6488ZM30.8471 8.07364H33.4684V10.2188H30.8471V8.07364Z" fill="#00365D"/>
<path d="M22.385 19.246H26.4364C26.8311 19.246 27.1514 18.9264 27.1514 18.531V14.9558C27.1514 14.5603 26.8311 14.2407 26.4364 14.2407H22.385C21.9903 14.2407 21.6699 14.5603 21.6699 14.9558V18.531C21.6699 18.9264 21.9903 19.246 22.385 19.246ZM23.1 15.6708H25.7213V17.8159H23.1V15.6708Z" fill="#00365D"/>
<path d="M30.132 19.246H34.1835C34.5789 19.246 34.8985 18.9264 34.8985 18.531V14.9558C34.8985 14.5603 34.5789 14.2407 34.1835 14.2407H30.132C29.7366 14.2407 29.417 14.5603 29.417 14.9558V18.531C29.417 18.9264 29.7373 19.246 30.132 19.246ZM30.8471 15.6708H33.4684V17.8159H30.8471V15.6708Z" fill="#00365D"/>
<path d="M26.4364 26.9086C26.8311 26.9086 27.1514 26.589 27.1514 26.1936V22.6184C27.1514 22.2229 26.8311 21.9033 26.4364 21.9033H22.385C21.9903 21.9033 21.6699 22.2229 21.6699 22.6184V26.1936C21.6699 26.589 21.9903 26.9086 22.385 26.9086H26.4364ZM23.1 23.3334H25.7213V25.4785H23.1V23.3334Z" fill="#00365D"/>
<path d="M30.132 26.9086H34.1835C34.5789 26.9086 34.8985 26.589 34.8985 26.1936V22.6184C34.8985 22.2229 34.5789 21.9033 34.1835 21.9033H30.132C29.7366 21.9033 29.417 22.2229 29.417 22.6184V26.1936C29.417 26.589 29.7373 26.9086 30.132 26.9086ZM30.8471 23.3334H33.4684V25.4785H30.8471V23.3334Z" fill="#00365D"/>
<path d="M7.36997 27.4702H3.31856C2.92385 27.4702 2.60352 27.7898 2.60352 28.1853V31.7605C2.60352 32.1559 2.92385 32.4755 3.31856 32.4755H7.36997C7.76468 32.4755 8.08502 32.1559 8.08502 31.7605V28.1853C8.08502 27.7898 7.76539 27.4702 7.36997 27.4702ZM6.65493 31.0454H4.0336V28.9003H6.65493V31.0454Z" fill="#00365D"/>
<path d="M15.117 27.4702H11.0656C10.6709 27.4702 10.3506 27.7898 10.3506 28.1853V31.7605C10.3506 32.1559 10.6709 32.4755 11.0656 32.4755H15.117C15.5117 32.4755 15.8321 32.1559 15.8321 31.7605V28.1853C15.8321 27.7898 15.5125 27.4702 15.117 27.4702ZM14.402 31.0454H11.7807V28.9003H14.402V31.0454Z" fill="#00365D"/>
<path d="M7.36997 33.8164H3.31856C2.92385 33.8164 2.60352 34.136 2.60352 34.5314V38.1066C2.60352 38.5021 2.92385 38.8217 3.31856 38.8217H7.36997C7.76468 38.8217 8.08502 38.5021 8.08502 38.1066V34.5314C8.08502 34.136 7.76539 33.8164 7.36997 33.8164ZM6.65493 37.3916H4.0336V35.2465H6.65493V37.3916Z" fill="#00365D"/>
<path d="M15.117 33.8164H11.0656C10.6709 33.8164 10.3506 34.136 10.3506 34.5314V38.1066C10.3506 38.5021 10.6709 38.8217 11.0656 38.8217H15.117C15.5117 38.8217 15.8321 38.5021 15.8321 38.1066V34.5314C15.8321 34.136 15.5125 33.8164 15.117 33.8164ZM14.402 37.3916H11.7807V35.2465H14.402V37.3916Z" fill="#00365D"/>
</svg>
