<svg width="47" height="47" viewBox="0 0 47 47" fill="none" xmlns="http://www.w3.org/2000/svg">
<path d="M16.6344 23.9711H45.6944C45.8972 23.9711 46.0918 23.8905 46.2352 23.7471C46.3786 23.6037 46.4592 23.4092 46.4592 23.2064V12.5C46.4591 12.2972 46.3785 12.1027 46.2351 11.9593L38.5877 4.31196C38.4443 4.16853 38.2498 4.08793 38.047 4.08789H24.2818C24.0789 4.08793 23.8845 4.16853 23.7411 4.31196L16.0937 11.9593C15.9503 12.1027 15.8697 12.2972 15.8696 12.5V23.2064C15.8696 23.4092 15.9502 23.6037 16.0936 23.7471C16.237 23.8905 16.4315 23.9711 16.6344 23.9711ZM23.3021 19.3827L21.9875 21.0253V17.7369L23.3021 19.3827ZM24.2818 20.6062L25.7493 22.4416H22.8142L24.2818 20.6062ZM25.2614 19.3827L26.576 17.74V21.0284L25.2614 19.3827ZM24.2818 18.1591L22.8142 16.3237H25.7493L24.2818 18.1591ZM44.9297 12.8181V22.4416H32.6939V12.5C32.6938 12.2972 32.6132 12.1027 32.4698 11.9593L26.1278 5.61737H28.5536L35.9769 13.0407L37.0582 11.9593L30.7163 5.61737H33.142L40.5653 13.0407L41.6467 11.9593L35.3047 5.61737H37.7304L44.9297 12.8181ZM17.3991 12.8181L24.2818 5.9355L31.1644 12.8181V22.4416H28.1054V15.559C28.1054 15.3561 28.0249 15.1616 27.8815 15.0182C27.738 14.8748 27.5435 14.7942 27.3407 14.7942H21.2228C21.02 14.7942 20.8255 14.8748 20.682 15.0182C20.5386 15.1616 20.4581 15.3561 20.4581 15.559V22.4416H17.3991V12.8181Z" fill="#00365D"/>
<path d="M11.2815 23.971V20.8433C12.3495 20.6618 13.319 20.1087 14.0187 19.2817C14.7184 18.4547 15.1032 17.407 15.1052 16.3237C15.1052 9.13512 11.3687 1.04572 11.2096 0.705411C11.1489 0.575204 11.0527 0.464751 10.932 0.386709C10.8114 0.308667 10.6712 0.266194 10.5275 0.264157C10.382 0.253266 10.2367 0.288189 10.112 0.36403C9.98738 0.439871 9.88958 0.552826 9.83235 0.687058C8.86895 2.70903 8.06779 4.80439 7.43643 6.95332C6.96416 6.02914 6.39533 5.15758 5.73947 4.35321C5.67096 4.27359 5.58678 4.20894 5.49218 4.16328C5.39758 4.11762 5.29459 4.09195 5.18963 4.08785C5.08444 4.0799 4.97883 4.09586 4.88069 4.13453C4.78255 4.1732 4.69444 4.23359 4.62296 4.31115C4.45777 4.4771 0.575195 8.44686 0.575195 16.3237C0.577206 17.407 0.962052 18.4547 1.66173 19.2817C2.36142 20.1087 3.3309 20.6618 4.39889 20.8433V23.971H5.92836V20.8356C6.61879 20.7209 7.27321 20.4476 7.84021 20.0372C8.40706 20.4493 9.06129 20.7251 9.75206 20.8433V23.971H11.2815ZM10.4992 2.94074C11.5798 5.63797 13.5757 11.3001 13.5757 16.3237C13.5757 17.1349 13.2535 17.913 12.6798 18.4867C12.1061 19.0603 11.3281 19.3826 10.5168 19.3826C9.70551 19.3826 8.92745 19.0603 8.35379 18.4867C7.78012 17.913 7.45784 17.1349 7.45784 16.3237C7.45784 10.9705 9.41557 5.54085 10.4992 2.94074ZM2.10467 16.3237C2.00683 12.6775 3.06851 9.09429 5.13686 6.08993C5.80665 7.08257 6.37054 8.14268 6.81928 9.25289C6.25237 11.5679 5.95344 13.9404 5.92836 16.3237C5.92773 17.2577 6.21418 18.1694 6.74893 18.9352C6.28569 19.2182 5.75537 19.3726 5.21262 19.3824C4.66987 19.3922 4.13433 19.2571 3.66117 18.991C3.18801 18.7249 2.79435 18.3375 2.52076 17.8687C2.24717 17.3998 2.10354 16.8665 2.10467 16.3237Z" fill="#00365D"/>
<path d="M34.2236 27.3433C34.2514 27.3433 34.2793 27.3417 34.3069 27.3387C35.7271 27.1858 37.1648 27.1047 38.6048 27.068C27.1782 29.878 17.0188 36.4267 9.74124 45.6733L10.9396 46.6231C15.1543 41.2589 20.3979 36.7906 26.3628 33.4802C32.3277 30.1698 38.8937 28.0842 45.6755 27.3456L45.8491 27.3655C46.0166 27.3838 46.181 27.4014 46.3454 27.4274L46.3676 27.2791L46.4709 27.2683L46.5297 27.2638L46.4533 26.6971L46.571 25.914C46.4946 25.9025 46.4181 25.8956 46.347 25.8865L46.3286 25.745C46.1145 25.7656 45.8958 25.7863 45.6809 25.8108C41.8744 25.3996 38.0347 25.3996 34.2282 25.8108C30.4156 25.3985 26.5697 25.3985 22.7571 25.8108C15.1998 24.9884 7.5541 25.7952 0.334955 28.1769L0.815211 29.6299C5.63405 28.0393 10.662 27.1718 15.7353 27.0558C10.222 28.4042 4.96411 30.6385 0.166713 33.6715L0.983454 34.9647C3.90936 33.1213 7.01356 31.5774 10.249 30.3564L9.21127 31.3941L10.7408 32.9236C10.8842 33.067 11.0786 33.1475 11.2814 33.1475C11.4842 33.1475 11.6787 33.067 11.8221 32.9236L13.3516 31.3941L12.2702 30.3128L11.2814 31.3016L10.3125 30.3327C14.3166 28.8158 18.4964 27.8114 22.7525 27.3433C22.7803 27.3433 22.8082 27.3417 22.8359 27.3387C24.2552 27.1858 25.6914 27.1055 27.1299 27.068C16.6073 29.677 7.13822 35.4506 0 43.61L1.15017 44.6187C9.62188 34.9212 21.4245 28.7563 34.2236 27.3433Z" fill="#00365D"/>
<path d="M21.2231 45.6737L22.4223 46.6235C28.6721 38.7004 37.1144 32.7907 46.6981 29.6303L46.2201 28.1772C36.3517 31.4307 27.6585 37.5155 21.2231 45.6737Z" fill="#00365D"/>
<path d="M46.0515 33.6719C40.9498 36.8853 36.4326 40.9442 32.6938 45.6744L33.893 46.6227C37.5246 42.0287 41.9119 38.0865 46.8667 34.965L46.0515 33.6719Z" fill="#00365D"/>
<path d="M6.69271 43.5376L5.7039 42.5488L4.62256 43.6302L6.15204 45.1596C6.29545 45.303 6.48992 45.3836 6.69271 45.3836C6.89549 45.3836 7.08997 45.303 7.23338 45.1596L8.76285 43.6302L7.68151 42.5488L6.69271 43.5376Z" fill="#00365D"/>
<path d="M17.3992 45.3837C17.6021 45.3837 17.7965 45.3031 17.9399 45.1596L19.4694 43.6302L18.3881 42.5488L17.3992 43.5376L16.4104 42.5488L15.3291 43.6302L16.8586 45.1596C17.002 45.3031 17.1964 45.3837 17.3992 45.3837Z" fill="#00365D"/>
<path d="M29.6351 43.5376L28.6463 42.5488L27.5649 43.6302L29.0944 45.1596C29.2378 45.303 29.4323 45.3836 29.6351 45.3836C29.8379 45.3836 30.0323 45.303 30.1758 45.1596L31.7052 43.6302L30.6239 42.5488L29.6351 43.5376Z" fill="#00365D"/>
<path d="M42.6356 43.5376L41.6468 42.5488L40.5654 43.6302L42.0949 45.1596C42.2383 45.303 42.4328 45.3836 42.6356 45.3836C42.8384 45.3836 43.0328 45.303 43.1762 45.1596L44.7057 43.6302L43.6244 42.5488L42.6356 43.5376Z" fill="#00365D"/>
<path d="M10.5164 40.7953C10.7192 40.7953 10.9137 40.7147 11.0571 40.5713L12.5866 39.0418L11.5052 37.9604L10.5164 38.9493L9.52763 37.9604L8.44629 39.0418L9.97577 40.5713C10.1191 40.7147 10.3136 40.7953 10.5164 40.7953Z" fill="#00365D"/>
<path d="M21.9876 40.7953C22.1904 40.7953 22.3849 40.7147 22.5283 40.5713L24.0578 39.0418L22.9764 37.9604L21.9876 38.9493L20.9988 37.9604L19.9175 39.0418L21.447 40.5713C21.5903 40.7147 21.7848 40.7953 21.9876 40.7953Z" fill="#00365D"/>
<path d="M27.8509 36.7765L29.3804 35.4061L28.3602 34.2666L27.3408 35.1797L26.3214 34.2666L25.3013 35.4061L26.8307 36.7765C26.971 36.902 27.1526 36.9714 27.3408 36.9714C27.5291 36.9714 27.7107 36.902 27.8509 36.7765Z" fill="#00365D"/>
<path d="M38.812 36.9715C39.0003 36.9715 39.1819 36.902 39.3221 36.7765L40.8516 35.4061L39.8314 34.2666L38.812 35.1797L37.7926 34.2666L36.7725 35.4061L38.3019 36.7765C38.4422 36.902 38.6238 36.9715 38.812 36.9715Z" fill="#00365D"/>
<path d="M33.4588 40.7953C33.6616 40.7953 33.8561 40.7147 33.9995 40.5713L35.529 39.0418L34.4476 37.9604L33.4588 38.9493L32.47 37.9604L31.3887 39.0418L32.9181 40.5713C33.0615 40.7147 33.256 40.7953 33.4588 40.7953Z" fill="#00365D"/>
<path d="M44.93 38.9493L43.9412 37.9604L42.8599 39.0418L44.3893 40.5713C44.5327 40.7146 44.7272 40.7952 44.93 40.7952C45.1328 40.7952 45.3273 40.7146 45.4707 40.5713L47.0002 39.0418L45.9188 37.9604L44.93 38.9493Z" fill="#00365D"/>
<path d="M2.10433 39.2655C2.30713 39.2655 2.50161 39.1849 2.645 39.0415L4.17447 37.512L3.09313 36.4307L2.10433 37.4195L1.11552 36.4307L0.0341797 37.512L1.56366 39.0415C1.70704 39.1849 1.90152 39.2655 2.10433 39.2655Z" fill="#00365D"/>
<path d="M5.92806 36.207C6.13086 36.2069 6.32534 36.1263 6.46873 35.9829L7.9982 34.4534L6.91686 33.3721L5.92806 34.3609L4.93925 33.3721L3.85791 34.4534L5.38739 35.9829C5.53077 36.1263 5.72525 36.2069 5.92806 36.207Z" fill="#00365D"/>
<path d="M21.7637 33.6885L23.2931 32.159L22.2118 31.0776L21.223 32.0664L20.2342 31.0776L19.1528 32.159L20.6823 33.6885C20.8257 33.8318 21.0202 33.9124 21.223 33.9124C21.4258 33.9124 21.6202 33.8318 21.7637 33.6885Z" fill="#00365D"/>
<path d="M33.2348 33.6885L34.7643 32.159L33.683 31.0776L32.6942 32.0664L31.7054 31.0776L30.624 32.159L32.1535 33.6885C32.2969 33.8318 32.4914 33.9124 32.6942 33.9124C32.897 33.9124 33.0914 33.8318 33.2348 33.6885Z" fill="#00365D"/>
<path d="M44.7055 33.6885L46.235 32.159L45.1537 31.0776L44.1649 32.0664L43.1761 31.0776L42.0947 32.159L43.6242 33.6885C43.7676 33.8318 43.9621 33.9124 44.1649 33.9124C44.3677 33.9124 44.5621 33.8318 44.7055 33.6885Z" fill="#00365D"/>
<path d="M16.4106 36.7475L17.9401 35.2181L16.8588 34.1367L15.87 35.1255L14.8811 34.1367L13.7998 35.2181L15.3293 36.7475C15.4727 36.8909 15.6672 36.9714 15.87 36.9714C16.0727 36.9714 16.2672 36.8909 16.4106 36.7475Z" fill="#00365D"/>
<path d="M42.6357 14.7939H34.9883V16.3234H42.6357V14.7939Z" fill="#00365D"/>
<path d="M42.6357 17.853H34.9883V19.3825H42.6357V17.853Z" fill="#00365D"/>
</svg>
