<svg width="45" height="79" viewBox="0 0 45 79" fill="none" xmlns="http://www.w3.org/2000/svg">
<path d="M40.925 0.123357H34.725C33.925 0.123357 33.225 0.423357 32.625 0.923357C32.025 0.423357 31.325 0.123357 30.525 0.123357H24.325C23.125 0.123357 22.125 0.823357 21.625 1.82336C21.125 1.32336 20.525 1.02336 19.825 0.923357L13.625 0.0233576C11.925 -0.176642 10.325 0.923357 10.125 2.72336L0.025 74.2234C-0.075 75.0234 0.124999 75.8234 0.624999 76.5234C1.125 77.2234 1.825 77.6234 2.725 77.7234L8.925 78.6234C9.025 78.6234 9.225 78.6234 9.325 78.6234C10.025 78.6234 10.625 78.4234 11.225 78.0234C11.925 77.5234 12.325 76.8234 12.425 75.9234L21.325 13.1234V75.4234C21.325 77.1234 22.725 78.5234 24.425 78.5234H30.625C31.425 78.5234 32.125 78.2234 32.725 77.7234C33.325 78.2234 34.025 78.5234 34.825 78.5234H41.025C42.725 78.5234 44.125 77.1234 44.125 75.4234V3.22336C44.125 1.52336 42.725 0.123357 40.925 0.123357ZM23.325 17.7234H31.625V61.1234H23.325V17.7234ZM33.725 17.7234H42.025V61.1234H33.725V17.7234ZM42.125 15.7234H33.825V11.3234H42.125V15.7234ZM31.625 15.7234H23.325V11.3234H31.625V15.7234ZM23.325 63.1234H31.625V67.5234H23.325V63.1234ZM33.725 63.1234H42.025V67.5234H33.725V63.1234ZM34.725 2.12336H40.925C41.525 2.12336 42.025 2.62336 42.025 3.22336V9.32336H33.725V3.22336C33.725 3.12336 33.725 3.02336 33.725 2.82336C33.825 2.42336 34.225 2.12336 34.725 2.12336ZM24.425 2.12336H30.625C31.125 2.12336 31.525 2.42336 31.625 2.92336C31.625 3.02336 31.625 3.12336 31.625 3.32336V9.42336H23.325V3.32336C23.325 2.62336 23.825 2.12336 24.425 2.12336ZM3.725 62.2234L12.125 63.4234L11.525 67.7234L3.125 66.5234L3.725 62.2234ZM12.425 61.4234L4.025 60.2234L10.125 17.3234L18.525 18.5234L12.425 61.4234ZM10.425 15.3234L11.025 11.0234L19.425 12.2234L18.825 16.5234L10.425 15.3234ZM13.325 1.92336C13.425 1.92336 13.425 1.92336 13.525 1.92336L19.725 2.82336C20.325 2.92336 20.725 3.52336 20.725 4.12336L19.825 10.2234L11.425 9.02336L12.225 2.92336C12.225 2.32336 12.725 1.92336 13.325 1.92336ZM10.325 75.6234C10.325 75.9234 10.125 76.2234 9.925 76.3234C9.725 76.5234 9.425 76.6234 9.125 76.5234L2.925 75.6234C2.625 75.6234 2.325 75.4234 2.225 75.2234C2.025 75.0234 1.925 74.7234 2.025 74.4234L2.925 68.4234L11.325 69.6234L10.325 75.6234ZM30.625 76.6234H24.425C23.825 76.6234 23.325 76.1234 23.325 75.5234V69.5234H31.625V75.5234C31.625 75.6234 31.625 75.7234 31.625 75.9234C31.525 76.3234 31.125 76.6234 30.625 76.6234ZM40.925 76.6234H34.725C34.225 76.6234 33.825 76.3234 33.725 75.8234C33.725 75.7234 33.725 75.6234 33.725 75.4234V69.4234H42.025V75.4234C42.125 76.1234 41.625 76.6234 40.925 76.6234Z" fill="white"/>
<path d="M27.5251 26.9233C26.9251 26.9233 26.5251 27.3233 26.5251 27.9233V50.8233C26.5251 51.4233 26.9251 51.8233 27.5251 51.8233C28.1251 51.8233 28.5251 51.4233 28.5251 50.8233V27.9233C28.5251 27.3233 28.0251 26.9233 27.5251 26.9233Z" fill="white"/>
<path d="M13.0251 26.9233C12.5251 26.8233 11.9251 27.2233 11.9251 27.7233L8.72514 50.4233C8.62514 50.9233 9.02514 51.5233 9.52514 51.5233H9.62514C10.1251 51.5233 10.5251 51.1233 10.6251 50.6233L13.8251 27.9233C13.9251 27.5233 13.5251 27.0233 13.0251 26.9233Z" fill="white"/>
<path d="M37.8252 26.9233C37.2252 26.9233 36.8252 27.3233 36.8252 27.9233V50.8233C36.8252 51.4233 37.2252 51.8233 37.8252 51.8233C38.4252 51.8233 38.8252 51.4233 38.8252 50.8233V27.9233C38.8252 27.3233 38.4252 26.9233 37.8252 26.9233Z" fill="white"/>
</svg>
