<svg width="160" height="160" viewBox="0 0 160 160" fill="none" xmlns="http://www.w3.org/2000/svg">
<rect width="160" height="160" rx="3" fill="#D29970"/>
<path d="M67.8889 55.9141H63.8389V59.9641H67.8889V55.9141Z" fill="white"/>
<path d="M75.9885 55.9141H71.9385V59.9641H75.9885V55.9141Z" fill="white"/>
<path d="M84.0865 55.9141H80.0371V59.9641H84.0865V55.9141Z" fill="white"/>
<path d="M92.1877 55.9141H88.1377V59.9641H92.1877V55.9141Z" fill="white"/>
<path d="M67.8889 64.0132H63.8389V68.0632H67.8889V64.0132Z" fill="white"/>
<path d="M75.9885 64.0132H71.9385V68.0632H75.9885V64.0132Z" fill="white"/>
<path d="M84.0865 64.0132H80.0371V68.0632H84.0865V64.0132Z" fill="white"/>
<path d="M92.1877 64.0132H88.1377V68.0632H92.1877V64.0132Z" fill="white"/>
<path d="M67.8889 72.1138H63.8389V76.1638H67.8889V72.1138Z" fill="white"/>
<path d="M75.9885 72.1133H71.9385V76.1633H75.9885V72.1133Z" fill="white"/>
<path d="M84.0865 72.1133H80.0371V76.1633H84.0865V72.1133Z" fill="white"/>
<path d="M92.1877 72.1133H88.1377V76.1633H92.1877V72.1133Z" fill="white"/>
<path d="M67.8889 80.2134H63.8389V84.2634H67.8889V80.2134Z" fill="white"/>
<path d="M75.9885 80.2129H71.9385V84.2629H75.9885V80.2129Z" fill="white"/>
<path d="M84.0865 80.2129H80.0371V84.2629H84.0865V80.2129Z" fill="white"/>
<path d="M92.1877 80.2129H88.1377V84.2629H92.1877V80.2129Z" fill="white"/>
<path d="M67.8889 88.312H63.8389V92.362H67.8889V88.312Z" fill="white"/>
<path d="M75.9885 88.312H71.9385V92.362H75.9885V88.312Z" fill="white"/>
<path d="M84.0865 88.312H80.0371V92.362H84.0865V88.312Z" fill="white"/>
<path d="M92.1877 88.312H88.1377V92.362H92.1877V88.312Z" fill="white"/>
<path d="M67.8889 96.4126H63.8389V100.462H67.8889V96.4126Z" fill="white"/>
<path d="M75.9885 96.4121H71.9385V100.462H75.9885V96.4121Z" fill="white"/>
<path d="M84.0865 96.4121H80.0371V100.462H84.0865V96.4121Z" fill="white"/>
<path d="M92.1877 96.4121H88.1377V100.462H92.1877V96.4121Z" fill="white"/>
<path d="M67.8889 104.512H63.8389V108.562H67.8889V104.512Z" fill="white"/>
<path d="M75.9885 104.512H71.9385V108.562H75.9885V104.512Z" fill="white"/>
<path d="M84.0865 104.512H80.0371V108.562H84.0865V104.512Z" fill="white"/>
<path d="M92.1877 104.512H88.1377V108.562H92.1877V104.512Z" fill="white"/>
<path d="M67.8889 112.611H63.8389V116.661H67.8889V112.611Z" fill="white"/>
<path d="M75.9885 112.611H71.9385V116.661H75.9885V112.611Z" fill="white"/>
<path d="M84.0865 112.611H80.0371V116.661H84.0865V112.611Z" fill="white"/>
<path d="M92.1877 112.611H88.1377V116.661H92.1877V112.611Z" fill="white"/>
<path d="M67.8889 120.711H63.8389V124.761H67.8889V120.711Z" fill="white"/>
<path d="M75.9885 120.711H71.9385V124.761H75.9885V120.711Z" fill="white"/>
<path d="M84.0865 120.711H80.0371V124.761H84.0865V120.711Z" fill="white"/>
<path d="M92.1877 120.711H88.1377V124.761H92.1877V120.711Z" fill="white"/>
<path d="M100.489 133.062H55.5371V47.6123H100.489V133.062ZM59.1821 129.418H96.8447V51.2567H59.1821V129.418Z" fill="white"/>
<path d="M94.4149 51.2565H61.6123V39.5127H94.4155V51.2565H94.4149ZM65.2567 47.6121H90.7705V43.1577H65.2567V47.6121Z" fill="white"/>
<path d="M88.3403 43.1575H67.6865V31.4131H88.3403V43.1575ZM71.3315 39.5131H84.6953V35.0581H71.3315V39.5131Z" fill="white"/>
<path d="M79.8348 25.1357H76.1904V33.2357H79.8348V25.1357Z" fill="white"/>
<path d="M108.994 66.0391H105.349V122.736H108.994V66.0391Z" fill="white"/>
<path d="M117.004 66.0386H113.359V122.736H117.004V66.0386Z" fill="white"/>
<path d="M125.015 66.0386H121.371V122.736H125.015V66.0386Z" fill="white"/>
<path d="M133.52 133.063H96.8447V55.7119H133.52V133.063ZM100.489 129.418H129.876V59.3569H100.489V129.418Z" fill="white"/>
<path d="M125.015 59.3567H105.349V47.6123H125.015V59.3567ZM108.994 55.7117H121.371V51.2567H108.994V55.7117Z" fill="white"/>
<path d="M42.7795 88.312H38.7295V92.362H42.7795V88.312Z" fill="white"/>
<path d="M50.8791 88.312H46.8291V92.362H50.8791V88.312Z" fill="white"/>
<path d="M42.7795 96.4121H38.7295V100.462H42.7795V96.4121Z" fill="white"/>
<path d="M50.8791 96.4121H46.8291V100.462H50.8791V96.4121Z" fill="white"/>
<path d="M42.7795 104.511H38.7295V108.561H42.7795V104.511Z" fill="white"/>
<path d="M50.8791 104.511H46.8291V108.561H50.8791V104.511Z" fill="white"/>
<path d="M42.7795 112.611H38.7295V116.661H42.7795V112.611Z" fill="white"/>
<path d="M50.8791 112.611H46.8291V116.661H50.8791V112.611Z" fill="white"/>
<path d="M42.7795 120.71H38.7295V124.76H42.7795V120.71Z" fill="white"/>
<path d="M50.8791 120.71H46.8291V124.76H50.8791V120.71Z" fill="white"/>
<path d="M59.1815 133.063H30.4277V80.0107H59.1809V133.063H59.1815ZM34.0727 129.418H55.5365V83.6551H34.0727V129.418Z" fill="white"/>
<path d="M140 139.34H136.355V133.063H27.5932V139.34H23.9482V129.418H140V139.34Z" fill="white"/>
<path d="M30.6308 56.1167H20V59.7617H30.6308V56.1167Z" fill="white"/>
<path d="M107.172 27.3628H96.541V31.0078H107.172V27.3628Z" fill="white"/>
<path d="M42.7124 39.5132H27.6602V43.1582H42.7124V39.5132Z" fill="white"/>
<path d="M52.9042 39.5127H46.9648V43.1577H52.9042V39.5127Z" fill="white"/>
</svg>
