<svg width="49" height="49" viewBox="0 0 49 49" fill="none" xmlns="http://www.w3.org/2000/svg">
<path d="M47.2794 11.147H46.3338V7.58289V7.51016C46.3338 7.21921 46.1884 7.00099 45.9702 6.85552L38.26 0.16366C37.969 -0.0545532 37.6053 -0.0545532 37.3144 0.16366L29.4587 6.92826C29.4587 6.92826 29.4587 7.00099 29.386 7.00099C29.3133 7.07373 29.3133 7.07373 29.3133 7.14647V7.21921C29.3133 7.29194 29.3133 7.36468 29.2405 7.43742C29.2405 7.43742 29.2405 7.43742 29.2405 7.51016V11.147H28.2949C27.8585 11.147 27.5676 11.438 27.5676 11.8744V26.0582H20.4393V11.8744C20.4393 11.438 20.1483 11.147 19.7119 11.147H18.7663V7.58289V7.51016C18.7663 7.21921 18.6208 7.00099 18.4026 6.85552L10.6924 0.16366C10.4015 -0.0545532 10.0378 -0.0545532 9.74684 0.16366L1.89118 7.00099C1.89118 7.00099 1.89118 7.07373 1.81844 7.07373C1.7457 7.14647 1.7457 7.14647 1.7457 7.21921V7.29194C1.7457 7.36468 1.7457 7.43742 1.67296 7.51016C1.67296 7.51016 1.67296 7.51016 1.67296 7.58289V11.2198H0.727376C0.29095 11.2198 0 11.5107 0 11.9472V47.2976C0 47.7341 0.29095 48.025 0.727376 48.025H47.2794C47.7159 48.025 48.0068 47.7341 48.0068 47.2976V11.8744C48.0068 11.5107 47.7159 11.147 47.2794 11.147ZM37.7508 1.69115L43.6426 6.78278H31.8591L37.7508 1.69115ZM30.6225 8.23753H44.8791V11.147H30.6225V8.23753ZM29.0223 12.6018H29.9679H45.6792H46.5521V46.5702H42.1151V38.1327C42.1151 37.6963 41.8241 37.4053 41.3877 37.4053H34.1867C33.7502 37.4053 33.4593 37.6963 33.4593 38.1327V46.5702H29.0223V32.3864V26.7129V12.6018ZM40.6603 46.5702H34.914V38.8601H40.6603V46.5702ZM20.4393 33.1138H27.5676V46.5702H20.4393V33.1138ZM27.5676 27.513V31.7318H20.4393V27.513H27.5676ZM10.256 1.69115L16.1477 6.78278H4.36426L10.256 1.69115ZM3.12772 8.23753H17.3843V11.147H3.12772V8.23753ZM2.40034 12.6018H18.1117H19.0573V26.7856V32.4592V46.5702H14.5475V38.1327C14.5475 37.6963 14.2566 37.4053 13.8201 37.4053H6.61912C6.1827 37.4053 5.89175 37.6963 5.89175 38.1327V46.5702H1.45475V12.6018H2.40034ZM13.0928 46.5702H7.3465V38.8601H13.0928V46.5702Z" fill="#00365D"/>
<path d="M31.932 19.8031H43.6427C44.0791 19.8031 44.3701 19.5121 44.3701 19.0757V15.5116C44.3701 15.0751 44.0791 14.7842 43.6427 14.7842H31.932C31.4955 14.7842 31.2046 15.0751 31.2046 15.5116V19.0757C31.2046 19.4394 31.4955 19.8031 31.932 19.8031ZM32.6593 16.2389H42.9153V18.3483H32.6593V16.2389Z" fill="#00365D"/>
<path d="M31.932 27.2948H43.6427C44.0791 27.2948 44.3701 27.0038 44.3701 26.5674V23.0033C44.3701 22.5668 44.0791 22.2759 43.6427 22.2759H31.932C31.4955 22.2759 31.2046 22.5668 31.2046 23.0033V26.5674C31.2046 27.0038 31.4955 27.2948 31.932 27.2948ZM32.6593 23.8034H42.9153V25.9128H32.6593V23.8034Z" fill="#00365D"/>
<path d="M31.932 34.8592H43.6427C44.0791 34.8592 44.3701 34.5683 44.3701 34.1319V30.5677C44.3701 30.1313 44.0791 29.8403 43.6427 29.8403H31.932C31.4955 29.8403 31.2046 30.1313 31.2046 30.5677V34.1319C31.2046 34.4955 31.4955 34.8592 31.932 34.8592ZM32.6593 31.2951H42.9153V33.4045H32.6593V31.2951Z" fill="#00365D"/>
<path d="M4.36409 19.8031H16.0748C16.5113 19.8031 16.8022 19.5121 16.8022 19.0757V15.5116C16.8022 15.0751 16.5113 14.7842 16.0748 14.7842H4.36409C3.92767 14.7842 3.63672 15.0751 3.63672 15.5116V19.0757C3.63672 19.4394 3.92767 19.8031 4.36409 19.8031ZM5.09147 16.2389H15.3475V18.3483H5.09147V16.2389Z" fill="#00365D"/>
<path d="M4.36409 27.2948H16.0748C16.5113 27.2948 16.8022 27.0038 16.8022 26.5674V23.0033C16.8022 22.5668 16.5113 22.2759 16.0748 22.2759H4.36409C3.92767 22.2759 3.63672 22.5668 3.63672 23.0033V26.5674C3.63672 27.0038 3.92767 27.2948 4.36409 27.2948ZM5.09147 23.8034H15.3475V25.9128H5.09147V23.8034Z" fill="#00365D"/>
<path d="M4.36409 34.8592H16.0748C16.5113 34.8592 16.8022 34.5683 16.8022 34.1319V30.5677C16.8022 30.1313 16.5113 29.8403 16.0748 29.8403H4.36409C3.92767 29.8403 3.63672 30.1313 3.63672 30.5677V34.1319C3.63672 34.4955 3.92767 34.8592 4.36409 34.8592ZM5.09147 31.2951H15.3475V33.4045H5.09147V31.2951Z" fill="#00365D"/>
<path d="M22.4764 30.3498C22.6946 30.3498 22.8401 30.277 22.9856 30.1316C23.131 29.9861 23.2038 29.8406 23.2038 29.6224C23.2038 29.4042 23.131 29.2587 22.9856 29.1132C22.6946 28.8223 22.2582 28.8223 21.9672 29.1132C21.8218 29.2587 21.749 29.4769 21.749 29.6224C21.749 29.8406 21.8218 29.9861 21.9672 30.1316C22.04 30.2043 22.2582 30.3498 22.4764 30.3498Z" fill="#00365D"/>
<path d="M25.6038 30.3498C25.8221 30.3498 25.9675 30.277 26.113 30.1316C26.2585 29.9861 26.3312 29.8406 26.3312 29.6224C26.3312 29.4042 26.2585 29.2587 26.113 29.1132C25.8221 28.8223 25.3856 28.8223 25.0947 29.1132C24.9492 29.2587 24.8765 29.4769 24.8765 29.6224C24.8765 29.8406 24.9492 29.9861 25.0947 30.1316C25.1674 30.2043 25.3856 30.3498 25.6038 30.3498Z" fill="#00365D"/>
</svg>
