<svg width="46" height="46" viewBox="0 0 46 46" fill="none" xmlns="http://www.w3.org/2000/svg">
<path d="M40.0645 44.5162V34.0823C42.737 32.3655 44.5161 29.3733 44.5161 25.9678C44.5161 23.2412 43.3736 20.7802 41.5484 19.024V11.1291C41.5484 9.90192 40.5497 8.90327 39.3226 8.90327V6.67747C39.3226 5.45031 38.3239 4.45166 37.0968 4.45166H32.6452C31.418 4.45166 30.4194 5.45031 30.4194 6.67747V8.90327C29.1922 8.90327 28.1935 9.90192 28.1935 11.1291V19.024C27.6267 19.5693 27.1304 20.1829 26.7097 20.8514V20.0323C26.7097 18.8051 25.711 17.8065 24.4839 17.8065H23.7419V7.4194H17.8065V17.8065H13.3548V7.4194H7.41935V17.8065H6.67742C5.45026 17.8065 4.45161 18.8051 4.45161 20.0323V36.0477L1.48387 39.0155V44.5162H0V46H46V44.5162H40.0645ZM38.5806 44.5162H31.1613V34.8688C32.3039 35.3466 33.557 35.6129 34.871 35.6129C36.1849 35.6129 37.4381 35.3466 38.5806 34.8688V44.5162ZM26.7097 35.6129V31.0842C27.4672 32.2883 28.4807 33.3137 29.6774 34.0823V44.5162H28.1935V35.6129H26.7097ZM34.871 17.8065C36.038 17.8065 37.3171 20.2326 37.7126 23.742H32.0294C32.4248 20.2326 33.7039 17.8065 34.871 17.8065ZM37.8231 25.2259C37.832 25.4699 37.8387 25.7163 37.8387 25.9678C37.8387 26.2193 37.832 26.4656 37.8231 26.7097H31.9188C31.9099 26.4656 31.9032 26.2193 31.9032 25.9678C31.9032 25.7163 31.9099 25.4699 31.9188 25.2259H37.8231ZM43.0323 25.9678C43.0323 26.2186 43.0167 26.4649 42.9944 26.7097H39.3063C39.3144 26.4641 39.3226 26.2193 39.3226 25.9678C39.3226 25.7163 39.3144 25.4714 39.3063 25.2259H42.9944C43.0167 25.4707 43.0323 25.717 43.0323 25.9678ZM34.871 34.1291C33.7039 34.1291 32.4248 31.7029 32.0294 28.1936H37.7126C37.3171 31.7029 36.038 34.1291 34.871 34.1291ZM27.0257 28.1936H30.5329C30.7592 30.4313 31.323 32.3247 32.1154 33.6401C29.6574 32.7543 27.7454 30.7258 27.0257 28.1936ZM30.4357 26.7097H26.7475C26.7253 26.4649 26.7097 26.2186 26.7097 25.9678C26.7097 25.717 26.7253 25.4707 26.7475 25.2259H30.4357C30.4275 25.4714 30.4194 25.7163 30.4194 25.9678C30.4194 26.2193 30.4275 26.4641 30.4357 26.7097ZM37.6265 33.6401C38.4182 32.3247 38.982 30.432 39.2091 28.1936H42.7162C41.9965 30.7258 40.0845 32.7543 37.6265 33.6401ZM42.7162 23.742H39.2091C38.9828 21.5043 38.4189 19.6109 37.6265 18.2954C40.0845 19.1813 41.9965 21.2098 42.7162 23.742ZM37.0968 16.592V13.3549H40.0645V17.8532C39.1653 17.276 38.1659 16.8464 37.0968 16.592ZM40.0645 11.1291V11.871H37.0968V11.1291C37.0968 10.7195 37.4292 10.3871 37.8387 10.3871H39.3226C39.7321 10.3871 40.0645 10.7195 40.0645 11.1291ZM31.9032 6.67747C31.9032 6.26792 32.2356 5.93553 32.6452 5.93553H37.0968C37.5063 5.93553 37.8387 6.26792 37.8387 6.67747V8.90327C36.6115 8.90327 35.6129 9.90192 35.6129 11.1291V16.3605C35.3673 16.3412 35.1217 16.3226 34.871 16.3226C34.6202 16.3226 34.3746 16.3412 34.129 16.3605V11.1291C34.129 9.90192 33.1304 8.90327 31.9032 8.90327V6.67747ZM30.4194 10.3871H31.9032C32.3128 10.3871 32.6452 10.7195 32.6452 11.1291V11.871H29.6774V11.1291C29.6774 10.7195 30.0098 10.3871 30.4194 10.3871ZM29.6774 13.3549H32.6452V16.592C31.576 16.8457 30.5766 17.2753 29.6774 17.8532V13.3549ZM32.1154 18.2954C31.3238 19.6109 30.7599 21.5036 30.5329 23.742H27.0257C27.7454 21.2098 29.6574 19.1813 32.1154 18.2954ZM25.2258 35.6129H5.93548V22.2581H25.2258V35.6129ZM22.2581 8.90327V10.3871H19.2903V8.90327H22.2581ZM19.2903 11.871H22.2581V17.8065H19.2903V11.871ZM11.871 8.90327V10.3871H8.90323V8.90327H11.871ZM8.90323 11.871H11.871V17.8065H8.90323V11.871ZM6.67742 19.2904H24.4839C24.8934 19.2904 25.2258 19.6228 25.2258 20.0323V20.7742H5.93548V20.0323C5.93548 19.6228 6.26787 19.2904 6.67742 19.2904ZM2.96774 39.6298L5.50071 37.0968H26.7097V44.5162H25.2258V41.5484C25.2258 39.9117 23.8948 38.5807 22.2581 38.5807C20.6214 38.5807 19.2903 39.9117 19.2903 41.5484V44.5162H17.8065V41.5484C17.8065 39.9117 16.4754 38.5807 14.8387 38.5807C13.202 38.5807 11.871 39.9117 11.871 41.5484V44.5162H10.3871V41.5484C10.3871 39.9117 9.05606 38.5807 7.41935 38.5807C5.78265 38.5807 4.45161 39.9117 4.45161 41.5484V44.5162H2.96774V39.6298ZM23.7419 44.5162H20.7742V41.5484C20.7742 40.7301 21.4397 40.0646 22.2581 40.0646C23.0764 40.0646 23.7419 40.7301 23.7419 41.5484V44.5162ZM16.3226 44.5162H13.3548V41.5484C13.3548 40.7301 14.0204 40.0646 14.8387 40.0646C15.6571 40.0646 16.3226 40.7301 16.3226 41.5484V44.5162ZM8.90323 44.5162H5.93548V41.5484C5.93548 40.7301 6.601 40.0646 7.41935 40.0646C8.23771 40.0646 8.90323 40.7301 8.90323 41.5484V44.5162Z" fill="white"/>
<path d="M7.41895 28.1933H11.8706V23.7417H7.41895V28.1933ZM8.90282 25.2256H10.3867V26.7094H8.90282V25.2256Z" fill="white"/>
<path d="M13.354 28.1933H17.8056V23.7417H13.354V28.1933ZM14.8379 25.2256H16.3217V26.7094H14.8379V25.2256Z" fill="white"/>
<path d="M19.2905 28.1933H23.7421V23.7417H19.2905V28.1933ZM20.7744 25.2256H22.2583V26.7094H20.7744V25.2256Z" fill="white"/>
<path d="M7.41895 34.1289H11.8706V29.6772H7.41895V34.1289ZM8.90282 31.1611H10.3867V32.645H8.90282V31.1611Z" fill="white"/>
<path d="M13.354 34.1289H17.8056V29.6772H13.354V34.1289ZM14.8379 31.1611H16.3217V32.645H14.8379V31.1611Z" fill="white"/>
<path d="M19.2905 34.1289H23.7421V29.6772H19.2905V34.1289ZM20.7744 31.1611H22.2583V32.645H20.7744V31.1611Z" fill="white"/>
<path d="M5.93528 4.45161H8.90302C9.31257 4.45161 9.64496 4.784 9.64496 5.19355V5.93548H11.1288V5.19355C11.1288 3.96639 10.1302 2.96774 8.90302 2.96774H5.93528C5.52573 2.96774 5.19334 2.63535 5.19334 2.22581C5.19334 1.81626 5.52573 1.48387 5.93528 1.48387H12.6127V0H5.93528C4.70812 0 3.70947 0.998645 3.70947 2.22581C3.70947 3.45297 4.70812 4.45161 5.93528 4.45161Z" fill="white"/>
<path d="M16.3225 4.45161H19.2902C19.6998 4.45161 20.0322 4.784 20.0322 5.19355V5.93548H21.516V5.19355C21.516 3.96639 20.5174 2.96774 19.2902 2.96774H16.3225C15.9129 2.96774 15.5806 2.63535 15.5806 2.22581C15.5806 1.81626 15.9129 1.48387 16.3225 1.48387H22.9999V0H16.3225C15.0953 0 14.0967 0.998645 14.0967 2.22581C14.0967 3.45297 15.0953 4.45161 16.3225 4.45161Z" fill="white"/>
<path d="M32.646 43.0322H37.0976V37.0967H32.646V43.0322ZM34.1299 38.5806H35.6137V41.5483H34.1299V38.5806Z" fill="white"/>
</svg>
