<svg width="160" height="160" viewBox="0 0 160 160" fill="none" xmlns="http://www.w3.org/2000/svg">
<rect width="160" height="160" rx="3" fill="#D29970"/>
<path d="M96.8182 47.4881L90.6879 44.5216L84.5576 47.4881V25H96.8176V47.4881H96.8182ZM90.6879 40.7192L93.3961 42.0298V28.4221H87.9792V42.0304L90.6879 40.7192Z" fill="white"/>
<path d="M98.8041 116.348H62.2012V101.358H98.8041V116.348ZM65.6233 112.926H95.382V104.78H65.6233V112.926Z" fill="white"/>
<path d="M101.324 62.9816L99.8164 59.909C108.176 55.8086 113.578 47.1505 113.578 37.8516C113.578 37.2327 113.335 36.6455 112.893 36.2016C112.455 35.7651 111.871 35.5227 111.251 35.5227H105.861V32.1006H111.251C112.783 32.1006 114.226 32.6973 115.313 33.7825C116.403 34.8761 117.001 36.3199 117.001 37.8511C117.001 48.4457 110.847 58.3099 101.324 62.9816Z" fill="white"/>
<path d="M59.6768 62.981C50.1536 58.3088 44 48.4446 44 37.8516C44 36.3203 44.5978 34.8766 45.6845 33.7867C46.7745 32.6978 48.2171 32.1011 49.7495 32.1011H55.1398V35.5232H49.7489C49.1294 35.5232 48.5449 35.7656 48.1047 36.2058C47.665 36.646 47.4216 37.2332 47.4216 37.8521C47.4216 47.1494 52.8241 55.808 61.1842 59.9101L59.6768 62.981Z" fill="white"/>
<path d="M111.671 131.079H49.3281V120.292H111.672V131.079H111.671ZM52.7497 127.657H108.25V123.714H52.7497V127.657Z" fill="white"/>
<path d="M106.17 123.714H54.834V93.9946H106.17V123.714ZM58.2561 120.291H102.748V97.4167H58.2561V120.291Z" fill="white"/>
<path d="M95.5807 97.4166H65.4215V94.1817C65.4215 92.7746 65.9694 91.4518 66.9639 90.4578C67.9599 89.4623 69.2817 88.9154 70.6867 88.9154C73.4766 88.9154 75.7466 86.647 75.7466 83.8582C75.7466 82.0697 74.7983 80.4058 73.2681 79.501C73.0342 79.3907 72.8035 79.2703 72.5728 79.1467C61.128 73.1405 53.4277 54.9184 53.4277 33.8114V25H107.573V33.8114C107.573 54.9184 99.8731 73.14 88.4129 79.1541C88.196 79.2708 87.9674 79.3901 87.7335 79.5004C86.2023 80.4064 85.2544 82.0691 85.2544 83.8576C85.2544 86.6464 87.5245 88.9149 90.3149 88.9149C91.7194 88.9149 93.0417 89.4617 94.0367 90.4562C95.0328 91.4523 95.5807 92.7746 95.5807 94.1812V97.4166ZM68.8531 93.9945H92.149C92.1076 93.5728 91.9215 93.1814 91.6181 92.8775C91.2696 92.5301 90.8066 92.337 90.3149 92.337C85.6379 92.337 81.8329 88.5336 81.8329 83.8582C81.8329 80.8232 83.4649 78.0021 86.0914 76.4968L86.2351 76.4242C86.4287 76.3356 86.6176 76.2359 86.8069 76.133C97.026 70.7707 104.152 53.3707 104.152 33.8119V28.4221H56.8498V33.8119C56.8498 53.3712 63.9756 70.7713 74.1788 76.125C74.3846 76.2354 74.5745 76.3367 74.7686 76.4247L74.9097 76.4968C77.5362 78.0021 79.1687 80.8232 79.1687 83.8582C79.1687 88.5336 75.3637 92.337 70.6867 92.337C70.195 92.337 69.7315 92.5295 69.383 92.878C69.0796 93.1809 68.8945 93.5723 68.8531 93.9945Z" fill="white"/>
<path d="M66.4932 61.4386C62.8537 54.0068 60.8307 44.2905 60.7979 34.0799L64.2199 34.0693C64.2512 43.7713 66.15 52.9571 69.5668 59.9339L66.4932 61.4386Z" fill="white"/>
</svg>
