<svg width="60" height="44" viewBox="0 0 60 44" fill="none" xmlns="http://www.w3.org/2000/svg">
<path d="M4 36H10V30H4V36ZM6 32H8V34H6V32Z" fill="#00365D"/>
<path d="M12 36H18V30H12V36ZM14 32H16V34H14V32Z" fill="#00365D"/>
<path d="M59 0H51C50.7348 0 50.4804 0.105356 50.2929 0.292892C50.1054 0.480429 50 0.734784 50 1V5C50 5.26522 50.1054 5.51957 50.2929 5.70711C50.4804 5.89464 50.7348 6 51 6H52V18H43V6H44C44.2652 6 44.5196 5.89464 44.7071 5.70711C44.8946 5.51957 45 5.26522 45 5V1C45 0.734784 44.8946 0.480429 44.7071 0.292892C44.5196 0.105356 44.2652 0 44 0H36C35.7348 0 35.4804 0.105356 35.2929 0.292892C35.1054 0.480429 35 0.734784 35 1V5C35 5.26522 35.1054 5.51957 35.2929 5.70711C35.4804 5.89464 35.7348 6 36 6H37V18H28V6H29C29.2652 6 29.5196 5.89464 29.7071 5.70711C29.8946 5.51957 30 5.26522 30 5V1C30 0.734784 29.8946 0.480429 29.7071 0.292892C29.5196 0.105356 29.2652 0 29 0H21C20.7348 0 20.4804 0.105356 20.2929 0.292892C20.1054 0.480429 20 0.734784 20 1V5C20 5.26522 20.1054 5.51957 20.2929 5.70711C20.4804 5.89464 20.7348 6 21 6H22V18H21C20.7348 18 20.4804 18.1054 20.2929 18.2929C20.1054 18.4804 20 18.7348 20 19V24.919L11.625 18.219C11.4476 18.077 11.2272 17.9996 11 17.9996C10.7728 17.9996 10.5524 18.077 10.375 18.219L0.375 26.219C0.358 26.233 0.348 26.252 0.332 26.266C0.302933 26.2941 0.275867 26.3241 0.251 26.356C0.198418 26.4168 0.153731 26.484 0.118 26.556C0.0996486 26.5907 0.0832887 26.6264 0.069 26.663C0.0367213 26.7732 0.0136421 26.886 0 27V43C0 43.2652 0.105357 43.5196 0.292893 43.7071C0.48043 43.8946 0.734784 44 1 44H59C59.2652 44 59.5196 43.8946 59.7071 43.7071C59.8946 43.5196 60 43.2652 60 43V19C60 18.7348 59.8946 18.4804 59.7071 18.2929C59.5196 18.1054 59.2652 18 59 18H58V6H59C59.2652 6 59.5196 5.89464 59.7071 5.70711C59.8946 5.51957 60 5.26522 60 5V1C60 0.734784 59.8946 0.480429 59.7071 0.292892C59.5196 0.105356 59.2652 0 59 0ZM37 2H43V4H37V2ZM39 6H41V18H39V6ZM22 2H28V4H22V2ZM24 6H26V18H24V6ZM22 24H58V26H22V24ZM11 20.28L18.149 26H3.851L11 20.28ZM2 28H20V42H2V28ZM58 42H22V28H58V42ZM22 22V20H58V22H22ZM56 18H54V6H56V18ZM58 4H52V2H58V4Z" fill="#00365D"/>
<path d="M31 36V30H25V36H31ZM27 32H29V34H27V32Z" fill="#00365D"/>
<path d="M39 30H33V36H39V30ZM37 34H35V32H37V34Z" fill="#00365D"/>
<path d="M47 30H41V36H47V30ZM45 34H43V32H45V34Z" fill="#00365D"/>
<path d="M55 30H49V36H55V30ZM53 34H51V32H53V34Z" fill="#00365D"/>
</svg>
