<svg width="172" height="172" viewBox="0 0 172 172" fill="none" xmlns="http://www.w3.org/2000/svg">
<path fill-rule="evenodd" clip-rule="evenodd" d="M103.793 82.1321C117.537 83.5818 155.605 109.818 133.189 127C106.8 147.227 43.3327 113.441 31.8496 99.1509C33.1392 98.1198 34.428 97.0878 35.7175 96.0566C50.0923 100.598 102.958 130.935 116.17 105.34C113.889 94.6448 99.0602 94.6974 103.793 82.1321ZM44.227 94.5094C63.9108 94.2016 71.6977 105.047 85.227 110.755C85.227 111.012 85.227 111.271 85.227 111.528C71.8331 109.929 51.2364 103.174 44.227 94.5094ZM66.6609 95.283C83.6581 96.4109 87.6096 109.147 103.019 111.528C102.762 112.044 102.503 112.559 102.246 113.075C90.0534 113.488 64.8252 98.6063 66.6609 95.283Z" fill="#D29970"/>
<path fill-rule="evenodd" clip-rule="evenodd" d="M86 4C131.287 4 168 40.7128 168 86C168 131.287 131.287 168 86 168C40.7128 168 4 131.287 4 86C4 40.7128 40.7128 4 86 4Z" stroke="#D29970" stroke-width="7.73585"/>
<path fill-rule="evenodd" clip-rule="evenodd" d="M89.8685 82.1321V72.0755H99.9251V82.1321H89.8685ZM89.8685 56.6038H99.9251V66.6604H89.8685V56.6038ZM72.8496 72.0755H82.9062V82.1321H72.8496V72.0755ZM72.8496 56.6038H82.9062V66.6604H72.8496V56.6038Z" fill="#D29970"/>
<path fill-rule="evenodd" clip-rule="evenodd" d="M29.5273 72.0755L85.999 21.7925L142.471 72.0755H130.867L85.999 31.8491L41.1311 72.0755" fill="#D29970"/>
</svg>
