<svg width="49" height="46" viewBox="0 0 49 46" fill="none" xmlns="http://www.w3.org/2000/svg">
<path d="M47.3175 43.3182C47.3125 43.3182 47.308 43.317 47.3047 43.317H47.2913H46.3873V35.808C46.3873 35.3045 45.9807 34.8973 45.4772 34.8973H42.823V17.7758C42.823 17.2729 42.4158 16.8656 41.9129 16.8656H37.0335C36.396 14.3456 36.0411 11.7187 36.0055 9.03447C35.9988 8.53657 35.5932 8.13658 35.0942 8.13658H32.4668V5.824C32.4668 5.82011 32.4668 5.81677 32.4668 5.81232L32.4651 5.65822C32.4612 5.38841 32.4573 5.09246 32.4673 4.90053C32.7255 4.87772 33.1783 4.88106 33.62 4.8844C33.8553 4.88551 34.1151 4.88829 34.4072 4.88718L35.7006 4.8844C36.7114 4.8844 37.4736 4.17177 37.4736 3.2266V0.922361V0.910123C37.4736 0.905672 37.4725 0.901778 37.4725 0.897327C37.4658 0.400543 37.0619 0 36.5646 0C36.0661 0 35.6617 0.400543 35.6544 0.897327C35.6544 0.901778 35.6533 0.905672 35.6533 0.910123V0.922361V3.06415L34.4039 3.06749C34.1196 3.06749 33.8631 3.06638 33.6334 3.06415C32.2982 3.0547 31.6273 3.05025 31.1138 3.56761C30.6226 4.06217 30.6315 4.70638 30.6443 5.6827L30.6454 8.13658H28.0152C27.514 8.13658 27.1067 8.54158 27.1045 9.04281C27.0934 11.7904 26.7785 14.355 26.1749 16.8656H22.1773C21.542 14.355 21.1882 11.7281 21.1492 9.03335C21.142 8.53601 20.7364 8.13658 20.2385 8.13658H17.6105V5.824C17.6105 5.82011 17.6105 5.81677 17.6105 5.81232L17.6089 5.66434C17.605 5.39231 17.6011 5.09413 17.6116 4.90053C17.8692 4.87772 18.3226 4.88106 18.7654 4.8844C19.0008 4.88551 19.2605 4.88885 19.5509 4.88718L20.8444 4.8844C21.8552 4.8844 22.6179 4.17177 22.6179 3.2266V0.922361V0.910123C22.6179 0.905672 22.6168 0.901778 22.6168 0.897327C22.6101 0.400543 22.2062 0 21.7083 0C21.2099 0 20.8054 0.400543 20.7987 0.897327C20.7987 0.901778 20.7976 0.905672 20.7976 0.910123V0.922361V3.06415L19.5482 3.06749C19.265 3.06805 19.008 3.06638 18.7771 3.06415C17.4431 3.0547 16.7722 3.05025 16.2576 3.56761C15.7664 4.06217 15.7758 4.70972 15.7881 5.68882L15.7892 8.13658H13.1589C12.6577 8.13658 12.2505 8.54158 12.2483 9.04281C12.2371 11.7904 11.9223 14.355 11.3187 16.8656H6.29909C5.79619 16.8656 5.38841 17.2729 5.38841 17.7758V34.8622H2.73426C2.23191 34.8622 1.82358 35.2689 1.82358 35.7724V43.317H0.910679C0.847816 43.317 0.786065 43.3237 0.727097 43.336C0.717083 43.3376 0.709851 43.3421 0.700394 43.3437C0.299295 43.4389 0 43.7977 0 44.2277C0 44.6583 0.299295 45.016 0.700394 45.1111C0.709851 45.1128 0.717083 45.1173 0.727097 45.1189C0.786065 45.1317 0.847816 45.1378 0.910679 45.1378H6.30132C6.21843 45.1378 6.13888 45.1234 6.0621 45.1022H14.2916C14.3678 45.1234 14.4468 45.1378 14.5297 45.1378H19.2149H24.1066H28.9987H33.6834H41.9129H45.4766H47.2908H47.3041C47.308 45.1378 47.3125 45.1367 47.3169 45.1367C47.8131 45.1295 48.2137 44.7256 48.2137 44.2277C48.2142 43.7293 47.8131 43.3259 47.3175 43.3182ZM35.1426 16.8656H28.0608C28.2483 16.039 28.3951 15.2023 28.5209 14.3589H34.6525C34.7894 15.2028 34.9457 16.0412 35.1426 16.8656ZM28.9125 9.95683H31.5578H34.208C34.2403 10.8247 34.3137 11.6836 34.4066 12.5381H28.7445C28.8257 11.6897 28.8892 10.833 28.9125 9.95683ZM20.2881 16.8656H13.2068C13.397 16.0267 13.5445 15.1789 13.6719 14.3233H19.7929C19.9309 15.18 20.0889 16.0301 20.2881 16.8656ZM14.0579 9.95683H16.7032H19.3546C19.3874 10.813 19.4592 11.6602 19.5504 12.5025H13.8938C13.9734 11.6653 14.0351 10.8208 14.0579 9.95683ZM13.6207 43.282H3.64828V36.6831H13.6207V43.282ZM7.21144 34.8622V18.6859H12.0452H21.4613H26.8998H36.3159H41.0028V34.8973H34.5936V32.7438C35.0264 32.9163 35.4547 33.0136 35.8725 33.0136C37.1637 33.0136 38.2335 32.1719 38.599 30.8685C38.9673 29.5562 38.4733 28.2255 37.3718 27.554L26.9565 21.226C25.7276 20.4299 24.9421 20.0249 24.0593 20.0249C23.2326 20.0249 22.5177 20.4221 21.9264 20.8138L10.7852 27.633C9.47061 28.4385 8.86702 29.8277 9.24698 31.1734C9.59356 32.4056 10.6789 33.2017 12.0129 33.2017C12.5325 33.2011 13.0705 33.0776 13.6212 32.8451V34.8622H7.21144ZM13.3792 30.9392C12.8819 31.2284 12.4113 31.3809 12.0129 31.3809C11.5023 31.3809 11.1234 31.1183 10.9999 30.6788C10.8781 30.2493 11.0077 29.6307 11.7353 29.1857L22.8905 22.3575C22.8999 22.352 22.9088 22.3458 22.9183 22.3403C23.4401 21.9931 23.7817 21.8457 24.0593 21.8457C24.4854 21.8457 25.0846 22.1806 25.9763 22.7603C25.9841 22.7659 25.9913 22.7703 25.9991 22.7748L36.4249 29.1095C36.9145 29.4071 36.9573 29.9779 36.8461 30.3767C36.7921 30.5681 36.5634 31.1928 35.872 31.1928C35.5582 31.1928 35.1838 31.0627 34.7877 30.8145L24.56 24.4181C24.2623 24.2317 23.8846 24.234 23.5881 24.4225L13.3792 30.9392ZM23.197 43.317H20.1262V33.4765H23.197V43.317ZM28.0875 43.317H25.0172V33.4765H28.0875V43.317ZM28.9987 31.6562H24.1066H19.2149C18.7131 31.6562 18.3059 32.0635 18.3059 32.5664V43.317H15.4415V35.7724V31.7825L24.0821 26.2667L32.7728 31.7013V35.8074V43.3165H29.9083V32.5664C29.9083 32.0635 29.5 31.6562 28.9987 31.6562ZM44.566 43.317H41.0028H34.5936V36.7181H44.5665V43.317H44.566Z" fill="#00365D"/>
<path d="M11.7795 20.5469H9.64551V22.5835H11.7795V20.5469Z" fill="#00365D"/>
<path d="M15.8673 20.5469H13.7344V22.5835H15.8673V20.5469Z" fill="#00365D"/>
<path d="M34.8853 20.5469H32.7524V22.5835H34.8853V20.5469Z" fill="#00365D"/>
<path d="M38.9742 20.5469H36.8413V22.5835H38.9742V20.5469Z" fill="#00365D"/>
</svg>
