<svg width="52" height="46" viewBox="0 0 52 46" fill="none" xmlns="http://www.w3.org/2000/svg">
<path d="M48.7533 13.1H46.4217V6.17372H48.1533V0.979004H32.5692V6.17372H34.3007V13.1H31.9692L28.7225 21.7579H30.8376V23.4895H28.2402V7.9053H17.8508V23.4895H16.1192V7.9053H5.72977V23.4895H4.32893L0 32.1473H1.40084V45.9999H49.8849V21.7579H52L48.7533 13.1ZM49.5013 20.0263H46.2313L44.9326 14.8316H47.5525L49.5013 20.0263ZM39.4954 14.8316V20.0263H36.2747L37.5734 14.8316H39.4954ZM41.227 14.8316H43.1491L44.4477 20.0263H41.227V14.8316ZM34.3007 2.71058H46.4217V4.44215H34.3007V2.71058ZM36.0323 6.17372H44.6902V13.1H36.0323V6.17372ZM33.1691 14.8316H35.789L34.4903 20.0263H31.2211L33.1691 14.8316ZM26.5086 9.63687V11.3684H19.5824V9.63687H26.5086ZM19.5824 13.1H26.5086V23.4895H19.5824V13.1ZM14.3876 9.63687V11.3684H7.46135V9.63687H14.3876ZM7.46135 13.1H14.3876V23.4895H7.46135V13.1ZM5.39904 25.221H30.8376V30.4157H2.80168L5.39904 25.221ZM3.13242 32.1473H30.8376V44.2683H27.3744V33.8789H18.7166V44.2683H15.2534V33.8789H6.59556V44.2683H3.13242V32.1473ZM25.6429 39.0736H20.4481V35.6105H25.6429V39.0736ZM20.4481 40.8052H25.6429V44.2683H20.4481V40.8052ZM13.5219 39.0736H8.32713V35.6105H13.5219V39.0736ZM8.32713 40.8052H13.5219V44.2683H8.32713V40.8052ZM44.6902 44.2683H36.0323V35.6105H44.6902V44.2683ZM48.1533 44.2683H46.4217V33.8789H34.3007V44.2683H32.5692V21.7579H48.1533V44.2683Z" fill="#00365D"/>
<path d="M46.4218 23.4897H34.3008V28.6845H46.4218V23.4897ZM44.6902 26.9529H36.0324V25.2213H44.6902V26.9529Z" fill="#00365D"/>
</svg>
