<svg width="160" height="160" viewBox="0 0 160 160" fill="none" xmlns="http://www.w3.org/2000/svg">
<rect width="160" height="160" rx="3" fill="#D29970"/>
<path d="M78.6316 72.4777C70.9964 72.4777 64.7852 66.2664 64.7852 58.6301C64.7852 50.9956 70.9959 44.7837 78.6316 44.7837C86.2673 44.7837 92.4792 50.995 92.4792 58.6301C92.4792 66.2664 86.2673 72.4777 78.6316 72.4777ZM78.6316 48.3901C72.9857 48.3901 68.3915 52.9831 68.3915 58.6301C68.3915 64.2777 72.9857 68.8713 78.6316 68.8713C84.278 68.8713 88.8734 64.2771 88.8734 58.6301C88.8734 52.9831 84.278 48.3901 78.6316 48.3901Z" fill="white"/>
<path d="M84.97 136H72.2932V80.3071C62.797 77.5255 56.0459 68.6335 56.0459 58.63C56.0459 46.1784 66.1776 36.0483 78.631 36.0483C91.0827 36.0483 101.213 46.1784 101.213 58.63C101.213 68.6341 94.4639 77.5255 84.97 80.3071V105.946H98.5394V117.109H91.7575V121.058H98.5394V132.22H84.97V136ZM75.8996 132.394H81.3642V128.613H94.933V124.665H88.1511V113.503H94.933V109.552H81.3642V77.4657L82.7755 77.151C91.3694 75.237 97.6069 67.4474 97.6069 58.6306C97.6069 48.1677 89.0939 39.6547 78.6316 39.6547C68.1664 39.6547 59.6529 48.1677 59.6529 58.6306C59.6529 67.4474 65.8926 75.2364 74.49 77.151L75.9001 77.4657V132.394H75.8996Z" fill="white"/>
<path d="M80.4345 22H76.8281V29.9247H80.4345V22Z" fill="white"/>
<path d="M69.3096 31.4198L66.2773 24.0977L62.9454 25.4775L65.9776 32.7996L69.3096 31.4198Z" fill="white"/>
<path d="M59.6065 37.0598L54.0029 31.4546L51.4521 34.0047L57.0557 39.6099L59.6065 37.0598Z" fill="white"/>
<path d="M52.8026 45.9812L45.4805 42.9482L44.1001 46.2807L51.4223 49.3137L52.8026 45.9812Z" fill="white"/>
<path d="M49.9247 56.8301H42V60.4365H49.9247V56.8301Z" fill="white"/>
<path d="M52.8019 71.2856L51.4219 67.9531L44.1002 70.9851L45.4803 74.3176L52.8019 71.2856Z" fill="white"/>
<path d="M59.6053 80.2054L57.0557 77.6558L51.4529 83.2585L54.0026 85.8082L59.6053 80.2054Z" fill="white"/>
<path d="M94.3157 25.4758L90.9834 24.0967L87.9532 31.4186L91.2855 32.7977L94.3157 25.4758Z" fill="white"/>
<path d="M105.806 34.0052L103.256 31.4556L97.6507 37.0607L100.2 39.6104L105.806 34.0052Z" fill="white"/>
<path d="M113.163 46.2778L111.782 42.9473L104.461 45.9816L105.842 49.3122L113.163 46.2778Z" fill="white"/>
<path d="M115.262 56.8262H107.336V60.4326H115.262V56.8262Z" fill="white"/>
<path d="M113.159 70.9839L105.837 67.9517L104.457 71.2836L111.779 74.3158L113.159 70.9839Z" fill="white"/>
<path d="M105.809 83.2575L100.204 77.6523L97.6544 80.202L103.26 85.8072L105.809 83.2575Z" fill="white"/>
</svg>
