<svg width="44" height="60" viewBox="0 0 44 60" fill="none" xmlns="http://www.w3.org/2000/svg">
<path d="M41 0H3C2.20435 0 1.44129 0.316071 0.878679 0.87868C0.31607 1.44129 0 2.20435 0 3V57C0 57.7957 0.31607 58.5587 0.878679 59.1213C1.44129 59.6839 2.20435 60 3 60H41C41.7957 60 42.5587 59.6839 43.1213 59.1213C43.6839 58.5587 44 57.7957 44 57V3C44 2.20435 43.6839 1.44129 43.1213 0.87868C42.5587 0.316071 41.7957 0 41 0ZM32 2H36V8L34.8 6.4C34.7028 6.28188 34.5807 6.18675 34.4423 6.12144C34.304 6.05612 34.153 6.02225 34 6.02225C33.847 6.02225 33.696 6.05612 33.5577 6.12144C33.4193 6.18675 33.2972 6.28188 33.2 6.4L32 8V2ZM42 57C42 57.2652 41.8946 57.5196 41.7071 57.7071C41.5196 57.8946 41.2652 58 41 58H3C2.73478 58 2.48043 57.8946 2.29289 57.7071C2.10536 57.5196 2 57.2652 2 57V3C2 2.73478 2.10536 2.48043 2.29289 2.29289C2.48043 2.10536 2.73478 2 3 2H30V11C30 11.2099 30.066 11.4144 30.1888 11.5847C30.3115 11.755 30.4847 11.8823 30.6838 11.9487C30.8829 12.0151 31.0978 12.0171 31.2982 11.9545C31.4985 11.8919 31.6741 11.7679 31.8 11.6L34 8.667L36.2 11.6C36.2931 11.7242 36.4139 11.825 36.5528 11.8944C36.6916 11.9639 36.8448 12 37 12C37.1074 11.9998 37.214 11.9825 37.316 11.949C37.5152 11.8827 37.6885 11.7553 37.8112 11.585C37.934 11.4146 38 11.21 38 11V2H41C41.2652 2 41.5196 2.10536 41.7071 2.29289C41.8946 2.48043 42 2.73478 42 3V57Z" fill="white"/>
<path d="M14 37C15.3256 36.9984 16.5964 36.4711 17.5338 35.5338C18.4711 34.5964 18.9984 33.3256 19 32C19.0001 31.8449 18.9642 31.6918 18.895 31.553L15.618 25H19.184C19.3334 25.4182 19.5738 25.7981 19.8878 26.1122C20.2019 26.4262 20.5818 26.6666 21 26.816V39H16V41H28V39H23V26.816C23.4182 26.6666 23.7981 26.4262 24.1122 26.1122C24.4262 25.7981 24.6666 25.4182 24.816 25H28.382L25.1 31.553C25.0325 31.6923 24.9983 31.8453 25 32C25 33.3261 25.5268 34.5979 26.4645 35.5355C27.4021 36.4732 28.6739 37 30 37C31.3261 37 32.5979 36.4732 33.5355 35.5355C34.4732 34.5979 35 33.3261 35 32C35.0017 31.8453 34.9675 31.6923 34.9 31.553L31.618 25H33V23H24.816C24.6666 22.5818 24.4262 22.2019 24.1122 21.8878C23.7981 21.5738 23.4182 21.3334 23 21.184V20H21V21.184C20.5818 21.3334 20.2019 21.5738 19.8878 21.8878C19.5738 22.2019 19.3334 22.5818 19.184 23H11V25H12.382L9.105 31.553C9.0358 31.6918 8.99986 31.8449 9 32C9.00159 33.3256 9.52888 34.5964 10.4662 35.5338C11.4036 36.4711 12.6744 36.9984 14 37ZM30 26.236L32.382 31H27.618L30 26.236ZM30 35C29.3819 34.9972 28.7798 34.8036 28.2759 34.4456C27.772 34.0876 27.391 33.5827 27.185 33H32.815C32.609 33.5827 32.228 34.0876 31.7241 34.4456C31.2202 34.8036 30.6181 34.9972 30 35ZM22 23C22.1978 23 22.3911 23.0586 22.5556 23.1685C22.72 23.2784 22.8482 23.4346 22.9239 23.6173C22.9996 23.8 23.0194 24.0011 22.9808 24.1951C22.9422 24.3891 22.847 24.5673 22.7071 24.7071C22.5673 24.847 22.3891 24.9422 22.1951 24.9808C22.0011 25.0194 21.8 24.9996 21.6173 24.9239C21.4346 24.8482 21.2784 24.72 21.1685 24.5556C21.0586 24.3911 21 24.1978 21 24C21 23.7348 21.1054 23.4804 21.2929 23.2929C21.4804 23.1054 21.7348 23 22 23ZM14 35C13.3819 34.9972 12.7798 34.8036 12.2759 34.4456C11.772 34.0876 11.391 33.5827 11.185 33H16.815C16.609 33.5827 16.228 34.0876 15.7241 34.4456C15.2202 34.8036 14.6181 34.9972 14 35ZM11.618 31L14 26.236L16.382 31H11.618Z" fill="white"/>
</svg>
