<svg width="49" height="46" viewBox="0 0 49 46" fill="none" xmlns="http://www.w3.org/2000/svg">
<path d="M24.4646 0.501132C24.3155 0.509417 24.1711 0.555779 24.0451 0.635779L0.43648 15.2863C0.273386 15.386 0.147479 15.5363 0.078075 15.7144C0.00867062 15.8924 -0.000398814 16.0884 0.0522579 16.2721C0.104915 16.4558 0.216389 16.6171 0.369582 16.7314C0.522774 16.8457 0.709224 16.9065 0.90033 16.9046H2.80178V43.6664H0.90033C0.870224 43.6648 0.840058 43.6648 0.809952 43.6664C0.582 43.6833 0.369715 43.7887 0.21855 43.9602C0.0673846 44.1316 -0.0106441 44.3555 0.00116993 44.5838C0.012984 44.812 0.113702 45.0266 0.281759 45.1816C0.449816 45.3365 0.671853 45.4194 0.90033 45.4127H11.7735H45.3344H48.1073C48.2236 45.4153 48.3392 45.3946 48.4474 45.3519C48.5556 45.3091 48.6542 45.2453 48.7373 45.1639C48.8205 45.0826 48.8865 44.9855 48.9317 44.8782C48.9768 44.771 49 44.6559 49 44.5396C49 44.4232 48.9768 44.3081 48.9317 44.2009C48.8865 44.0937 48.8205 43.9965 48.7373 43.9152C48.6542 43.8338 48.5556 43.77 48.4474 43.7272C48.3392 43.6845 48.2236 43.6638 48.1073 43.6664H46.2059V16.9046H48.1056C48.2968 16.9069 48.4836 16.8464 48.637 16.7322C48.7905 16.6181 48.9023 16.4567 48.9552 16.2729C49.008 16.0891 48.9991 15.893 48.9297 15.7148C48.8604 15.5365 48.7344 15.386 48.5711 15.2863L24.9677 0.63588C24.8176 0.540876 24.6421 0.4939 24.4646 0.501233V0.501132ZM24.5038 2.40261L45.0445 15.1584H3.96138L24.5038 2.40261ZM4.54802 16.9047H44.4579V43.6665H38.1038V28.4873C38.1042 28.3725 38.082 28.2588 38.0385 28.1526C37.9949 28.0464 37.9308 27.9498 37.8499 27.8684C37.7689 27.787 37.6727 27.7223 37.5668 27.6781C37.4608 27.6339 37.3472 27.6111 37.2324 27.6109H11.7735C11.5419 27.6118 11.3202 27.7046 11.1571 27.869C10.994 28.0333 10.9029 28.2558 10.9038 28.4873V43.6665H4.54802V16.9047ZM7.66878 18.9801C7.45319 19.0017 7.25333 19.1027 7.10804 19.2634C6.96275 19.4242 6.88241 19.6332 6.88262 19.8499V24.4901C6.88309 24.7208 6.97481 24.9419 7.13777 25.1051C7.30072 25.2684 7.52166 25.3606 7.75233 25.3615H12.3925C12.6232 25.3606 12.8442 25.2684 13.0071 25.1051C13.1701 24.9419 13.2618 24.7208 13.2623 24.4901V19.8499C13.2613 19.6195 13.1694 19.3988 13.0065 19.2359C12.8436 19.073 12.6229 18.9811 12.3925 18.9801H7.75233C7.7245 18.9788 7.69661 18.9788 7.66877 18.9801H7.66878ZM22.0993 18.9801C21.8837 19.0017 21.6838 19.1027 21.5385 19.2634C21.3933 19.4242 21.3129 19.6332 21.3131 19.8499V24.4901C21.3136 24.7208 21.4053 24.9419 21.5683 25.1051C21.7312 25.2684 21.9522 25.3606 22.1828 25.3615H26.823C27.054 25.3611 27.2754 25.2691 27.4387 25.1057C27.602 24.9424 27.694 24.7211 27.6945 24.4901V19.8499C27.6935 19.6192 27.6014 19.3983 27.4381 19.2353C27.2748 19.0724 27.0537 18.9806 26.823 18.9801H22.1828C22.155 18.9788 22.1271 18.9788 22.0993 18.9801ZM36.5298 18.9801C36.3142 19.0017 36.1143 19.1027 35.9691 19.2634C35.8238 19.4242 35.7434 19.6332 35.7436 19.8499V24.4901C35.7441 24.7211 35.8361 24.9424 35.9994 25.1057C36.1627 25.2691 36.3841 25.3611 36.6151 25.3615H41.2553C41.4859 25.3606 41.7069 25.2684 41.8698 25.1051C42.0328 24.9419 42.1245 24.7208 42.125 24.4901V19.8499C42.1241 19.6195 42.0321 19.3988 41.8692 19.2359C41.7063 19.073 41.4856 18.9811 41.2553 18.9801H36.6151C36.5867 18.9787 36.5582 18.9787 36.5298 18.9801H36.5298ZM8.62888 20.7264H11.516V23.6135H8.62888V20.7264ZM23.0594 20.7264H25.9465V23.6135H23.0594V20.7264ZM37.4916 20.7264H40.3855V23.6135H37.4916V20.7264ZM12.65 29.357H36.3558V31.3234H12.65V29.357ZM12.65 33.0696H36.3558V35.4162H12.65V33.0696ZM12.65 37.1623H36.3558V39.509H12.65V37.1623ZM12.65 41.2551H36.3558V43.6665H12.65V41.2551Z" fill="#00365D"/>
</svg>
