<svg width="20" height="26" viewBox="0 0 20 26" fill="none" xmlns="http://www.w3.org/2000/svg">
<path fill-rule="evenodd" clip-rule="evenodd" d="M10 0C15.5227 0 20 4.25879 20 9.51079C20 14.7628 10 26 10 26C10 26 0 14.7628 0 9.51079C0 4.25879 4.47733 0 10 0ZM10.0053 5.38719C10.8914 5.38719 11.7576 5.64337 12.4943 6.12333C13.231 6.60329 13.8052 7.2855 14.1443 8.08364C14.4834 8.88179 14.5721 9.76004 14.3993 10.6073C14.2264 11.4547 13.7997 12.233 13.1732 12.8438C12.5466 13.4547 11.7484 13.8707 10.8793 14.0393C10.0103 14.2078 9.10953 14.1213 8.29092 13.7907C7.47231 13.4601 6.77261 12.9003 6.28034 12.1819C5.78807 11.4636 5.52533 10.6191 5.52533 9.75521C5.52533 8.59674 5.99734 7.48572 6.8375 6.66656C7.67766 5.8474 8.81717 5.38719 10.0053 5.38719Z" fill="#D29970"/>
</svg>
