<svg width="254" height="167" viewBox="0 0 254 167" fill="none" xmlns="http://www.w3.org/2000/svg">
<path d="M58.9589 0C26.4408 0 0 27.0447 0 60.3056C0 89.8553 20.7263 114.766 48.8452 119.73C50.3872 140.976 33.2438 158.882 33.0623 159.068C31.611 160.598 31.2936 162.871 32.3367 164.681C33.1984 166.165 34.695 167 36.2824 167C36.6452 167 37.0534 166.954 37.4616 166.814C119.777 143.434 118.054 64.5269 117.918 60.2128C117.827 26.9983 91.4316 0 58.9589 0Z" fill="#F0F0F0"/>
<path d="M253.977 60.2128C253.886 26.9983 227.491 0 195.018 0C162.5 0 136.059 27.0447 136.059 60.3056C136.059 89.8553 156.785 114.766 184.904 119.73C186.446 140.976 169.303 158.882 169.121 159.068C167.67 160.598 167.353 162.871 168.396 164.681C169.257 166.165 170.754 167 172.341 167C172.704 167 173.112 166.954 173.521 166.814C255.836 143.434 254.113 64.5269 253.977 60.2128Z" fill="#F0F0F0"/>
</svg>
