<svg width="73" height="72" viewBox="0 0 73 72" fill="none" xmlns="http://www.w3.org/2000/svg">
<path d="M60.0171 63.6744C60.0171 64.2267 60.4648 64.6744 61.0171 64.6744C61.5694 64.6744 62.0171 64.2267 62.0171 63.6744V9C62.0171 4.02944 57.9877 0 53.0171 0H8.01709C7.46481 0 7.01709 0.447715 7.01709 1C7.01709 1.55228 7.46481 2 8.01709 2H53.0171C56.8831 2 60.0171 5.13401 60.0171 9V63.6744Z" fill="white"/>
<path d="M15.0171 48C15.0171 47.4477 14.5694 47 14.0171 47C13.4648 47 13.0171 47.4477 13.0171 48V50C13.0171 50.5523 13.4648 51 14.0171 51C14.5694 51 15.0171 50.5523 15.0171 50V48Z" fill="white"/>
<path d="M51.0171 18C51.5694 18 52.0171 17.5523 52.0171 17C52.0171 16.4477 51.5694 16 51.0171 16H24.0171C23.4648 16 23.0171 16.4477 23.0171 17C23.0171 17.5523 23.4648 18 24.0171 18H51.0171Z" fill="white"/>
<path d="M51.0171 30C51.5694 30 52.0171 29.5523 52.0171 29C52.0171 28.4477 51.5694 28 51.0171 28H24.0171C23.4648 28 23.0171 28.4477 23.0171 29C23.0171 29.5523 23.4648 30 24.0171 30H51.0171Z" fill="white"/>
<path d="M51.0171 42C51.5694 42 52.0171 41.5523 52.0171 41C52.0171 40.4477 51.5694 40 51.0171 40H24.0171C23.4648 40 23.0171 40.4477 23.0171 41C23.0171 41.5523 23.4648 42 24.0171 42H51.0171Z" fill="white"/>
<path d="M51.0171 36C51.5694 36 52.0171 35.5523 52.0171 35C52.0171 34.4477 51.5694 34 51.0171 34H24.0171C23.4648 34 23.0171 34.4477 23.0171 35C23.0171 35.5523 23.4648 36 24.0171 36H51.0171Z" fill="white"/>
<path d="M51.0171 48C51.5694 48 52.0171 47.5523 52.0171 47C52.0171 46.4477 51.5694 46 51.0171 46H24.0171C23.4648 46 23.0171 46.4477 23.0171 47C23.0171 47.5523 23.4648 48 24.0171 48H51.0171Z" fill="white"/>
<path d="M51.0171 54C51.5694 54 52.0171 53.5523 52.0171 53C52.0171 52.4477 51.5694 52 51.0171 52H24.0171C23.4648 52 23.0171 52.4477 23.0171 53C23.0171 53.5523 23.4648 54 24.0171 54H51.0171Z" fill="white"/>
<path d="M51.0171 24C51.5694 24 52.0171 23.5523 52.0171 23C52.0171 22.4477 51.5694 22 51.0171 22H24.0171C23.4648 22 23.0171 22.4477 23.0171 23C23.0171 23.5523 23.4648 24 24.0171 24H51.0171Z" fill="white"/>
<path d="M2.00394 16C2.00265 15.6384 2.00201 15.1765 2.00201 14.6131C2.00201 13.0478 2.007 10.6946 2.01709 7.5C2.01709 4.46243 4.47952 2 7.51709 2C10.5547 2 13.0171 4.46243 13.0171 7.5V16H2.00394ZM13.0171 44C13.0171 44.5523 13.4648 45 14.0171 45C14.5694 45 15.0171 44.5523 15.0171 44V7.5C15.0171 3.35786 11.6592 0 7.51709 0C3.37495 0 0.0170927 3.35786 0.0170975 7.49684C-0.0106096 16.2659 -0.0106153 17.064 0.0626068 17.2983C0.193068 17.7157 0.579705 18 1.01709 18H13.0171V44Z" fill="white"/>
<path d="M20.5171 70C19.9648 70 19.5171 70.4477 19.5171 71C19.5171 71.5523 19.9648 72 20.5171 72H64.502C68.6463 72 72.0171 68.64 72.0171 64.5C72.0171 63.9477 71.5694 63.5 71.0171 63.5C70.4648 63.5 70.0171 63.9477 70.0171 64.5C70.0171 67.534 67.5432 70 64.502 70H20.5171Z" fill="white"/>
<path d="M20.5171 72C16.4392 72 13.0322 68.2188 13.0322 64.0032C13.0188 59.7565 13.0188 56.4205 13.0322 53.9945C13.0352 53.4422 13.4854 52.997 14.0377 53C14.59 53.0031 15.0352 53.4533 15.0322 54.0055C15.0188 56.4248 15.0188 59.7554 15.0322 64C15.0322 67.158 17.5929 70 20.5171 70C23.4447 70 26.0171 67.1542 26.0171 64C26.0171 63.4477 26.4648 63 27.0171 63L71.0171 63C71.5694 63 72.0171 63.4477 72.0171 64C72.0171 64.5523 71.5694 65 71.0171 65H27.9531C27.4667 68.7964 24.271 72 20.5171 72Z" fill="white"/>
</svg>
