<svg width="62" height="44" viewBox="0 0 62 44" fill="none" xmlns="http://www.w3.org/2000/svg">
<path d="M59.414 16.0002H61C61.552 16.0002 62 15.5522 62 15.0002V11.0002C62 10.4482 61.552 10.0002 61 10.0002H60V5.00025C60 4.73525 59.895 4.48025 59.707 4.29325L55.707 0.29325C55.316 -0.09775 54.684 -0.09775 54.293 0.29325L52 2.58625L50.707 1.29325L49.293 2.70725L53.293 6.70725L54.707 5.29325L53.414 4.00025L55 2.41425L58 5.41425V10.0002H41V6.00025H44C44.552 6.00025 45 5.55225 45 5.00025V1.00025C45 0.44825 44.552 0.000249781 44 0.000249781H36C35.448 0.000249781 35 0.44825 35 1.00025V5.00025C35 5.55225 35.448 6.00025 36 6.00025H39V10.0002H23V6.00025H26C26.552 6.00025 27 5.55225 27 5.00025V1.00025C27 0.44825 26.552 0.000249781 26 0.000249781H18C17.448 0.000249781 17 0.44825 17 1.00025V5.00025C17 5.55225 17.448 6.00025 18 6.00025H21V10.0002H4V5.41425L7 2.41425L8.586 4.00025L7.293 5.29325L8.707 6.70725L12.707 2.70725L11.293 1.29325L10 2.58625L7.707 0.29325C7.316 -0.09775 6.684 -0.09775 6.293 0.29325L2.293 4.29325C2.105 4.48025 2 4.73525 2 5.00025V10.0002H1C0.448 10.0002 0 10.4482 0 11.0002V15.0002C0 15.5522 0.448 16.0002 1 16.0002H2.586L10 23.4143V30.0002H8C5.794 30.0002 4 31.7942 4 34.0002V42.0002H0V44.0002H62V42.0002H58V34.0002C58 31.7942 56.206 30.0002 54 30.0002H52V23.4143L59.414 16.0002ZM37 2.00025H43V4.00025H37V2.00025ZM19 2.00025H25V4.00025H19V2.00025ZM50.586 22.0002H42.618L45.618 16.0002H56.586L50.586 22.0002ZM21.618 22.0002L18.618 16.0002H30V22.0002H21.618ZM32 16.0002H43.382L40.382 22.0002H32V16.0002ZM2 12.0002H60V14.0002H2V12.0002ZM16.382 16.0002L19.382 22.0002H11.414L5.414 16.0002H16.382ZM41 42.0002H21V38.0002H41V42.0002ZM56 34.0002V42.0002H43V37.0002C43 36.4472 42.552 36.0002 42 36.0002H20C19.448 36.0002 19 36.4472 19 37.0002V42.0002H6V34.0002C6 32.8972 6.897 32.0002 8 32.0002H11H51H54C55.103 32.0002 56 32.8972 56 34.0002ZM12 30.0002V24.0002H50V30.0002H12Z" fill="#00365D"/>
<path d="M17 26.0005H15V28.0005H17V26.0005Z" fill="#00365D"/>
<path d="M27 26.0005H25V28.0005H27V26.0005Z" fill="#00365D"/>
<path d="M37 26.0005H35V28.0005H37V26.0005Z" fill="#00365D"/>
<path d="M47 26.0005H45V28.0005H47V26.0005Z" fill="#00365D"/>
</svg>
