<svg width="49" height="54" viewBox="0 0 49 54" fill="none" xmlns="http://www.w3.org/2000/svg">
<path d="M48.1613 19.2517V9.52148H44.8253V0H10.2166H8.34153H0V54H8.33992H10.215H44.8237V45.522H48.1613V35.7918H44.8253V31.8635H48.1613V22.1365H44.8253V19.2533L48.1613 19.2517ZM8.33992 52.1217H1.87668V1.87829H8.33992V52.1217ZM46.2846 11.3998V17.3766H44.8253V11.3998H46.2846ZM42.9486 1.87829V17.3766H10.2166V1.87829H42.9486ZM42.9486 34.75H10.2166V19.2517H42.9486V34.75ZM10.2166 52.1217V36.6266H42.9486V52.1217H10.2166ZM46.2846 37.6701V43.6469H44.8253V37.6701H46.2846ZM46.2846 24.0132V29.9884H44.8253V24.0132H46.2846Z" fill="#D29970"/>
<path d="M32.338 21.9987H20.8242V23.8737H32.338V21.9987Z" fill="#D29970"/>
<path d="M37.6347 26.0635H15.5352V27.9386H37.6347V26.0635Z" fill="#D29970"/>
<path d="M37.6347 30.1282H15.5352V32.0049H37.6347V30.1282Z" fill="#D29970"/>
<path d="M6.04856 14.3344H4.17188V16.211H6.04856V14.3344Z" fill="#D29970"/>
<path d="M6.04856 18.2451H4.17188V20.1202H6.04856V18.2451Z" fill="#D29970"/>
<path d="M6.04695 22.1543H4.17188V24.031H6.04695V22.1543Z" fill="#D29970"/>
<path d="M6.04856 26.0635H4.17188V27.9386H6.04856V26.0635Z" fill="#D29970"/>
<path d="M6.04856 29.9738H4.17188V31.8488H6.04856V29.9738Z" fill="#D29970"/>
<path d="M6.04856 33.8813H4.17188V35.758H6.04856V33.8813Z" fill="#D29970"/>
<path d="M6.04856 37.7905H4.17188V39.6688H6.04856V37.7905Z" fill="#D29970"/>
</svg>
