<svg width="57" height="57" viewBox="0 0 57 57" fill="none" xmlns="http://www.w3.org/2000/svg">
<path d="M28.0018 50.9993L10.1562 40.6976V20.0919L19.079 14.9388L19.9727 16.4863L11.9437 21.1237V39.6658L28.0018 48.9359L44.0567 39.6658V21.1237L36.0271 16.4863L36.9209 14.9388L45.8439 20.0919V40.6976L28.0018 50.9993Z" fill="#D29970"/>
<path d="M27.9994 31.4251L10.6016 21.3801L11.495 19.8318L27.9994 29.3617L44.5029 19.8326L45.3966 21.3809L27.9994 31.4251Z" fill="#D29970"/>
<path d="M28.8966 30.3932H27.1094V49.967H28.8966V30.3932Z" fill="#D29970"/>
<path d="M28.0019 21.638L18.6328 16.2282V5.41006L28.0019 0L37.3707 5.41034V16.2291L28.0019 21.638ZM20.4203 15.1964L28.0019 19.5738L35.5835 15.1973V6.44215L28.0019 2.06417L20.4203 6.44158V15.1964Z" fill="#D29970"/>
<path d="M28.0003 11.8507L19.0781 6.69988L19.9719 5.15161L28.0003 9.78712L36.0285 5.15246L36.9222 6.69988L28.0003 11.8507Z" fill="#D29970"/>
<path d="M28.8969 10.8188H27.1094V20.6058H28.8969V10.8188Z" fill="#D29970"/>
<path d="M2.11348 41.3997L0 40.1788L2.11376 38.9585L2.81872 40.1791L2.11348 41.3997Z" fill="#D29970"/>
<path d="M4.65155 39.5569L3.75781 38.0092L5.40244 37.0597L6.2959 38.6077L4.65155 39.5569ZM7.94025 37.6581L7.04679 36.1101L8.69114 35.1609L9.58488 36.7089L7.94025 37.6581Z" fill="#D29970"/>
<path d="M51.3474 39.5569L49.703 38.6077L50.5968 37.0597L52.2408 38.0092L51.3474 39.5569ZM48.0584 37.6581L46.4141 36.7089L47.3075 35.1609L48.9522 36.1101L48.0584 37.6581Z" fill="#D29970"/>
<path d="M53.8891 41.3997L53.1836 40.1791L53.8888 38.9585L56.0026 40.1788L53.8891 41.3997Z" fill="#D29970"/>
<path d="M30.8664 54.6963L29.9727 53.1486L31.6167 52.1993L32.5105 53.7468L30.8664 54.6963ZM34.1554 52.7969L33.2611 51.2495L34.9051 50.2994L35.7997 51.8471L34.1554 52.7969ZM37.4438 50.8973L36.55 49.3496L38.1941 48.4004L39.0879 49.9478L37.4438 50.8973ZM40.7325 48.9977L39.8382 47.45L41.4822 46.5002L42.3768 48.0479L40.7325 48.9977ZM44.0209 47.0978L43.1272 45.5504L44.7715 44.6008L45.665 46.1485L44.0209 47.0978ZM47.3102 45.1987L46.4156 43.651L48.0596 42.7012L48.9542 44.2486L47.3102 45.1987ZM50.5989 43.2988L49.7043 41.7517L51.3486 40.8019L52.2429 42.3496L50.5989 43.2988Z" fill="#D29970"/>
<path d="M27.9979 56.3515L26.7773 55.6463L27.6708 54.0989H28.3248L29.2185 55.6463L27.9979 56.3515Z" fill="#D29970"/>
<path d="M25.1355 54.6966L23.4908 53.7468L24.3846 52.1993L26.0292 53.1491L25.1355 54.6966ZM21.8468 52.7969L20.2021 51.8474L21.0959 50.3L22.7402 51.2495L21.8468 52.7969ZM18.5578 50.8976L16.9132 49.9478L17.8069 48.4004L19.4513 49.3502L18.5578 50.8976ZM15.2688 48.9977L13.6245 48.0479L14.5179 46.5002L16.1626 47.45L15.2688 48.9977ZM11.9798 47.0978L10.3358 46.1485L11.2292 44.6008L12.8733 45.5504L11.9798 47.0978ZM8.69114 45.1987L7.04679 44.2486L7.94025 42.7012L9.58488 43.651L8.69114 45.1987ZM5.40244 43.2988L3.75781 42.3496L4.65155 40.8019L6.2959 41.7514L5.40244 43.2988Z" fill="#D29970"/>
</svg>
