<svg width="53" height="55" viewBox="0 0 53 55" fill="none" xmlns="http://www.w3.org/2000/svg">
<path d="M5.12903 0C2.30037 0 0 2.30037 0 5.12903V49.5806C0 52.4093 2.30037 54.7097 5.12903 54.7097H34.1935V52.1452H32.4839V53H5.12903C3.24326 53 1.70968 51.4664 1.70968 49.5806C1.70968 47.6949 3.24326 46.1613 5.12903 46.1613C7.01481 46.1613 8.54839 47.6949 8.54839 49.5806V50.4355H35.9032V48.7258H10.2581V5.98387H35.9032V4.27419H10.1811C9.77166 1.85244 7.66534 0 5.12903 0ZM5.12903 44.4516C3.81429 44.4516 2.61837 44.9525 1.70968 45.7681V5.12903C1.70968 3.24326 3.24326 1.70968 5.12903 1.70968C7.01481 1.70968 8.54839 3.24326 8.54839 5.12903V45.7681C7.63969 44.9525 6.44377 44.4516 5.12903 44.4516Z" fill="#D29970"/>
<path d="M51.9906 11.9677H51.2904V8.54834H49.5808V11.9677H48.8807L47.8882 16.9292L47.8711 49.5806V52.1451C47.8711 52.8298 48.1387 53.4744 48.6225 53.9582C49.1063 54.4421 49.7509 54.7096 50.4356 54.7096C51.1203 54.7096 51.7649 54.4421 52.2487 53.9582C52.7326 53.4744 53.0001 52.8298 53.0001 52.1451V49.5806V17.0967L51.9906 11.9677ZM51.2904 48.7258H49.5808V34.1935H51.2904V48.7258ZM51.2904 32.4838H49.5808V21.3709H51.2904V32.4838ZM51.2904 19.6612H49.5808V17.9516H51.2904V19.6612ZM50.5903 13.6774L51.1032 16.2419H49.7688L50.2817 13.6774H50.5903ZM51.04 52.7495C50.716 53.0718 50.1552 53.0718 49.8312 52.7495C49.6697 52.5879 49.5808 52.3734 49.5808 52.1451V50.4354H51.2904V52.1451C51.2904 52.3734 51.2015 52.5879 51.04 52.7495Z" fill="#D29970"/>
<path d="M37.6133 54.7097H46.1617V0H37.6133V54.7097ZM44.452 1.70968V53H39.323V51.2903H41.0326V49.5806H39.323V47.871H41.0326V46.1613H39.323V44.4516H41.0326V42.7419H39.323V41.0323H41.0326V39.3226H39.323V37.6129H41.0326V35.9032H39.323V34.1936H41.0326V32.4839H39.323V30.7742H41.0326V29.0645H39.323V27.3548H41.0326V25.6452H39.323V23.9355H41.0326V22.2258H39.323V20.5161H41.0326V18.8065H39.323V17.0968H41.0326V15.3871H39.323V13.6774H41.0326V11.9677H39.323V10.2581H41.0326V8.54839H39.323V1.70968H44.452Z" fill="#D29970"/>
<path d="M42.7409 4.27417H41.0312V5.98385H42.7409V4.27417Z" fill="#D29970"/>
<path d="M24.7917 26.5H23.082V28.2097H24.7917V26.5Z" fill="#D29970"/>
<path d="M31.1274 27.3556L23.9348 20.163L16.7422 27.3556L23.9348 34.5473L31.1274 27.3556ZM23.9348 22.5813L28.7099 27.3556L23.9348 32.1299L19.1605 27.3556L23.9348 22.5813Z" fill="#D29970"/>
<path d="M23.9356 11.6138L12.4688 23.0806L15.6376 26.2495L16.8464 25.0407L14.8862 23.0806L23.9356 14.0313L32.9849 23.0806L31.0247 25.0407L32.2335 26.2495L35.4024 23.0806L23.9356 11.6138Z" fill="#D29970"/>
<path d="M32.2335 28.4601L31.0247 29.6688L32.9849 31.629L23.9356 40.6783L14.8862 31.629L16.8464 29.6688L15.6376 28.4601L12.4688 31.629L23.9356 43.0958L35.4024 31.629L32.2335 28.4601Z" fill="#D29970"/>
<path d="M21.3698 43.5968H19.6602V45.3065H21.3698V43.5968Z" fill="#D29970"/>
<path d="M24.7917 43.5968H23.082V45.3065H24.7917V43.5968Z" fill="#D29970"/>
<path d="M28.2097 43.5968H26.5V45.3065H28.2097V43.5968Z" fill="#D29970"/>
</svg>
