<svg width="43" height="55" viewBox="0 0 43 55" fill="none" xmlns="http://www.w3.org/2000/svg">
<path d="M36.0938 53.2812H1.71875V6.01562H2.57812V4.29688H0V55H37.8125V52.4219H36.0938V53.2812Z" fill="#D29970"/>
<path d="M33.8714 0H4.29688V50.7031H42.1094V8.23797L33.8714 0ZM34.375 2.93391L39.1755 7.73438H34.375V2.93391ZM6.01562 48.9844V1.71875H32.6562V9.45312H40.3906V48.9844H6.01562Z" fill="#D29970"/>
<path d="M27.5 7.73438H8.59375V9.45312H27.5V7.73438Z" fill="#D29970"/>
<path d="M17.1875 4.29688H8.59375V6.01562H17.1875V4.29688Z" fill="#D29970"/>
<path d="M37.8125 44.6875H27.5V46.4062H37.8125V44.6875Z" fill="#D29970"/>
<path d="M20.625 15.4688H18.9062V17.1875H20.625V15.4688Z" fill="#D29970"/>
<path d="M24.0625 15.4688H22.3438V17.1875H24.0625V15.4688Z" fill="#D29970"/>
<path d="M27.5 15.4688H25.7812V17.1875H27.5V15.4688Z" fill="#D29970"/>
<path d="M8.59375 42.1094H37.8125V12.0312H8.59375V42.1094ZM10.3125 37.8125H15.4688V40.3906H10.3125V37.8125ZM17.1875 31.7969V29.2188H36.0938V31.7969H17.1875ZM36.0938 33.5156V36.0938H17.1875V33.5156H36.0938ZM17.1875 27.5V24.9219H36.0938V27.5H17.1875ZM17.1875 23.2031V20.625H36.0938V23.2031H17.1875ZM15.4688 23.2031H10.3125V20.625H15.4688V23.2031ZM15.4688 24.9219V27.5H10.3125V24.9219H15.4688ZM15.4688 29.2188V31.7969H10.3125V29.2188H15.4688ZM15.4688 33.5156V36.0938H10.3125V33.5156H15.4688ZM17.1875 40.3906V37.8125H36.0938V40.3906H17.1875ZM36.0938 13.75V18.9062H10.3125V13.75H36.0938Z" fill="#D29970"/>
</svg>
