<svg width="51" height="51" viewBox="0 0 51 51" fill="none" xmlns="http://www.w3.org/2000/svg">
<path d="M7.96876 46.6859L6.70491 45.422L13.3134 38.8136L12.1866 37.6868L5.57813 44.2953L4.31429 43.0314L10.1259 37.2198L8.99912 36.093L0 45.0921V47.3457L3.65447 51.0002H5.90804L16.5009 40.4073L15.3741 39.2805L7.96876 46.6859ZM5.24822 49.4064H4.31429L1.59375 46.6859V45.752L3.1875 44.1582L6.84198 47.8127L5.24822 49.4064Z" fill="#D29970"/>
<path d="M41.8368 5.5098L43.1007 6.77364L37.6875 12.1868L38.8143 13.3136L44.2275 7.90042L45.4913 9.16427L40.875 13.7806L42.0018 14.9074L47.5799 9.32922C47.6564 9.25272 47.7162 9.16188 47.7568 9.06227L50.9443 1.09351C51.0623 0.797074 50.9929 0.459199 50.7674 0.233683C50.5411 0.00737074 50.2032 -0.0603637 49.9084 0.056777L41.9396 3.24428C41.8392 3.28412 41.7484 3.34469 41.6719 3.42119L34.5 10.5931L35.6268 11.7198L41.8368 5.5098ZM46.4978 7.91716L43.0839 4.50334L48.7744 2.22747L46.4978 7.91716Z" fill="#D29970"/>
<path d="M40.875 37.2198L46.6866 43.0314L45.4228 44.2953L38.8143 37.6868L37.6875 38.8136L44.296 45.422L43.0321 46.6859L35.6268 39.2805L34.5 40.4073L45.0929 51.0002H47.3464L51.0009 47.3457V45.0921L42.0018 36.093L40.875 37.2198ZM49.4072 46.6859L46.6866 49.4064H45.7527L44.1589 47.8127L47.8134 44.1582L49.4072 45.752V46.6859Z" fill="#D29970"/>
<path d="M3.24422 9.06221C3.28406 9.16182 3.34463 9.25346 3.42113 9.32916L8.99926 14.9073L10.126 13.7805L5.50974 9.16421L6.77358 7.90036L12.1868 13.3135L13.3135 12.1868L7.90036 6.77358L9.16421 5.50974L15.3743 11.7198L16.501 10.593L9.32916 3.42113C9.25266 3.34463 9.16182 3.28486 9.06221 3.24422L1.09345 0.0567172C0.797015 -0.0612204 0.458343 0.00810785 0.233624 0.233624C0.00810785 0.459139 -0.0612204 0.797015 0.0567172 1.09345L3.24422 9.06221ZM7.9171 4.50328L4.50328 7.9171L2.22741 2.22741L7.9171 4.50328Z" fill="#D29970"/>
<path d="M25.4942 39.844C25.4958 39.844 25.4974 39.844 25.4998 39.844H25.5006C25.5014 39.844 25.5014 39.844 25.5022 39.844C35.154 39.844 44.3913 34.787 50.8452 25.9712C51.0508 25.6907 51.0508 25.3098 50.8452 25.0293C44.3913 16.2127 35.154 11.1565 25.503 11.1565C25.5022 11.1565 25.5022 11.1565 25.5014 11.1565H25.5006C25.499 11.1565 25.4966 11.1565 25.495 11.1565C15.8417 11.1597 6.6059 16.2159 0.153598 25.0293C-0.0511993 25.3098 -0.0511993 25.6907 0.153598 25.9712C6.6059 34.7847 15.8417 39.8408 25.4942 39.844ZM25.5006 12.7502C32.5307 12.751 38.2498 18.4702 38.2498 25.5003C38.2498 32.5303 32.5307 38.2495 25.5006 38.2503C25.4982 38.2503 25.4966 38.2503 25.4942 38.2503C18.4666 38.2471 12.7498 32.5287 12.7498 25.5003C12.7498 18.4718 18.4666 12.7534 25.4942 12.7502C25.4966 12.7502 25.499 12.7502 25.5006 12.7502ZM49.2101 25.5003C45.1787 30.8337 40.0715 34.654 34.4997 36.6525C37.755 34.0212 39.8436 30.0018 39.8436 25.5003C39.8436 20.9987 37.755 16.9793 34.5005 14.3472C40.0715 16.3465 45.1779 20.1668 49.2101 25.5003ZM16.4959 14.3496C13.2431 16.9817 11.1561 21.0003 11.1561 25.5003C11.1561 30.0002 13.2439 34.0189 16.4967 36.6509C10.925 34.6508 5.82018 30.8322 1.78958 25.5003C5.82018 20.1684 10.925 16.3497 16.4959 14.3496Z" fill="#D29970"/>
<path d="M25.5 34.2659C30.3331 34.2659 34.2656 30.3333 34.2656 25.5003C34.2656 20.6672 30.3331 16.7346 25.5 16.7346C24.7486 16.7346 23.9812 16.839 23.2201 17.0446C22.9404 17.1203 22.7245 17.341 22.6544 17.6215C22.585 17.9028 22.6727 18.1993 22.8847 18.3969C23.5429 19.0105 23.9063 19.8361 23.9063 20.719C23.9063 22.4769 22.4767 23.9065 20.7188 23.9065C19.8358 23.9065 19.0103 23.5431 18.3959 22.8849C18.1982 22.6737 17.9026 22.5861 17.6205 22.6546C17.34 22.7247 17.1193 22.9407 17.0436 23.2204C16.8388 23.9814 16.7344 24.7488 16.7344 25.5003C16.7344 30.3333 20.667 34.2659 25.5 34.2659ZM18.3576 24.8715C19.0692 25.2827 19.8757 25.5003 20.7188 25.5003C23.3556 25.5003 25.5 23.3559 25.5 20.719C25.5 19.8759 25.2825 19.0695 24.8713 18.3579C29.0891 17.9626 32.6719 21.3374 32.6719 25.5003C32.6719 29.4551 29.4549 32.6721 25.5 32.6721C21.5459 32.6721 18.3281 29.4551 18.3281 25.5003C18.3281 25.2923 18.3377 25.0827 18.3576 24.8715Z" fill="#D29970"/>
<path d="M23.1094 6.37524H21.5156V7.969H23.1094V6.37524Z" fill="#D29970"/>
<path d="M26.2969 6.37524H24.7031V7.969H26.2969V6.37524Z" fill="#D29970"/>
<path d="M29.4844 6.37524H27.8906V7.969H29.4844V6.37524Z" fill="#D29970"/>
<path d="M23.1094 43.0315H21.5156V44.6252H23.1094V43.0315Z" fill="#D29970"/>
<path d="M26.2969 43.0315H24.7031V44.6252H26.2969V43.0315Z" fill="#D29970"/>
<path d="M29.4844 43.0315H27.8906V44.6252H29.4844V43.0315Z" fill="#D29970"/>
</svg>
