<svg width="61" height="51" viewBox="0 0 61 51" fill="none" xmlns="http://www.w3.org/2000/svg">
<path d="M59.6398 21.0577L54.5483 25.9038L39.5556 11.6339L50.4187 1.29459L49.0586 0L38.1964 10.3384C37.8318 10.6836 37.6318 11.1441 37.6318 11.6339C37.6318 12.1238 37.8319 12.5843 38.1955 12.9285L38.7592 13.465L36.8353 15.2962H31.0637L29.5381 16.7482L28.0124 15.2962H24.1647L22.2408 13.465L22.8045 12.9285C23.1681 12.5825 23.3682 12.1228 23.3682 11.6339C23.3682 11.145 23.1681 10.6854 22.8045 10.3393L11.9414 0L10.5813 1.29459L21.4444 11.6339L6.45168 25.9038L1.36017 21.0577L0 22.3523L5.09055 27.1974C5.4532 27.5444 5.93705 27.7349 6.45168 27.7349C6.96632 27.7349 7.45017 27.5444 7.81185 27.1984L8.37555 26.6618L10.2994 28.4929V30.3241L13.7479 33.6072L13.3016 34.032C11.8654 35.399 11.8654 37.6228 13.3016 38.9888C13.9971 39.6517 14.9225 40.0152 15.9065 40.0152C15.969 40.0152 16.0287 40.0005 16.0902 39.9978C16.0402 40.9527 16.3846 41.9232 17.1493 42.6502C17.8448 43.313 18.7702 43.6765 19.7542 43.6765C19.8168 43.6765 19.8764 43.6618 19.938 43.6591C19.888 44.614 20.2323 45.5845 20.9971 46.3115C21.6925 46.9743 22.6179 47.3378 23.602 47.3378C23.6645 47.3378 23.7241 47.3231 23.7857 47.3204C23.7357 48.2753 24.0801 49.2458 24.8448 49.9727C25.5403 50.6356 26.4657 50.9991 27.4497 50.9991C28.4338 50.9991 29.3582 50.6347 30.0537 49.9727L30.5 49.5507L30.9463 49.9755C31.6639 50.6585 32.6076 51 33.5503 51C34.493 51 35.4366 50.6585 36.1542 49.9755C36.9199 49.2476 37.2633 48.2771 37.2143 47.3213C37.2759 47.325 37.3365 47.3387 37.398 47.3387C38.3407 47.3387 39.2844 46.9972 40.002 46.3142C40.7677 45.5863 41.1111 44.6158 41.062 43.66C41.1236 43.6637 41.1842 43.6774 41.2458 43.6774C42.1884 43.6774 43.1321 43.3359 43.8497 42.6529C44.6154 41.925 44.9588 40.9545 44.9098 39.9987C44.9713 40.0024 45.0319 40.0161 45.0935 40.0161C46.0362 40.0161 46.9798 39.6746 47.6974 38.9916C49.1336 37.6256 49.1336 35.4008 47.6974 34.0348L47.2511 33.6072L50.7006 30.3241V28.4929L52.6245 26.6618L53.1881 27.1984C53.5518 27.5444 54.0346 27.7349 54.5483 27.7349C55.062 27.7349 55.5449 27.5444 55.9085 27.1984L61 22.3523L59.6398 21.0577ZM14.6618 37.6943C13.9759 37.0415 13.9759 35.9794 14.6618 35.3266L15.1091 34.9018L17.5957 37.2694L17.1493 37.6943C16.4856 38.3269 15.3274 38.3251 14.6618 37.6943ZM18.5095 41.3565C17.8237 40.7037 17.8237 39.6416 18.5095 38.9888L18.9568 38.564L21.4434 40.9317L20.9971 41.3565C20.3333 41.99 19.1752 41.9873 18.5095 41.3565ZM22.3572 45.0187C21.6714 44.3659 21.6714 43.3039 22.3572 42.6511L22.8045 42.2262L25.2911 44.5939L24.8448 45.0187C24.1811 45.6523 23.0229 45.6495 22.3572 45.0187ZM28.6925 48.6809C28.0288 49.3145 26.8697 49.3117 26.205 48.6809C25.5191 48.0281 25.5191 46.9661 26.205 46.3133L26.6523 45.8885L29.1389 48.2561L28.6925 48.6809ZM48.7767 27.7349V29.566L45.8909 32.3126L42.7233 29.2977L41.3631 30.5923L46.3373 35.3266C47.0231 35.9794 47.0231 37.0415 46.3373 37.6943C45.6514 38.347 44.5356 38.347 43.8497 37.6943L38.8755 32.9599L37.5154 34.2545L42.4895 38.9888C43.1754 39.6416 43.1754 40.7037 42.4895 41.3565C41.8037 42.0093 40.6878 42.0093 40.002 41.3565L35.0278 36.6221L33.6676 37.9167L38.6418 42.6511C39.3277 43.3039 39.3277 44.3659 38.6418 45.0187C37.9559 45.6715 36.8401 45.6715 36.1542 45.0187L31.1801 40.2844L29.8199 41.579L34.7941 46.3133C35.4799 46.9661 35.4799 48.0281 34.7941 48.6809C34.1082 49.3337 32.9924 49.3337 32.3065 48.6809L12.2233 29.566V27.7349L9.73572 25.3672L20.8807 14.7596L23.3682 17.1273H27.216L28.1779 18.0428L22.9209 23.0454C21.4857 24.4132 21.4857 26.6371 22.9209 28.0022C23.6164 28.6651 24.5418 29.0285 25.5258 29.0285C26.5099 29.0285 27.4343 28.6642 28.1298 28.0022L33.784 22.6206H34.4151C34.619 23.9848 35.277 25.2446 36.3197 26.2361C37.5923 27.4465 39.2834 28.1139 41.0813 28.1139H43.0051C45.1271 28.1139 46.8529 26.4714 46.8529 24.4517H44.929C44.929 25.4615 44.0661 26.2828 43.0051 26.2828H41.0813C39.7971 26.2828 38.5889 25.8067 37.6808 24.9415C36.7728 24.0772 36.2716 22.9273 36.2716 21.705V20.7895H32.9876L26.7687 26.7076C26.1049 27.3412 24.9458 27.3384 24.2811 26.7076C23.5952 26.0548 23.5962 24.9928 24.2811 24.3409L31.8602 17.1273H37.6318L40.1193 14.7596L51.2643 25.3672L48.7767 27.7349Z" fill="#D29970"/>
</svg>
