<svg width="64" height="52" viewBox="0 0 64 52" fill="none" xmlns="http://www.w3.org/2000/svg">
<path d="M18 44H20V51H18V44ZM44 51H46V44H44V51ZM31 42H33V40H31V42ZM31 46H33V44H31V46ZM64 31V40H62V31C62 29.9 61.6 28.9 60.8 28.2C60.1 27.5 59.3 27.1 58.4 27L54 31.4L49.6 27C48.7 27.1 47.8 27.5 47.2 28.2C46.4 28.9 46 29.9 46 31V31.8C49.8 33.5 53 35.8 53 41V51H51V41C51 36.7 48.5 34.9 43.6 32.9L40 31.5V38.3L34.8 37L35.3 35.1L38.1 35.8V30.5L37.1 29.5L33.1 33.5V38H31.1V33.4L27.1 29.4L26.1 30.4V35.7L28.9 35L29.4 36.9L24 38.3V31.5L20.4 33C15.5 35 13 36.7 13 41.1V51.1H11V41C11 35.7 14.2 33.5 18 31.8V31C18 29.9 17.6 28.9 16.8 28.2C16.1 27.5 15.3 27.1 14.4 27L10 31.4L5.6 27C4.7 27.1 3.8 27.5 3.2 28.2C2.4 28.9 2 29.9 2 31V40H0V31C0 29.4 0.6 27.9 1.8 26.8C2.9 25.6 4.4 25 6 25H6.4L10 28.6L13.6 25H14C15.6 25 17.1 25.6 18.2 26.8C19.3 27.9 19.9 29.4 20 31L24.4 29.2L26 27.6V23.6C24.2 21.8 23.2 19.3 23 16.8C22.8 16.7 22.7 16.6 22.6 16.5C22.2 16 22 15.5 22 15V10C22 7.3 23 4.8 24.9 2.9C26.8 1 29.3 0 32 0C34.7 0 37.2 1 39.1 2.9C41 4.8 42 7.3 42 10V15C42 15.5 41.8 16 41.4 16.4C41.3 16.5 41.1 16.6 41 16.7C40.8 19.2 39.8 21.8 38 23.5V27.5L39.6 29.1L44 30.9C44 29.3 44.6 27.8 45.8 26.7C46.9 25.6 48.4 24.9 50 24.9H50.4L54 28.5L57.6 24.9H58C59.6 24.9 61.1 25.5 62.2 26.7C63.4 27.9 64 29.4 64 31ZM28 25V27.5L32 31.5L36 27.5V25C34.9 25.6 33.5 26 32 26C30.5 26 29.1 25.6 28 25ZM24 9.5C24.6 9.2 25.3 9 26 9H32.6L34.3 7.3C34.6 7 35 6.9 35.4 7.1C35.8 7.3 36 7.6 36 8C36 8.3 36.1 8.5 36.3 8.7C36.5 8.9 36.7 9 37 9H38C38.7 9 39.4 9.2 40 9.5C39.9 7.5 39.1 5.7 37.7 4.3C36.1 2.8 34.1 2 32 2C29.9 2 27.9 2.8 26.3 4.3C24.9 5.7 24.1 7.6 24 9.5ZM25 16C25 19.1 26.9 24 32 24C37.1 24 39 19.1 39 16C39 15.7 39.1 15.5 39.3 15.3C39.5 15.1 39.7 15 40 15V13C40 12.5 39.8 12 39.4 11.6C39 11.2 38.5 11 38 11H37C36.2 11 35.4 10.7 34.9 10.1C34.8 10 34.7 9.9 34.6 9.8L33.7 10.7C33.5 10.9 33.3 11 33 11H26C25.5 11 25 11.2 24.6 11.6C24.2 12 24 12.5 24 13V15C24.6 15 25 15.4 25 16ZM53 35H55V33H53V35ZM48 18C48 14.7 50.7 12 54 12C57.3 12 60 14.7 60 18C60 21.3 57.3 24 54 24C50.7 24 48 21.3 48 18ZM50 18C50 20.2 51.8 22 54 22C56.2 22 58 20.2 58 18C58 15.8 56.2 14 54 14C51.8 14 50 15.8 50 18ZM11 33H9V35H11V33ZM4 18C4 14.7 6.7 12 10 12C13.3 12 16 14.7 16 18C16 21.3 13.3 24 10 24C6.7 24 4 21.3 4 18ZM6 18C6 20.2 7.8 22 10 22C12.2 22 14 20.2 14 18C14 15.8 12.2 14 10 14C7.8 14 6 15.8 6 18Z" fill="#D29970"/>
</svg>
