<svg width="59" height="36" viewBox="0 0 59 36" fill="none" xmlns="http://www.w3.org/2000/svg">
<path d="M35.9567 24.004H34.0312V25.8095H35.9567V24.004Z" fill="#D29970"/>
<path d="M32.1051 24.004H30.1797V25.8095H32.1051V24.004Z" fill="#D29970"/>
<path d="M28.2594 24.004H26.3359V25.8095H28.2594V24.004Z" fill="#D29970"/>
<path d="M9.25147 12.2546H3.4634V14.0581H9.25147V16.1035H7.11954V17.907H9.25147V22.3203H36.8544V3.99829H9.25147V8.40965H0V10.2131H9.25147V12.2546ZM11.0549 5.79981H35.0529V20.5148H11.0549V17.905H15.0297V16.1015H11.0549V14.0561H19.1736V12.2526H11.0549V10.2072H15.8007V8.40375H11.0549V5.79981Z" fill="#D29970"/>
<path d="M48.4523 11.2457H42.6445V21.9152H55.7213L48.4523 11.2457ZM44.4461 13.0472H47.5004L52.3129 20.1156H44.4461V13.0472Z" fill="#D29970"/>
<path d="M58.9987 19.915L50.0599 7.65055H40.8458V0H2.69141V1.80152H5.25405V6.23058H7.05753V1.80152H39.0463V7.65055V28.9639H21.5503C21.1137 26.2518 18.7792 24.1691 15.9432 24.1691C13.1111 24.1691 10.7727 26.2558 10.3361 28.9639H7.0536V25.8093H8.63288V24.0078H7.0536V20.0861H5.25011V30.7713H10.3341C10.7727 33.4835 13.1091 35.5662 15.9432 35.5662C18.7733 35.5662 21.1098 33.4795 21.5483 30.7713H39.0443H40.8458H43.4183C43.8549 33.4835 46.1894 35.5662 49.0235 35.5662C51.8575 35.5662 54.1959 33.4795 54.6306 30.7713H58.9987V19.915ZM15.9412 33.7608C13.7936 33.7608 12.0491 32.0104 12.0491 29.8667C12.0491 27.7229 13.7955 25.9745 15.9412 25.9745C18.0869 25.9745 19.8334 27.7229 19.8334 29.8667C19.8353 32.0104 18.0889 33.7608 15.9412 33.7608ZM49.0215 33.7608C46.8758 33.7608 45.1294 32.0104 45.1294 29.8667C45.1294 27.7229 46.8778 25.9745 49.0215 25.9745C51.1711 25.9745 52.9156 27.7229 52.9156 29.8667C52.9156 32.0104 51.1711 33.7608 49.0215 33.7608ZM54.6267 28.9639C54.1881 26.2518 51.8536 24.1691 49.0176 24.1691C46.1874 24.1691 43.849 26.2558 43.4124 28.9639H40.8458V9.45404H49.1395L57.1952 20.5031V24.0058H55.6159V25.8073H57.1952V28.962H54.6267V28.9639Z" fill="#D29970"/>
<path d="M16.9098 28.964H14.9844V30.7675H16.9098V28.964Z" fill="#D29970"/>
<path d="M49.9879 28.964H48.0625V30.7675H49.9879V28.964Z" fill="#D29970"/>
<path d="M3.51136 24.004H1.58594V25.8095H3.51136V24.004Z" fill="#D29970"/>
<path d="M21.8707 8.40564H19.9453V10.2091H21.8707V8.40564Z" fill="#D29970"/>
<path d="M5.19466 16.1016H0.769531V17.905H5.19466V16.1016Z" fill="#D29970"/>
</svg>
