<svg width="21" height="16" viewBox="0 0 21 16" fill="none" xmlns="http://www.w3.org/2000/svg">
<path fill-rule="evenodd" clip-rule="evenodd" d="M13.7812 8.13112L21 1.40004V14.7777L13.7812 8.13112ZM0.42651 0.466713C0.563596 0.319213 0.727009 0.202004 0.90726 0.121893C1.08751 0.041782 1.28101 0.000365558 1.47651 4.89217e-05H19.5235C19.7143 -0.0015674 19.9034 0.0368826 20.0801 0.113172C20.2567 0.189462 20.4173 0.302075 20.5525 0.444491C20.5544 0.447158 10.5 9.61755 10.5 9.61755C10.5 9.61755 0.42609 0.467824 0.42651 0.466713ZM0 14.776V1.40004L7.21875 8.13334L0 14.776ZM10.4706 11.1913L13.125 8.74311C13.125 8.74311 20.5096 15.554 20.508 15.5555C20.3731 15.6978 20.213 15.8103 20.0368 15.8866C19.8606 15.9629 19.6719 16.0014 19.4815 16H1.45971C1.26439 15.9997 1.07108 15.9582 0.891037 15.8781C0.71099 15.798 0.547801 15.6808 0.41097 15.5333L7.875 8.74311L10.4706 11.1913Z" fill="#D29970"/>
</svg>
