<svg width="15" height="19" viewBox="0 0 15 19" fill="none" xmlns="http://www.w3.org/2000/svg">
<path fill-rule="evenodd" clip-rule="evenodd" d="M7.5 0C11.642 0 15 3.11219 15 6.95019C15 10.7882 7.5 19 7.5 19C7.5 19 0 10.7882 0 6.95019C0 3.11219 3.358 0 7.5 0ZM7.504 3.93679C8.16855 3.93679 8.81818 4.124 9.37073 4.47474C9.92328 4.82548 10.3539 5.32402 10.6082 5.90728C10.8625 6.49054 10.9291 7.13233 10.7994 7.75152C10.6698 8.37071 10.3498 8.93948 9.87988 9.38589C9.40998 9.8323 8.81127 10.1363 8.1595 10.2595C7.50772 10.3826 6.83215 10.3194 6.21819 10.0778C5.60423 9.83622 5.07946 9.42711 4.71025 8.90219C4.34105 8.37727 4.14399 7.76012 4.14399 7.1288C4.14399 6.28223 4.498 5.47034 5.12813 4.87172C5.75825 4.2731 6.61288 3.93679 7.504 3.93679Z" fill="#D29970"/>
</svg>
