<svg fill="none" viewBox="0 0 17 17" xmlns="http://www.w3.org/2000/svg"><path d="m7.4785 0c-4.1097-3.3996e-16 -7.4785 3.2983-7.4785 7.3633 3.4243e-16 4.0644 3.3697 7.3633 7.4785 7.3633 1.626 0 3.0577-0.62184 4.2891-1.498l3.5293 3.4824 1.4062-1.4219-3.4629-3.418c1.0167-1.2568 1.7168-2.7792 1.7168-4.5078 0-4.0642-3.3695-7.3633-7.4785-7.3633zm0 2c3.047 0 5.4785 2.3995 5.4785 5.3633 0 2.9638-2.4314 5.3633-5.4785 5.3633-3.0472 0-5.4785-2.3997-5.4785-5.3633 0-2.965 2.4302-5.3633 5.4785-5.3633z" fill="currentColor"/></svg>
