<svg width="90" height="104" viewBox="0 0 90 104" fill="none" xmlns="http://www.w3.org/2000/svg">
<path fill-rule="evenodd" clip-rule="evenodd" d="M69.98 64.5188L79.1361 65.8174C81.9982 66.2439 84.6133 67.6799 86.5092 69.866C88.4051 72.052 89.4566 74.8441 89.4739 77.7377V103.195H86.0337V77.7377C86.0222 75.6693 85.271 73.6732 83.9161 72.1104C82.5611 70.5475 80.6918 69.521 78.6459 69.2163L70.8108 68.1051L68.8018 79.4096C68.753 79.6843 68.6381 79.9429 68.4671 80.1633C68.2961 80.3836 68.0741 80.5591 67.8201 80.6746C67.5662 80.79 67.288 80.842 67.0095 80.826C66.7311 80.81 66.4606 80.7265 66.2216 80.5827L59.0282 76.267L56.7921 79.6298V103.195H53.3519V79.6298L51.1157 76.2722L43.9171 80.5931C43.6781 80.7368 43.4077 80.8203 43.1292 80.8363C42.8507 80.8523 42.5726 80.8003 42.3186 80.6849C42.0647 80.5694 41.8427 80.394 41.6717 80.1736C41.5006 79.9532 41.3858 79.6946 41.337 79.42L39.2626 67.7233L31.6787 68.4251C30.8491 68.5192 30.0378 68.7342 29.2705 69.0632V65.3994C29.9526 65.2082 30.6502 65.0776 31.3553 65.009L40.6558 64.1489L44.7514 61.0528V60.1463C42.6172 58.5527 40.8841 56.4833 39.6897 54.1026C38.4953 51.7219 37.8726 49.0954 37.871 46.4319V44.7118C36.4797 44.7177 35.1196 44.3002 33.9713 43.5147C32.8229 42.7293 31.9407 41.6131 31.4418 40.3143C30.9428 39.0156 30.8508 37.5958 31.1779 36.2435C31.5051 34.8913 32.2358 33.6705 33.2732 32.7434C32.0306 32.4326 30.9435 31.6802 30.2148 30.6268C29.4861 29.5734 29.1655 28.2908 29.3129 27.0184C29.4604 25.746 30.0657 24.5707 31.0159 23.7118C31.9662 22.8529 33.1965 22.3691 34.4773 22.3506C34.6337 18.2133 36.0962 14.2318 38.6551 10.977C41.214 7.7222 44.7379 5.3613 48.7214 4.23281C49.244 2.97926 50.1259 1.90842 51.256 1.15518C52.3861 0.401938 53.7138 0 55.072 0C56.4301 0 57.7578 0.401938 58.8879 1.15518C60.018 1.90842 60.8999 2.97926 61.4226 4.23281C65.4068 5.36254 68.9311 7.72467 71.4902 10.9806C74.0493 14.2365 75.512 18.2191 75.6684 22.3575C76.9492 22.376 78.1795 22.8598 79.1297 23.7187C80.08 24.5776 80.6853 25.7529 80.8327 27.0253C80.9801 28.2977 80.6596 29.5803 79.9309 30.6337C79.2021 31.6871 78.1151 32.4394 76.8725 32.7503C77.9074 33.678 78.6359 34.8984 78.9615 36.2496C79.287 37.6008 79.1942 39.0191 78.6954 40.3164C78.1965 41.6136 77.3152 42.7287 76.1682 43.5137C75.0213 44.2986 73.6628 44.7165 72.2729 44.7118V46.4319C72.2708 49.0949 71.6478 51.7206 70.4534 54.1007C69.2591 56.4808 67.5262 58.5496 65.3925 60.1428V61.0528L69.98 64.5188ZM7.7934 86.075C5.59119 86.2773 3.55219 87.3223 2.10197 88.9919C0.651744 90.6615 -0.0976402 92.8267 0.0102172 95.0355C0.118075 97.2444 1.07484 99.3262 2.68082 100.847C4.28681 102.367 6.41792 103.208 8.62937 103.195H38.504C39.704 103.194 40.8545 102.717 41.7032 101.868C42.5518 101.02 43.0295 99.8695 43.0313 98.6695V95.0006L44.2766 92.5116C44.6195 91.8249 44.7813 91.062 44.7465 90.2953C44.7118 89.5285 44.4818 88.7834 44.0782 88.1305C43.6747 87.4776 43.111 86.9387 42.4407 86.5648C41.7704 86.1909 41.0157 85.9945 40.2482 85.9942H36.1509V82.554H32.7107V85.9942H29.2705H25.8303H22.4297H18.9499H12.0059L7.7934 86.075ZM8.62937 99.7549H25.8303V89.4343H8.62937C7.26077 89.4343 5.94823 89.978 4.98049 90.9458C4.01275 91.9135 3.46908 93.226 3.46908 94.5946C3.46908 95.9632 4.01275 97.2758 4.98049 98.2435C5.94823 99.2113 7.26077 99.7549 8.62937 99.7549ZM40.7693 89.5692C40.61 89.4803 40.4306 89.4339 40.2482 89.4343H29.2705V99.7549H38.504C38.792 99.7549 39.0683 99.6406 39.2721 99.4371C39.4759 99.2336 39.5906 98.9576 39.5911 98.6695V94.5946C39.5922 94.3307 39.654 94.0706 39.7717 93.8344L41.1994 90.9824C41.2822 90.8199 41.3218 90.6389 41.3146 90.4566C41.3073 90.2744 41.2533 90.0971 41.1579 89.9417C41.0624 89.7863 40.9286 89.658 40.7693 89.5692ZM72.2729 34.3913V41.2716C73.1853 41.2716 74.0603 40.9092 74.7055 40.264C75.3507 39.6189 75.7131 38.7439 75.7131 37.8315C75.7131 36.9191 75.3507 36.044 74.7055 35.3989C74.0603 34.7537 73.1853 34.3913 72.2729 34.3913ZM52.6394 4.43714C51.9942 5.0823 51.6318 5.95732 51.6318 6.86972V15.4702H58.5122V6.86972C58.5122 5.95732 58.1497 5.0823 57.5045 4.43714C56.8594 3.79198 55.9844 3.42953 55.072 3.42953C54.1596 3.42953 53.2845 3.79198 52.6394 4.43714ZM41.3112 18.9104V13.179C39.261 15.8128 38.0761 19.0166 37.9192 22.3506H72.2248C72.0678 19.0166 70.8829 15.8128 68.8327 13.179V18.9104H65.3925V9.91085C64.3254 9.14978 63.1703 8.52026 61.9523 8.03595V17.1903C61.9523 17.6465 61.7711 18.084 61.4485 18.4066C61.126 18.7292 60.6884 18.9104 60.2323 18.9104H49.9117C49.4555 18.9104 49.018 18.7292 48.6954 18.4066C48.3728 18.084 48.1916 17.6465 48.1916 17.1903V8.03595C46.974 8.52034 45.819 9.14924 44.7514 9.90913V18.9104H41.3112ZM33.2526 26.329C32.9074 26.6733 32.7125 27.1403 32.7107 27.6278V27.633C32.7122 28.1001 32.8904 28.5493 33.2094 28.8904C33.5285 29.2315 33.9649 29.4392 34.4308 29.4718L55.072 30.9511L75.7217 29.4718C76.2016 29.4429 76.6511 29.2276 76.9744 28.8718C77.2977 28.516 77.4691 28.0479 77.452 27.5675C77.435 27.0871 77.2308 26.6324 76.8831 26.3004C76.5354 25.9685 76.0717 25.7856 75.591 25.7908H34.5529C34.0654 25.7912 33.5978 25.9848 33.2526 26.329ZM35.4384 40.264C36.0836 40.9092 36.9586 41.2716 37.871 41.2716V34.3913C36.9586 34.3913 36.0836 34.7537 35.4384 35.3989C34.7933 36.044 34.4308 36.9191 34.4308 37.8315C34.4308 38.7439 34.7933 39.6189 35.4384 40.264ZM41.3112 33.4125V46.4319C41.3107 49.7788 42.5343 53.0103 44.7514 55.5175V49.8721C44.7514 48.0473 45.4763 46.2973 46.7666 45.007C48.0569 43.7166 49.807 42.9917 51.6318 42.9917H58.5122C60.3369 42.9917 62.087 43.7166 63.3773 45.007C64.6676 46.2973 65.3925 48.0473 65.3925 49.8721V55.5175C67.6095 53.0102 68.833 49.7788 68.8327 46.4319V33.4125L55.1941 34.3913H55.072H54.9498L41.3112 33.4125ZM61.9523 58.3006V49.8721C61.9523 48.9597 61.5899 48.0847 60.9447 47.4395C60.2996 46.7944 59.4245 46.4319 58.5122 46.4319H51.6318C50.7194 46.4319 49.8443 46.7944 49.1992 47.4395C48.554 48.0847 48.1916 48.9597 48.1916 49.8721V58.3006C50.2891 59.4918 52.6598 60.118 55.072 60.118C57.4841 60.118 59.8549 59.4918 61.9523 58.3006ZM42.6253 66.9802L44.2887 76.3616L49.4593 73.2603L45.7559 64.6168L42.6253 66.9802ZM55.072 76.0176L56.9933 73.1382L61.6444 62.2981C59.5685 63.1872 57.3337 63.6457 55.0754 63.6457C52.8171 63.6457 50.5823 63.1872 48.5064 62.2981L53.1506 73.1347L55.072 76.0176ZM60.6846 73.2654L65.8552 76.3616L67.5186 66.9854L64.388 64.622L60.6846 73.2654Z" fill="#00365D"/>
<path fill-rule="evenodd" clip-rule="evenodd" d="M29.2705 65.3994V55.0324C29.2731 53.5682 28.8078 52.1414 27.9425 50.9602C27.0772 49.7791 25.8571 48.9053 24.4602 48.4663C23.0633 48.0273 21.5627 48.046 20.1773 48.5199C18.7918 48.9937 17.594 49.8978 16.7585 51.1003C15.8531 49.8821 14.5694 48.9983 13.1083 48.5872C11.6471 48.1761 10.091 48.2608 8.68309 48.8281C7.27523 49.3954 6.09508 50.4133 5.32722 51.7226C4.55936 53.0319 4.24707 54.5588 4.43921 56.0645C4.43921 56.0868 4.45125 56.1075 4.45469 56.1298L8.44704 85.3612L7.7934 86.075L12.0059 85.9942L8.66893 61.5533C9.49101 61.8929 10.3716 62.0682 11.2611 62.0693C11.5532 62.0688 11.845 62.0504 12.1349 62.0143C13.356 61.8565 14.5116 61.3709 15.4788 60.609L18.9499 85.9942H22.4297L19.005 60.9857C20.0393 61.5975 21.22 61.9178 22.4217 61.9127C23.6234 61.9075 24.8013 61.5771 25.8303 60.9564V85.9942H29.2705V69.0632V65.3994ZM7.85704 55.6087L7.86908 55.7015H7.87424C7.97076 56.3533 8.2524 56.9636 8.68567 57.4599C9.11894 57.9562 9.68562 58.3177 10.3183 58.5014C10.9511 58.685 11.6232 58.6831 12.2549 58.4959C12.8866 58.3087 13.4512 57.944 13.8817 57.4453C14.3121 56.9465 14.5903 56.3346 14.6832 55.6824C14.776 55.0301 14.6796 54.3649 14.4054 53.7658C14.1312 53.1667 13.6908 52.659 13.1364 52.303C12.5821 51.9469 11.9372 51.7575 11.2783 51.7574C11.1305 51.7572 10.9829 51.7663 10.8363 51.7849C9.93554 51.9 9.11689 52.3666 8.55881 53.0829C8.00072 53.7992 7.74846 54.7071 7.85704 55.6087ZM20.4789 57.8928C21.0446 58.2709 21.7097 58.4726 22.3901 58.4726C23.3025 58.4726 24.1776 58.1102 24.8227 57.465C25.4679 56.8198 25.8303 55.9448 25.8303 55.0324C25.8303 54.352 25.6286 53.6869 25.2505 53.1211C24.8725 52.5554 24.3353 52.1145 23.7066 51.8541C23.078 51.5937 22.3863 51.5256 21.719 51.6583C21.0517 51.7911 20.4387 52.1187 19.9576 52.5998C19.4764 53.081 19.1488 53.6939 19.016 54.3613C18.8833 55.0286 18.9514 55.7203 19.2118 56.3489C19.4722 56.9775 19.9131 57.5148 20.4789 57.8928Z" fill="#00365D"/>
<path d="M73.9951 92.8743H60.2344V96.3145H73.9951V103.195H77.4353V82.5537H73.9951V92.8743Z" fill="#00365D"/>
<path d="M47.3321 39.5514C47.8424 39.5514 48.3412 39.4001 48.7655 39.1166C49.1899 38.8331 49.5206 38.4301 49.7158 37.9586C49.9111 37.4872 49.9622 36.9684 49.8627 36.4679C49.7631 35.9674 49.5174 35.5077 49.1565 35.1468C48.7957 34.786 48.336 34.5402 47.8355 34.4407C47.335 34.3411 46.8162 34.3922 46.3447 34.5875C45.8733 34.7828 45.4703 35.1135 45.1868 35.5378C44.9033 35.9621 44.752 36.461 44.752 36.9713C44.752 37.6556 45.0238 38.3118 45.5077 38.7957C45.9915 39.2796 46.6478 39.5514 47.3321 39.5514Z" fill="#00365D"/>
<path d="M62.8145 39.5514C63.3248 39.5514 63.8237 39.4001 64.248 39.1166C64.6723 38.8331 65.003 38.4301 65.1983 37.9586C65.3935 37.4872 65.4446 36.9684 65.3451 36.4679C65.2455 35.9674 64.9998 35.5077 64.639 35.1468C64.2781 34.786 63.8184 34.5402 63.3179 34.4407C62.8174 34.3411 62.2986 34.3922 61.8271 34.5875C61.3557 34.7828 60.9527 35.1135 60.6692 35.5378C60.3857 35.9621 60.2344 36.461 60.2344 36.9713C60.2344 37.6556 60.5062 38.3118 60.9901 38.7957C61.474 39.2796 62.1302 39.5514 62.8145 39.5514Z" fill="#00365D"/>
<path d="M49.9128 84.2734H46.4727V87.7136H49.9128V84.2734Z" fill="#00365D"/>
<path d="M49.9128 99.7544H46.4727V103.195H49.9128V99.7544Z" fill="#00365D"/>
<path d="M54.0599 49.8717H51.6328V53.3119H54.0599C55.8547 53.3082 57.6262 52.9051 59.246 52.1319L57.7804 49.0186C56.6189 49.5756 55.348 49.867 54.0599 49.8717Z" fill="#00365D"/>
<path fill-rule="evenodd" clip-rule="evenodd" d="M29.2705 65.3994V55.0324C29.2731 53.5682 28.8078 52.1414 27.9425 50.9602C27.0772 49.7791 25.8571 48.9053 24.4602 48.4663C23.0633 48.0273 21.5627 48.046 20.1773 48.5199C18.7918 48.9937 17.594 49.8978 16.7585 51.1003C15.8531 49.8821 14.5694 48.9983 13.1083 48.5872C11.6471 48.1761 10.091 48.2608 8.68309 48.8281C7.27523 49.3954 6.09508 50.4133 5.32722 51.7226C4.55936 53.0319 4.24707 54.5588 4.43921 56.0645C4.43921 56.0868 4.45125 56.1075 4.45469 56.1298L8.44704 85.3612L7.7934 86.075L12.0059 85.9942L8.66893 61.5533C9.49101 61.8929 10.3716 62.0682 11.2611 62.0693C11.5532 62.0688 11.845 62.0504 12.1349 62.0143C13.356 61.8565 14.5116 61.3709 15.4788 60.609L18.9499 85.9942H22.4297L19.005 60.9857C20.0393 61.5975 21.22 61.9178 22.4217 61.9127C23.6234 61.9075 24.8013 61.5771 25.8303 60.9564V85.9942H29.2705V69.0632V65.3994ZM7.85704 55.6087L7.86908 55.7015H7.87424C7.97076 56.3533 8.2524 56.9636 8.68567 57.4599C9.11894 57.9562 9.68562 58.3177 10.3183 58.5014C10.9511 58.685 11.6232 58.6831 12.2549 58.4959C12.8866 58.3087 13.4512 57.944 13.8817 57.4453C14.3121 56.9465 14.5903 56.3346 14.6832 55.6824C14.776 55.0301 14.6796 54.3649 14.4054 53.7658C14.1312 53.1667 13.6908 52.659 13.1364 52.303C12.5821 51.9469 11.9372 51.7575 11.2783 51.7574C11.1305 51.7572 10.9829 51.7663 10.8363 51.7849C9.93554 51.9 9.11689 52.3666 8.55881 53.0829C8.00072 53.7992 7.74846 54.7071 7.85704 55.6087ZM20.4789 57.8928C21.0446 58.2709 21.7097 58.4726 22.3901 58.4726C23.3025 58.4726 24.1776 58.1102 24.8227 57.465C25.4679 56.8198 25.8303 55.9448 25.8303 55.0324C25.8303 54.352 25.6286 53.6869 25.2505 53.1211C24.8725 52.5554 24.3353 52.1145 23.7066 51.8541C23.078 51.5937 22.3863 51.5256 21.719 51.6583C21.0517 51.7911 20.4387 52.1187 19.9576 52.5998C19.4764 53.081 19.1488 53.6939 19.016 54.3613C18.8833 55.0286 18.9514 55.7203 19.2118 56.3489C19.4722 56.9775 19.9131 57.5148 20.4789 57.8928Z" fill="#D29970"/>
</svg>
