<svg width="97" height="101" viewBox="0 0 97 101" fill="none" xmlns="http://www.w3.org/2000/svg">
<path d="M83.1866 73.7363L82.2365 76.6972C89.4552 79.0112 93.5964 81.8726 93.5964 84.5473C93.5964 90.4318 75.0753 96.988 48.4988 96.988C21.9223 96.988 3.40119 90.4318 3.40119 84.5473C3.40119 81.8726 7.5424 79.0112 14.7611 76.6972L13.8125 73.7363C4.83965 76.6117 0.291016 80.249 0.291016 84.5473C0.291016 94.6476 25.1289 100.098 48.4988 100.098C71.8687 100.098 96.7066 94.6476 96.7066 84.5473C96.7066 80.249 92.1564 76.6117 83.1866 73.7363Z" fill="#D29970"/>
<path d="M43.8328 82.9922H40.7227V86.1024H43.8328V82.9922Z" fill="#D29970"/>
<path d="M50.0535 82.9922H46.9434V86.1024H50.0535V82.9922Z" fill="#D29970"/>
<path d="M56.2742 82.9922H53.1641V86.1024H56.2742V82.9922Z" fill="#D29970"/>
<path d="M18.8552 85.0899L21.9437 76.7718H26.1128L33.683 62.3203C36.9394 63.9843 40.4026 65.0744 44.0213 65.5673C44.5671 67.5392 46.357 68.9963 48.4984 68.9963C50.6397 68.9963 52.4296 67.5376 52.9755 65.5673C56.5942 65.0744 60.0573 63.9843 63.3121 62.3203L70.8839 76.7718H75.0546L78.143 85.0899L81.0588 84.0061L61.0324 30.088C61.9592 28.2203 62.4942 26.1225 62.4942 23.8987C62.4942 17.8199 58.5909 12.6476 53.1636 10.7193V5.23765C53.1636 3.99358 52.6784 2.82104 51.7983 1.9393C50.0364 0.175831 46.9619 0.175831 45.2 1.9393C44.3183 2.81948 43.8331 3.99202 43.8331 5.23765V10.7193C38.4058 12.6461 34.5026 17.8183 34.5026 23.8987C34.5026 26.1225 35.0375 28.2188 35.9643 30.088L15.9395 84.0045L18.8552 85.0899ZM48.4984 65.8861C47.6415 65.8861 46.9433 65.1895 46.9433 64.3311C46.9433 63.4726 47.6415 62.776 48.4984 62.776C49.3568 62.776 50.0535 63.4726 50.0535 64.3311C50.0535 65.1895 49.3568 65.8861 48.4984 65.8861ZM52.7655 62.4603C52.0424 60.8181 50.4065 59.6658 48.4984 59.6658C46.5918 59.6658 44.9543 60.8181 44.2312 62.4603C41.0479 62.0015 37.9984 61.0296 35.1261 59.5647L43.2188 44.1149H53.7779L61.8706 59.5647C58.9983 61.0296 55.9488 62.0015 52.7655 62.4603ZM73.8976 73.6616H72.7655L55.6595 41.0047H50.0535V37.8028C53.5493 37.414 56.6501 35.7283 58.8864 33.2448L73.8976 73.6616ZM46.9433 5.23765C46.9433 4.82244 47.105 4.43211 47.3989 4.1382C47.9867 3.55038 49.01 3.55193 49.5963 4.1382C49.8917 4.43211 50.0535 4.82244 50.0535 5.23765V9.99467C49.5418 9.93713 49.024 9.90292 48.4984 9.90292C47.9727 9.90292 47.4549 9.93713 46.9433 9.99467V5.23765ZM48.4984 13.0131C54.4995 13.0131 59.384 17.8961 59.384 23.8987C59.384 29.9014 54.4995 34.7844 48.4984 34.7844C42.4957 34.7844 37.6127 29.9014 37.6127 23.8987C37.6127 17.8961 42.4957 13.0131 48.4984 13.0131ZM46.9433 37.8028V41.0047H41.3372L24.2312 73.6616H23.0991L38.1104 33.2448C40.3466 35.7283 43.4474 37.414 46.9433 37.8028Z" fill="#00365D"/>
<path d="M48.4997 30.1194C51.9302 30.1194 54.72 27.3296 54.72 23.8991C54.72 20.4685 51.9302 17.6787 48.4997 17.6787C45.0691 17.6787 42.2793 20.4685 42.2793 23.8991C42.2793 27.3296 45.0691 30.1194 48.4997 30.1194ZM48.4997 20.7889C50.2149 20.7889 51.6098 22.1838 51.6098 23.8991C51.6098 25.6143 50.2149 27.0092 48.4997 27.0092C46.7844 27.0092 45.3895 25.6143 45.3895 23.8991C45.3895 22.1838 46.7844 20.7889 48.4997 20.7889Z" fill="#D29970"/>
<path d="M81.1543 33.2295H78.0441C78.0441 39.6831 76.0023 45.8117 72.1348 50.956L74.6229 52.8236C78.8963 47.1382 81.1543 40.3611 81.1543 33.2295Z" fill="#D29970"/>
</svg>
