<svg width="89" height="85" viewBox="0 0 89 85" fill="none" xmlns="http://www.w3.org/2000/svg">
<path d="M40.2215 55.3819C40.1115 55.3819 40.0015 55.3719 39.8915 55.3519C38.8015 55.1719 38.0615 54.1419 38.2415 53.0519C40.3415 40.2519 35.2815 27.0819 33.3415 23.4719C32.8215 22.5019 33.1815 21.2819 34.1515 20.7619C35.1215 20.2419 36.3415 20.6019 36.8615 21.5719C39.1215 25.7719 44.4815 39.7219 42.1915 53.6919C42.0415 54.6819 41.1915 55.3819 40.2215 55.3819Z" fill="#D29970"/>
<path d="M32.8308 25.1819C31.9308 25.1819 30.9708 25.0119 30.0008 24.6519C26.2308 23.2819 22.7708 19.5719 21.4108 15.4119C18.8008 7.47193 20.5808 1.64193 20.6608 1.40193C20.9808 0.381929 22.0408 -0.198072 23.0708 0.0619284C23.3408 0.131928 29.6208 1.80193 34.9008 7.26193C38.2508 10.7119 39.3208 15.6819 38.9108 19.0619C38.6208 21.4619 37.5908 23.3219 36.0308 24.3019C35.0808 24.8919 34.0008 25.1819 32.8308 25.1819ZM24.1008 4.68193C23.8808 6.72193 23.8708 10.1219 25.2008 14.1619C26.3008 17.5119 29.1308 20.0819 31.3608 20.8919C31.9708 21.1119 33.1008 21.4019 33.9008 20.9119C34.4008 20.6019 34.7908 19.7119 34.9308 18.5819C35.2208 16.2219 34.4308 12.5419 32.0208 10.0519C29.2508 7.19193 26.1008 5.53193 24.1008 4.68193Z" fill="#D29970"/>
<path d="M62.0512 40.8017C61.2412 40.8017 60.4912 40.7317 59.8212 40.6217C55.1112 39.8717 50.8612 36.7817 48.1512 32.1517C45.5612 27.7117 44.9312 22.3417 46.4812 17.7717C47.5612 14.5717 50.2212 10.1817 56.7712 7.48169C65.4812 3.88169 86.0212 6.53169 86.8912 6.64169C87.4812 6.72169 88.0112 7.06169 88.3312 7.57169C88.6512 8.08169 88.7212 8.70169 88.5312 9.27169C88.2612 10.0717 81.8012 28.9317 74.2812 35.5717C69.6012 39.6917 65.3012 40.8017 62.0512 40.8017ZM70.7112 9.58169C65.9612 9.58169 61.2312 9.96169 58.2912 11.1717C54.2112 12.8617 51.4312 15.5817 50.2612 19.0517C49.0812 22.5417 49.5812 26.6917 51.6012 30.1417C53.6712 33.6817 56.9812 36.1317 60.4512 36.6817C64.1112 37.2617 67.8712 35.8817 71.6112 32.5717C76.8912 27.9017 81.9212 15.5217 83.8712 10.3217C80.9512 10.0117 75.8212 9.58169 70.7112 9.58169Z" fill="#D29970"/>
<path d="M65.3305 31.942C65.1805 31.942 65.0305 31.912 64.8805 31.832L57.0205 27.862C56.5305 27.612 56.3305 27.012 56.5805 26.522C56.8305 26.032 57.4305 25.832 57.9205 26.082L65.7805 30.052C66.2705 30.302 66.4705 30.902 66.2205 31.392C66.0505 31.742 65.6905 31.942 65.3305 31.942Z" fill="#D29970"/>
<path d="M61.4004 25.1822C60.8504 25.1822 60.4004 24.7322 60.4004 24.1822V16.7222C60.4004 16.1722 60.8504 15.7222 61.4004 15.7222C61.9504 15.7222 62.4004 16.1722 62.4004 16.7222V24.1822C62.4004 24.7322 61.9504 25.1822 61.4004 25.1822Z" fill="#D29970"/>
<path d="M41.0504 42.412C40.7504 42.412 40.4404 42.342 40.1504 42.192C39.1704 41.692 38.7704 40.492 39.2704 39.502C41.6404 34.832 47.4604 30.522 47.7104 30.342C47.7504 30.312 47.7904 30.282 47.8404 30.252L73.5004 14.302C74.4404 13.722 75.6704 14.002 76.2504 14.942C76.8304 15.882 76.5504 17.112 75.6104 17.692L50.0204 33.612C49.4504 34.042 44.6604 37.712 42.8304 41.312C42.4804 42.012 41.7804 42.412 41.0504 42.412Z" fill="#D29970"/>
<path d="M12.2798 84.6819C12.2398 84.6819 12.1898 84.6819 12.1498 84.6819C11.5298 84.6419 10.9698 84.3219 10.6198 83.8019L0.339845 68.5719C-0.210155 67.7519 -0.0801549 66.6519 0.639845 65.9819L13.7698 53.8919C13.8398 53.8219 13.9198 53.7619 14.0098 53.7019C21.1398 48.8919 29.4098 51.4019 29.7598 51.5119C33.0898 52.3919 39.6898 52.6119 39.7598 52.6119H51.0598C53.6598 52.6119 55.9798 53.7119 57.4698 55.4319L76.3298 47.6819C80.2498 45.6419 84.7498 46.7419 86.6198 50.2219C88.5398 53.8019 86.9498 58.4119 83.0798 60.4919L52.0298 77.1319C51.8798 77.2119 51.7298 77.2719 51.5698 77.3119L49.9298 77.7219C49.7898 77.7619 49.6398 77.7719 49.4998 77.7819L20.8498 78.5619C20.1098 78.8419 17.1998 80.1419 13.7898 84.0119C13.3998 84.4319 12.8498 84.6819 12.2798 84.6819ZM4.61985 67.7619L12.5498 79.5019C16.5798 75.6119 19.7998 74.6719 19.9498 74.6319C20.1098 74.5919 20.2698 74.5619 20.4398 74.5619L49.1698 73.7819L50.3598 73.4819L81.1798 56.9619C83.0698 55.9419 83.9498 53.7219 83.0798 52.1119C82.2498 50.5719 80.0698 50.2019 78.1098 51.2519C78.0498 51.2819 77.9898 51.3119 77.9198 51.3419L59.1298 59.0719C59.1698 59.3719 59.1898 59.6819 59.1898 59.9919C59.1898 64.0619 55.5298 67.3619 51.0398 67.3619H35.3298C34.2298 67.3619 33.3298 66.4619 33.3298 65.3619C33.3298 64.2619 34.2298 63.3619 35.3298 63.3619H51.0498C53.2998 63.3619 55.1998 61.8219 55.1998 59.9919C55.1998 58.1619 53.2998 56.6219 51.0498 56.6219H39.6898C39.3398 56.6119 32.5098 56.3819 28.6498 55.3619C28.4998 55.3219 21.8598 53.3419 16.3698 56.9419L4.61985 67.7619Z" fill="#00365D"/>
</svg>
