<svg width="55" height="111" viewBox="0 0 55 111" fill="none" xmlns="http://www.w3.org/2000/svg">
<path d="M0.617188 110.022H55C54.6209 108.95 53.9186 108.021 52.9899 107.365C52.0613 106.708 50.9518 106.355 49.8144 106.355H5.80646C4.66839 106.354 3.55815 106.707 2.62875 107.364C1.69935 108.02 0.996543 108.949 0.617188 110.022Z" fill="#D29970"/>
<path d="M6.82058 51.5376C6.45043 51.7221 6.15352 52.0263 5.97805 52.4008C5.80259 52.7753 5.75889 53.1981 5.85404 53.6006C5.94919 54.0031 6.17761 54.3616 6.5022 54.6178C6.82679 54.8741 7.22849 55.0132 7.64207 55.0124H20.4777V60.1778L4.48633 102.814C4.92344 102.741 5.36526 102.698 5.8084 102.688H8.45254L14.2176 87.3142L24.5741 94.4362L12.5746 102.688H19.0456L27.8124 96.6586L36.5773 102.688H43.0501L31.047 94.4362L41.4035 87.3142L47.1704 102.688H49.8163C50.2585 102.7 50.6992 102.744 51.1347 102.822L35.147 60.1778V55.0124H47.9827C48.3961 55.0128 48.7975 54.8734 49.1218 54.617C49.4461 54.3606 49.6742 54.0021 49.7691 53.5997C49.864 53.1973 49.8201 52.7747 49.6447 52.4003C49.4692 52.026 49.1723 51.722 48.8023 51.5376L35.147 44.7108V40.3431H47.9827C48.3961 40.3434 48.7975 40.2041 49.1218 39.9477C49.4461 39.6912 49.6742 39.3328 49.7691 38.9304C49.864 38.528 49.8201 38.1054 49.6447 37.731C49.4692 37.3567 49.1723 37.0527 48.8023 36.8683L35.147 30.0415V25.6737H47.9827C48.3961 25.6741 48.7975 25.5348 49.1218 25.2784C49.4461 25.0219 49.6742 24.6634 49.7691 24.2611C49.864 23.8587 49.8201 23.436 49.6447 23.0617C49.4692 22.6874 49.1723 22.3834 48.8023 22.1989L34.7803 15.187L29.5269 1.19066C29.3959 0.840949 29.1613 0.539556 28.8544 0.326783C28.5476 0.11401 28.183 0 27.8096 0C27.4362 0 27.0717 0.11401 26.7648 0.326783C26.4579 0.539556 26.2233 0.840949 26.0924 1.19066L20.8444 15.1852L6.82058 22.1989C6.45043 22.3834 6.15352 22.6876 5.97805 23.0621C5.80259 23.4366 5.75889 23.8595 5.85404 24.262C5.94919 24.6644 6.17761 25.0229 6.5022 25.2792C6.82679 25.5355 7.22849 25.6745 7.64207 25.6737H20.4777V30.0397L6.82425 36.8683C6.45439 37.0526 6.15763 37.3565 5.98212 37.7306C5.8066 38.1048 5.76262 38.5272 5.85729 38.9295C5.95197 39.3318 6.17975 39.6902 6.50371 39.9468C6.82767 40.2034 7.22881 40.343 7.64207 40.3431H20.4777V44.709L6.82058 51.5376ZM35.147 19.4723L40.2134 22.0064H35.147V19.4723ZM35.147 34.1416L40.2134 36.6757H35.147V34.1416ZM35.147 48.8109L40.2134 51.345H35.147V48.8109ZM15.4058 51.345L20.4777 48.8109V51.345H15.4058ZM27.8124 92.2082L16.3813 84.351H39.2434L27.8124 92.2082ZM22.7606 80.6837L27.8124 75.0708L32.8604 80.6837H22.7606ZM38.917 80.6837H37.7967L30.2787 72.3295L34.166 68.013L38.917 80.6837ZM27.8124 7.05655L30.6656 14.6718H24.9537L27.8124 7.05655ZM24.145 18.3391H31.4797V22.0064H24.145V18.3391ZM24.145 25.6737H31.4797V29.3411H24.145V25.6737ZM24.145 33.0084H31.4797V36.6757H24.145V33.0084ZM24.145 40.3431H31.4797V44.0104H24.145V40.3431ZM24.145 47.6777H31.4797V51.345H24.145V47.6777ZM24.145 55.0124H31.4797V58.6797H24.145V55.0124ZM23.5821 62.347H32.0445L32.7174 64.1422L27.8124 69.5863L22.9092 64.1367L23.5821 62.347ZM15.4058 22.0064L20.4777 19.4723V22.0064H15.4058ZM15.4058 36.6757L20.4777 34.1416V36.6757H15.4058ZM21.4569 68.0094L25.3443 72.3277L17.8226 80.6837H16.7022L21.4569 68.0094Z" fill="#00365D"/>
<path fill-rule="evenodd" clip-rule="evenodd" d="M24.1449 25.6739H20.4776H7.64191C7.22833 25.6747 6.82663 25.5356 6.50204 25.2793C6.17745 25.023 5.94903 24.6646 5.85388 24.2621C5.75873 23.8596 5.80243 23.4368 5.97789 23.0623C6.15336 22.6877 6.45027 22.3835 6.82042 22.1991L20.8443 15.1853L24.9535 14.6719H30.6654L34.7801 15.1871L48.8022 22.1991C49.1722 22.3835 49.469 22.6875 49.6445 23.0618C49.82 23.4362 49.8638 23.8588 49.7689 24.2612C49.674 24.6636 49.4459 25.022 49.1216 25.2785C48.7974 25.5349 48.3959 25.6742 47.9825 25.6739H35.1469H31.4795H24.1449ZM35.1469 19.4724L40.2133 22.0065H35.1469V19.4724ZM31.4795 18.3392V22.0065H24.1449V18.3392H31.4795ZM15.4056 22.0065L20.4776 19.4724V22.0065H15.4056Z" fill="#D29970"/>
</svg>
