<svg width="91" height="108" viewBox="0 0 91 108" fill="none" xmlns="http://www.w3.org/2000/svg">
<path d="M8.42561 57.2753H38.7623C39.6943 57.2753 40.4477 56.522 40.4477 55.5899V48.8485C40.4477 47.9164 39.6943 47.1631 38.7623 47.1631H8.42561C7.4936 47.1631 6.74023 47.9164 6.74023 48.8485V55.5899C6.74023 56.522 7.4936 57.2753 8.42561 57.2753ZM10.111 50.5338H37.0769V53.9046H10.111V50.5338Z" fill="#00365D"/>
<path d="M35.394 60.6465C32.6064 60.6465 30.3379 62.915 30.3379 65.7026C30.3379 68.4902 32.6064 70.7587 35.394 70.7587C38.1816 70.7587 40.4501 68.4902 40.4501 65.7026C40.4501 62.915 38.1816 60.6465 35.394 60.6465ZM35.394 67.388C34.4637 67.388 33.7086 66.6329 33.7086 65.7026C33.7086 64.7723 34.4637 64.0172 35.394 64.0172C36.3243 64.0172 37.0794 64.7723 37.0794 65.7026C37.0794 66.6329 36.3243 67.388 35.394 67.388Z" fill="#D29970"/>
<path d="M23.5952 60.6465C20.8076 60.6465 18.5391 62.915 18.5391 65.7026C18.5391 68.4902 20.8076 70.7587 23.5952 70.7587C26.3828 70.7587 28.6513 68.4902 28.6513 65.7026C28.6513 62.915 26.3828 60.6465 23.5952 60.6465ZM23.5952 67.388C22.6649 67.388 21.9098 66.6329 21.9098 65.7026C21.9098 64.7723 22.6649 64.0172 23.5952 64.0172C24.5255 64.0172 25.2806 64.7723 25.2806 65.7026C25.2806 66.6329 24.5255 67.388 23.5952 67.388Z" fill="#D29970"/>
<path d="M11.7964 70.7587C14.584 70.7587 16.8525 68.4902 16.8525 65.7026C16.8525 62.915 14.584 60.6465 11.7964 60.6465C9.00875 60.6465 6.74023 62.915 6.74023 65.7026C6.74023 68.4902 9.00875 70.7587 11.7964 70.7587ZM11.7964 64.0172C12.7267 64.0172 13.4817 64.7723 13.4817 65.7026C13.4817 66.6329 12.7267 67.388 11.7964 67.388C10.866 67.388 10.111 66.6329 10.111 65.7026C10.111 64.7723 10.866 64.0172 11.7964 64.0172Z" fill="#D29970"/>
<path d="M35.394 72.4438C32.6064 72.4438 30.3379 74.7124 30.3379 77.5C30.3379 80.2876 32.6064 82.5561 35.394 82.5561C38.1816 82.5561 40.4501 80.2876 40.4501 77.5C40.4501 74.7124 38.1816 72.4438 35.394 72.4438ZM35.394 79.1853C34.4637 79.1853 33.7086 78.4303 33.7086 77.5C33.7086 76.5696 34.4637 75.8146 35.394 75.8146C36.3243 75.8146 37.0794 76.5696 37.0794 77.5C37.0794 78.4303 36.3243 79.1853 35.394 79.1853Z" fill="#D29970"/>
<path d="M23.5952 72.4438C20.8076 72.4438 18.5391 74.7124 18.5391 77.5C18.5391 80.2876 20.8076 82.5561 23.5952 82.5561C26.3828 82.5561 28.6513 80.2876 28.6513 77.5C28.6513 74.7124 26.3828 72.4438 23.5952 72.4438ZM23.5952 79.1853C22.6649 79.1853 21.9098 78.4303 21.9098 77.5C21.9098 76.5696 22.6649 75.8146 23.5952 75.8146C24.5255 75.8146 25.2806 76.5696 25.2806 77.5C25.2806 78.4303 24.5255 79.1853 23.5952 79.1853Z" fill="#D29970"/>
<path d="M11.7964 82.5561C14.584 82.5561 16.8525 80.2876 16.8525 77.5C16.8525 74.7124 14.584 72.4438 11.7964 72.4438C9.00875 72.4438 6.74023 74.7124 6.74023 77.5C6.74023 80.2876 9.00875 82.5561 11.7964 82.5561ZM11.7964 75.8146C12.7267 75.8146 13.4817 76.5696 13.4817 77.5C13.4817 78.4303 12.7267 79.1853 11.7964 79.1853C10.866 79.1853 10.111 78.4303 10.111 77.5C10.111 76.5696 10.866 75.8146 11.7964 75.8146Z" fill="#D29970"/>
<path d="M35.394 84.2417C32.6064 84.2417 30.3379 86.5102 30.3379 89.2978C30.3379 92.0854 32.6064 94.3539 35.394 94.3539C38.1816 94.3539 40.4501 92.0854 40.4501 89.2978C40.4501 86.5102 38.1816 84.2417 35.394 84.2417ZM35.394 90.9832C34.4637 90.9832 33.7086 90.2281 33.7086 89.2978C33.7086 88.3675 34.4637 87.6124 35.394 87.6124C36.3243 87.6124 37.0794 88.3675 37.0794 89.2978C37.0794 90.2281 36.3243 90.9832 35.394 90.9832Z" fill="#D29970"/>
<path d="M23.5952 84.2417C20.8076 84.2417 18.5391 86.5102 18.5391 89.2978C18.5391 92.0854 20.8076 94.3539 23.5952 94.3539C26.3828 94.3539 28.6513 92.0854 28.6513 89.2978C28.6513 86.5102 26.3828 84.2417 23.5952 84.2417ZM23.5952 90.9832C22.6649 90.9832 21.9098 90.2281 21.9098 89.2978C21.9098 88.3675 22.6649 87.6124 23.5952 87.6124C24.5255 87.6124 25.2806 88.3675 25.2806 89.2978C25.2806 90.2281 24.5255 90.9832 23.5952 90.9832Z" fill="#D29970"/>
<path d="M11.7964 94.3539C14.584 94.3539 16.8525 92.0854 16.8525 89.2978C16.8525 86.5102 14.584 84.2417 11.7964 84.2417C9.00875 84.2417 6.74023 86.5102 6.74023 89.2978C6.74023 92.0854 9.00875 94.3539 11.7964 94.3539ZM11.7964 87.6124C12.7267 87.6124 13.4817 88.3675 13.4817 89.2978C13.4817 90.2281 12.7267 90.9832 11.7964 90.9832C10.866 90.9832 10.111 90.2281 10.111 89.2978C10.111 88.3675 10.866 87.6124 11.7964 87.6124Z" fill="#D29970"/>
<path d="M62.333 25.2871H62.2066C61.6774 21.1428 59.2184 17.4468 55.5915 15.335V14.6255C55.5915 14.5395 55.5561 14.4637 55.5426 14.3811C55.5241 14.2581 55.514 14.135 55.4701 14.0187C55.4297 13.9126 55.3623 13.8266 55.2999 13.7305C55.2443 13.6429 55.1988 13.5536 55.1263 13.4777C55.0336 13.3783 54.9207 13.3109 54.8078 13.2367C54.7454 13.1963 54.6999 13.1356 54.6308 13.1036C54.614 13.0952 54.5954 13.0901 54.5803 13.0817C54.5668 13.0766 54.555 13.0716 54.5415 13.0665C50.9685 11.3929 46.7517 11.3912 43.1568 13.0614C43.1484 13.0648 43.1399 13.0665 43.1315 13.0716C43.113 13.08 43.0961 13.085 43.0776 13.0935C43.0001 13.1289 42.9495 13.1963 42.8804 13.2418C42.7742 13.3126 42.6664 13.3749 42.5787 13.4659C42.5062 13.5452 42.4607 13.6378 42.4034 13.7255C42.3428 13.8199 42.2754 13.9041 42.2332 14.0103C42.1894 14.1249 42.181 14.248 42.1607 14.371C42.1473 14.4553 42.1119 14.5311 42.1119 14.617V15.3283C38.4782 17.44 36.0142 21.1378 35.4833 25.2855H35.367C34.435 25.2855 33.6816 26.0388 33.6816 26.9708V32.0269C33.6816 32.959 34.435 33.7123 35.367 33.7123H62.333C63.265 33.7123 64.0183 32.959 64.0183 32.0269V26.9708C64.0183 26.0405 63.265 25.2871 62.333 25.2871ZM42.1119 19.4355V20.2277C42.1119 21.1597 42.8652 21.913 43.7972 21.913C44.7293 21.913 45.4826 21.1597 45.4826 20.2277V15.7513C47.6584 14.9861 50.055 14.9895 52.2207 15.7547V20.2277C52.2207 21.1597 52.9741 21.913 53.9061 21.913C54.8381 21.913 55.5915 21.1597 55.5915 20.2277V19.4456C57.2785 20.9675 58.4128 23.0321 58.7987 25.2871H38.8911C39.2804 23.0271 40.4181 20.9574 42.1119 19.4355ZM60.6476 30.3433H37.0524V28.6579H60.6476V30.3433Z" fill="#D29970"/>
<path d="M72.4608 47.1872H77.5169C78.4489 47.1872 79.2023 46.4338 79.2023 45.5018C79.2023 44.5698 78.4489 43.8164 77.5169 43.8164H72.4608C71.5288 43.8164 70.7754 44.5698 70.7754 45.5018C70.7754 46.4338 71.5288 47.1872 72.4608 47.1872Z" fill="#00365D"/>
<path d="M77.5184 52.2437H70.7752C69.8432 52.2437 69.0898 52.997 69.0898 53.929C69.0898 54.861 69.8432 55.6144 70.7752 55.6144H77.5184C78.4504 55.6144 79.2038 54.861 79.2038 53.929C79.2038 52.997 78.4504 52.2437 77.5184 52.2437Z" fill="#00365D"/>
<path d="M77.5169 60.6699H72.4608C71.5288 60.6699 70.7754 61.4233 70.7754 62.3553C70.7754 63.2873 71.5288 64.0407 72.4608 64.0407H77.5169C78.4489 64.0407 79.2023 63.2873 79.2023 62.3553C79.2023 61.4233 78.4489 60.6699 77.5169 60.6699Z" fill="#00365D"/>
<path d="M77.5193 69.0972H74.1502C73.2182 69.0972 72.4648 69.8505 72.4648 70.7825C72.4648 71.7146 73.2182 72.4679 74.1502 72.4679H77.5193C78.4513 72.4679 79.2046 71.7146 79.2046 70.7825C79.2046 69.8505 78.4513 69.0972 77.5193 69.0972Z" fill="#00365D"/>
<path d="M77.5169 77.5239H72.4608C71.5288 77.5239 70.7754 78.2773 70.7754 79.2093C70.7754 80.1413 71.5288 80.8947 72.4608 80.8947H77.5169C78.4489 80.8947 79.2023 80.1413 79.2023 79.2093C79.2023 78.2773 78.4489 77.5239 77.5169 77.5239Z" fill="#00365D"/>
<path d="M77.5184 85.9507H70.7752C69.8432 85.9507 69.0898 86.704 69.0898 87.6361C69.0898 88.5681 69.8432 89.3214 70.7752 89.3214H77.5184C78.4504 89.3214 79.2038 88.5681 79.2038 87.6361C79.2038 86.704 78.4504 85.9507 77.5184 85.9507Z" fill="#00365D"/>
<path d="M90.9966 13.4729C90.9949 13.2588 90.9528 13.0465 90.8702 12.8459C90.7843 12.6386 90.6612 12.4515 90.5045 12.2965L78.712 0.495499C78.5569 0.33876 78.3698 0.215728 78.1625 0.129774C77.9569 0.0438197 77.7378 0 77.5187 0H23.5952C22.6632 0 21.9098 0.753361 21.9098 1.68537V40.422H5.05612C2.26851 40.422 0 42.6905 0 45.4781V52.2196V96.0393V102.781C0 105.568 2.26851 107.837 5.05612 107.837H42.1343C44.9219 107.837 47.1904 105.568 47.1904 102.781V101.089H89.3146C90.2466 101.089 91 100.335 91 99.4033V13.4931C91 13.4931 91 13.4931 91 13.4914V13.4897C91 13.483 90.9966 13.4779 90.9966 13.4729ZM79.2041 5.75555L85.2478 11.8043H79.2041V5.75555ZM3.37074 45.4781C3.37074 44.5478 4.12579 43.7927 5.05612 43.7927H42.1343C43.0646 43.7927 43.8197 44.5478 43.8197 45.4781V52.2196V96.0393C43.8197 96.9696 43.0646 97.7246 42.1343 97.7246H5.05612C4.12579 97.7246 3.37074 96.9696 3.37074 96.0393V52.2196V45.4781ZM42.1343 104.466H5.05612C4.12579 104.466 3.37074 103.711 3.37074 102.781V100.784C3.89995 100.972 4.46118 101.095 5.05612 101.095H42.1343C42.7292 101.095 43.2905 100.974 43.8197 100.784V102.781C43.8197 103.711 43.0646 104.466 42.1343 104.466ZM47.1904 96.0393V89.3214H62.3453C63.2773 89.3214 64.0307 88.568 64.0307 87.636C64.0307 86.704 63.2773 85.9506 62.3453 85.9506H47.1904V80.8945H62.3453C63.2773 80.8945 64.0307 80.1411 64.0307 79.2091C64.0307 78.2771 63.2773 77.5238 62.3453 77.5238H47.1904V72.4676H62.3453C63.2773 72.4676 64.0307 71.7143 64.0307 70.7823C64.0307 69.8503 63.2773 69.0969 62.3453 69.0969H47.1904V64.0408H62.3453C63.2773 64.0408 64.0307 63.2874 64.0307 62.3554C64.0307 61.4234 63.2773 60.67 62.3453 60.67H47.1904V55.6139H62.3453C63.2773 55.6139 64.0307 54.8606 64.0307 53.9285C64.0307 52.9965 63.2773 52.2432 62.3453 52.2432H47.1904V52.2196V47.1871H62.3453C63.2773 47.1871 64.0307 46.4337 64.0307 45.5017C64.0307 44.5697 63.2773 43.8163 62.3453 43.8163H46.8871C46.1944 41.8461 44.3354 40.422 42.1343 40.422H25.2806V3.37074H75.8333V13.4897C75.8333 14.4217 76.5867 15.1751 77.5187 15.1751H87.6293V97.7196H47.1904V96.0393Z" fill="#00365D"/>
</svg>
