<svg width="75" height="102" viewBox="0 0 75 102" fill="none" xmlns="http://www.w3.org/2000/svg">
<path d="M59.3541 17.6869C59.7999 17.6869 60.2275 17.5098 60.5427 17.1946C60.8579 16.8794 61.035 16.4518 61.035 16.006V10.9635H72.8009C73.2467 10.9635 73.6742 10.7864 73.9895 10.4712C74.3047 10.156 74.4818 9.72844 74.4818 9.28265V2.55926C74.4818 2.11348 74.3047 1.68595 73.9895 1.37073C73.6742 1.05551 73.2467 0.878418 72.8009 0.878418H35.8223C35.3765 0.878418 34.949 1.05551 34.6338 1.37073C34.3185 1.68595 34.1415 2.11348 34.1415 2.55926V4.24011H19.0138C15.8944 4.24367 12.9038 5.48443 10.698 7.6902C8.49223 9.89597 7.25147 12.8866 7.24791 16.006V44.5804H5.56706C5.14282 44.5792 4.73379 44.7384 4.42204 45.0261C4.11029 45.3139 3.91888 45.7089 3.88621 46.1318L0.524522 89.8339C0.506653 90.0652 0.536886 90.2978 0.613318 90.5169C0.68975 90.736 0.810724 90.9369 0.968623 91.107C1.12652 91.277 1.31792 91.4126 1.53077 91.505C1.74362 91.5974 1.97331 91.6448 2.20537 91.6441H22.3755C22.6076 91.6448 22.8373 91.5974 23.0501 91.505C23.263 91.4126 23.4544 91.277 23.6123 91.107C23.7702 90.9369 23.8911 90.736 23.9676 90.5169C24.044 90.2978 24.0742 90.0652 24.0564 89.8339L20.6947 46.1318C20.662 45.7089 20.4706 45.3139 20.1589 45.0261C19.8471 44.7384 19.4381 44.5792 19.0138 44.5804H17.333V16.006C17.333 15.5602 17.5101 15.1327 17.8253 14.8175C18.1405 14.5023 18.568 14.3252 19.0138 14.3252H34.1415V16.006C34.1415 16.4518 34.3185 16.8794 34.6338 17.1946C34.949 17.5098 35.3765 17.6869 35.8223 17.6869H39.184V21.0486H35.8223C35.3765 21.0486 34.949 21.2257 34.6338 21.5409C34.3185 21.8561 34.1415 22.2836 34.1415 22.7294V27.94C32.2445 28.3302 30.54 29.3623 29.3153 30.8626C28.0906 32.3629 27.4205 34.2395 27.4181 36.1762V96.6867C27.4181 98.024 27.9493 99.3066 28.895 100.252C29.8407 101.198 31.1232 101.729 32.4606 101.729H62.7158C64.0532 101.729 65.3358 101.198 66.2814 100.252C67.2271 99.3066 67.7584 98.024 67.7584 96.6867V36.1762C67.7559 34.2395 67.0859 32.3629 65.8612 30.8626C64.6365 29.3623 62.932 28.3302 61.035 27.94V22.7294C61.035 22.2836 60.8579 21.8561 60.5427 21.5409C60.2275 21.2257 59.7999 21.0486 59.3541 21.0486H55.9925V17.6869H59.3541ZM20.5602 88.2824H4.02068L7.12352 47.9421H17.4574L20.5602 88.2824ZM19.0138 10.9635C17.6765 10.9635 16.3939 11.4948 15.4482 12.4404C14.5026 13.3861 13.9713 14.6687 13.9713 16.006V44.5804H10.6096V16.006C10.6123 13.7779 11.4986 11.6418 13.0741 10.0663C14.6496 8.49077 16.7857 7.60447 19.0138 7.6018H34.1415V10.9635H19.0138ZM37.5031 4.24011H71.1201V7.6018H49.2691C48.9371 7.60233 48.6127 7.70054 48.3362 7.88419L43.2937 11.2459L45.1594 14.0428L49.7733 10.9635H57.6733V14.3252H37.5031V4.24011ZM64.3967 84.9207H44.2265V47.9421H64.3967V84.9207ZM64.3967 36.1762V44.5804H42.5457C42.0999 44.5804 41.6724 44.7575 41.3571 45.0727C41.0419 45.388 40.8648 45.8155 40.8648 46.2613V86.6016C40.8648 87.0474 41.0419 87.4749 41.3571 87.7901C41.6724 88.1053 42.0999 88.2824 42.5457 88.2824H64.3967V96.6867C64.3967 97.1325 64.2196 97.56 63.9044 97.8752C63.5892 98.1904 63.1616 98.3675 62.7158 98.3675H32.4606C32.0148 98.3675 31.5873 98.1904 31.2721 97.8752C30.9568 97.56 30.7798 97.1325 30.7798 96.6867V36.1762C30.7798 34.8388 31.311 33.5562 32.2567 32.6106C33.2023 31.6649 34.4849 31.1337 35.8223 31.1337H59.3541C60.6915 31.1337 61.9741 31.6649 62.9198 32.6106C63.8654 33.5562 64.3967 34.8388 64.3967 36.1762ZM57.6733 27.772H37.5031V24.4103H57.6733V27.772ZM52.6308 21.0486H42.5457V17.6869H52.6308V21.0486Z" fill="#00365D"/>
<path d="M12.2787 68.297L8.93714 67.9272L7.25629 83.0549C7.2303 83.2898 7.25413 83.5275 7.32624 83.7526C7.39835 83.9777 7.51711 84.185 7.67478 84.3611C7.83244 84.5371 8.02547 84.678 8.24125 84.7744C8.45703 84.8708 8.69071 84.9206 8.92706 84.9206H15.6504V81.5589H10.8046L12.2787 68.297Z" fill="#D29970"/>
<path d="M12.2914 61.3887H8.92969V64.7504H12.2914V61.3887Z" fill="#D29970"/>
<path fill-rule="evenodd" clip-rule="evenodd" d="M17.333 44.5806H13.9713H10.6096H7.24791H5.56706C5.14282 44.5793 4.73379 44.7385 4.42204 45.0263C4.11029 45.314 3.91888 45.709 3.88621 46.132L0.524522 89.834C0.506653 90.0654 0.536886 90.2979 0.613318 90.517C0.68975 90.7362 0.810724 90.9371 0.968623 91.1071C1.12652 91.2772 1.31792 91.4127 1.53077 91.5051C1.74362 91.5976 1.97331 91.645 2.20537 91.6443H22.3755C22.6076 91.645 22.8373 91.5976 23.0501 91.5051C23.263 91.4127 23.4544 91.2772 23.6123 91.1071C23.7702 90.9371 23.8911 90.7362 23.9676 90.517C24.044 90.2979 24.0742 90.0654 24.0564 89.834L20.6947 46.132C20.662 45.709 20.4706 45.314 20.1589 45.0263C19.8471 44.7385 19.4381 44.5793 19.0138 44.5806H17.333ZM4.02068 88.2826H20.5602L17.4574 47.9423H7.12352L4.02068 88.2826Z" fill="#D29970"/>
</svg>
