<svg width="98" height="106" viewBox="0 0 98 106" fill="none" xmlns="http://www.w3.org/2000/svg">
<path d="M19.9859 30.0793C17.6038 30.0793 15.4905 29.179 13.6982 27.4023C10.2719 24.0052 8.71094 17.7696 8.71094 13.4127C8.71094 12.3311 8.85891 11.2995 9.15277 10.347C9.44246 9.40707 10.4387 8.8798 11.3828 9.16637C12.3248 9.45606 12.8541 10.4554 12.5624 11.3974C12.3748 12.0091 12.2789 12.6875 12.2789 13.4127C12.2789 17.1683 13.6294 22.3098 16.2116 24.868C17.3371 25.9851 18.5146 26.5238 20.0381 26.5093C25.5422 26.4624 27.8264 17.9561 27.8264 13.4127C27.8264 12.6875 27.7305 12.0091 27.5429 11.3974C27.2512 10.4554 27.7805 9.45605 28.7225 9.16637C29.6708 8.87772 30.6628 9.405 30.9525 10.347C31.2464 11.2994 31.3944 12.3311 31.3944 13.4127C31.3944 20.2924 27.8805 30.0106 20.0672 30.0793C20.0401 30.0793 20.013 30.0793 19.9859 30.0793Z" fill="#00365D"/>
<path d="M10.8552 12.6572C9.97361 12.6572 9.20666 12.0038 9.08786 11.1066C8.95865 10.1292 9.64641 9.23198 10.6239 9.10276C14.6649 8.56714 18.2913 7.74079 21.3945 6.64768C22.3365 6.31526 23.3452 6.80919 23.6725 7.73766C23.9997 8.66717 23.512 9.6863 22.5825 10.0135C19.2437 11.1889 15.3777 12.0736 11.0907 12.6416C11.0115 12.652 10.9323 12.6572 10.8552 12.6572Z" fill="#00365D"/>
<path d="M10.8579 12.657C10.1784 12.657 9.5282 12.2662 9.23017 11.6045C7.76088 8.34287 8.56742 5.93469 9.50111 4.48936C11.3122 1.68623 15.2574 0.0126953 20.0529 0.0126953C21.0387 0.0126953 21.8369 0.811945 21.8369 1.79773C21.8369 2.78352 21.0387 3.58277 20.0529 3.58277C16.5808 3.58277 13.6151 4.69881 12.5001 6.42654C11.8395 7.44671 11.8353 8.69613 12.4855 10.1394C12.8899 11.0376 12.4897 12.0943 11.5915 12.4986C11.3539 12.6059 11.1038 12.657 10.8579 12.657Z" fill="#00365D"/>
<path d="M29.2467 12.657C29.0007 12.657 28.7506 12.6059 28.513 12.4986C27.6148 12.0943 27.2146 11.0376 27.619 10.1394C28.2692 8.69614 28.265 7.44671 27.6044 6.42654C26.4894 4.69882 23.5237 3.58277 20.0516 3.58277C19.0658 3.58277 18.2676 2.78352 18.2676 1.79773C18.2676 0.811945 19.0658 0.0126953 20.0516 0.0126953C24.8471 0.0126953 28.7923 1.68623 30.6034 4.48935C31.5371 5.93468 32.3436 8.34287 30.8743 11.6045C30.5763 12.2652 29.9261 12.657 29.2467 12.657Z" fill="#00365D"/>
<path d="M29.2495 12.6571C29.2245 12.6571 29.1995 12.6561 29.1766 12.655C25.84 12.5216 23.0368 11.5285 20.8464 9.70183C20.0878 9.07035 19.9857 7.94493 20.6172 7.18736C21.2528 6.42874 22.3741 6.33183 23.1306 6.95914C24.7041 8.27109 26.7861 8.98803 29.3183 9.08911C30.3041 9.1287 31.069 9.95818 31.0315 10.9429C30.9919 11.9037 30.202 12.6571 29.2495 12.6571Z" fill="#00365D"/>
<path d="M38.3226 49.1351C37.3368 49.1351 36.5386 48.3358 36.5386 47.35V39.9692C36.5386 36.917 34.0543 34.4348 31.0032 34.4348C30.0174 34.4348 29.2192 33.6356 29.2192 32.6498C29.2192 31.664 30.0174 30.8647 31.0032 30.8647C36.0238 30.8647 40.1066 34.9496 40.1066 39.9692V47.35C40.1066 48.3358 39.3083 49.1351 38.3226 49.1351ZM1.784 49.1351C0.798211 49.1351 0 48.3358 0 47.35V39.9692C0 34.9496 4.08277 30.8647 9.10338 30.8647C10.0892 30.8647 10.8874 31.664 10.8874 32.6498C10.8874 33.6356 10.0892 34.4348 9.10338 34.4348C6.05225 34.4348 3.568 36.917 3.568 39.9692V47.35C3.568 48.3358 2.76979 49.1351 1.784 49.1351Z" fill="#00365D"/>
<path d="M9.10236 34.4346C8.11657 34.4346 7.31836 33.6354 7.31836 32.6496C7.31836 31.6638 8.11657 30.8645 9.10236 30.8645C13.7145 30.8645 13.9187 30.1716 14.7836 27.2528L14.8962 26.8756C15.1754 25.9315 16.1675 25.3927 17.1157 25.6762C18.0599 25.9586 18.5975 26.9527 18.3141 27.8968L18.2057 28.2657C17.0741 32.09 16.0278 34.4346 9.10236 34.4346Z" fill="#00365D"/>
<path d="M31.0033 34.4345C24.0757 34.4345 23.0316 32.0889 21.902 28.2635L21.7915 27.8956C21.5102 26.9515 22.0479 25.9574 22.992 25.6761C23.9444 25.3926 24.9323 25.9324 25.2136 26.8765L25.3241 27.2517C26.1869 30.1715 26.3911 30.8645 31.0033 30.8645C31.9891 30.8645 32.7873 31.6637 32.7873 32.6495C32.7873 33.6353 31.9891 34.4345 31.0033 34.4345Z" fill="#00365D"/>
<path d="M17.8763 106H12.4326C10.2484 106 8.4707 104.249 8.4707 102.099V42.934C8.4707 41.9482 9.26891 41.1489 10.2547 41.1489C11.2405 41.1489 12.0387 41.9482 12.0387 42.934V102.099C12.0387 102.257 12.2013 102.432 12.4326 102.432H17.8763C18.1076 102.432 18.2702 102.257 18.2702 102.099V73.363C18.2702 72.3772 19.0684 71.579 20.0542 71.579C21.04 71.579 21.8382 72.3772 21.8382 73.363V102.099C21.8382 104.249 20.0604 106 17.8763 106Z" fill="#00365D"/>
<path d="M24.8304 106H22.2295C20.0453 106 18.2676 104.249 18.2676 102.099C18.2676 101.113 19.0658 100.315 20.0516 100.315C21.0374 100.315 21.8356 101.113 21.8356 102.099C21.8356 102.255 22.0044 102.432 22.2295 102.432H24.8304C25.8162 102.432 26.6144 103.23 26.6144 104.216C26.6144 105.202 25.8162 106 24.8304 106ZM29.8531 83.9794C28.8673 83.9794 28.0691 83.1812 28.0691 82.1954V42.934C28.0691 41.9482 28.8673 41.1489 29.8531 41.1489C30.8389 41.1489 31.6371 41.9482 31.6371 42.934V82.1954C31.6371 83.1812 30.8389 83.9794 29.8531 83.9794Z" fill="#00365D"/>
<path d="M10.2538 71.4558H4.08277C1.83193 71.4558 0 69.6239 0 67.373V47.35C0 46.3642 0.798211 45.5649 1.784 45.5649C2.76979 45.5649 3.568 46.3642 3.568 47.35V67.373C3.568 67.6565 3.79934 67.8878 4.08277 67.8878H10.2538C11.2396 67.8878 12.0378 68.686 12.0378 69.6718C12.0378 70.6576 11.2396 71.4558 10.2538 71.4558Z" fill="#00365D"/>
<path d="M10.2519 78.5354H7.5905C4.67067 78.5354 2.29688 76.1345 2.29688 73.1813V69.6717C2.29688 68.6859 3.09509 67.8877 4.08087 67.8877C5.06665 67.8877 5.86487 68.6859 5.86487 69.6717V73.1813C5.86487 74.1484 6.65475 74.9674 7.59052 74.9674H10.2519C11.2377 74.9674 12.0359 75.7656 12.0359 76.7514C12.0359 77.7372 11.2377 78.5354 10.2519 78.5354Z" fill="#00365D"/>
<path d="M36.0837 71.4558H29.8543C28.8685 71.4558 28.0703 70.6576 28.0703 69.6718C28.0703 68.686 28.8685 67.8878 29.8543 67.8878H36.0837C36.2984 67.8878 36.538 67.6669 36.538 67.373V47.35C36.538 46.3642 37.3363 45.5649 38.322 45.5649C39.3078 45.5649 40.106 46.3642 40.106 47.35V67.373C40.106 69.6239 38.3012 71.4558 36.0837 71.4558Z" fill="#00365D"/>
<path d="M32.5157 78.5354H29.8543C28.8685 78.5354 28.0703 77.7372 28.0703 76.7514C28.0703 75.7656 28.8685 74.9674 29.8543 74.9674H32.5157C33.4661 74.9674 34.2997 74.1317 34.2997 73.1813V69.6717C34.2997 68.6859 35.0979 67.8877 36.0837 67.8877C37.0695 67.8877 37.8677 68.6859 37.8677 69.6717V73.1813C37.8677 76.0845 35.4168 78.5354 32.5157 78.5354Z" fill="#00365D"/>
<path d="M20.0545 38.9715C19.6564 38.9715 19.2563 38.8392 18.9228 38.5672L12.5705 33.3642C11.8098 32.74 11.6972 31.6157 12.3225 30.8529C12.9477 30.0901 14.0689 29.9817 14.8338 30.6028L21.1862 35.8058C21.9469 36.4299 22.0594 37.5543 21.4342 38.3171C21.082 38.7485 20.5693 38.9715 20.0545 38.9715Z" fill="#00365D"/>
<path d="M20.0517 38.9716C19.537 38.9716 19.0243 38.7486 18.6721 38.3172C18.0468 37.5544 18.1594 36.43 18.9201 35.8058L25.2724 30.6028C26.0373 29.9797 27.1586 30.0881 27.7838 30.8529C28.409 31.6157 28.2965 32.7401 27.5358 33.3643L21.1834 38.5673C20.85 38.8392 20.4498 38.9716 20.0517 38.9716Z" fill="#00365D"/>
<path d="M55.7452 106H29.8543C28.8685 106 28.0703 105.202 28.0703 104.216V91.4511C28.0703 87.5329 31.259 84.3442 35.1771 84.3442H50.4224C54.3405 84.3442 57.5292 87.5329 57.5292 91.4511V104.216C57.5292 105.202 56.731 106 55.7452 106ZM31.6383 102.432H53.9612V91.4511C53.9612 89.5003 52.3731 87.9122 50.4224 87.9122H35.1771C33.2264 87.9122 31.6383 89.5003 31.6383 91.4511V102.432Z" fill="#00365D"/>
<path d="M48.5474 87.9121C47.5616 87.9121 46.7634 87.1138 46.7634 86.1281C46.7634 83.3562 44.9481 81.0158 42.7994 81.0158C40.6528 81.0158 38.8375 83.3562 38.8375 86.1281C38.8375 87.1138 38.0393 87.9121 37.0535 87.9121C36.0677 87.9121 35.2695 87.1138 35.2695 86.1281C35.2695 81.3409 38.6479 77.4478 42.7994 77.4478C46.953 77.4478 50.3314 81.3409 50.3314 86.1281C50.3314 87.1138 49.5332 87.9121 48.5474 87.9121Z" fill="#00365D"/>
<path d="M55.7452 94.6871H29.8543C28.8685 94.6871 28.0703 93.8889 28.0703 92.9031C28.0703 91.9174 28.8685 91.1191 29.8543 91.1191H55.7452C56.731 91.1191 57.5292 91.9174 57.5292 92.9031C57.5292 93.8889 56.731 94.6871 55.7452 94.6871Z" fill="#00365D"/>
<path d="M34.8749 100.373H29.8543C28.8685 100.373 28.0703 99.5745 28.0703 98.5887C28.0703 97.6029 28.8685 96.8047 29.8543 96.8047H34.8749C35.8607 96.8047 36.6589 97.6029 36.6589 98.5887C36.6589 99.5745 35.8607 100.373 34.8749 100.373Z" fill="#00365D"/>
<path d="M55.746 100.373H50.7254C49.7396 100.373 48.9414 99.5745 48.9414 98.5887C48.9414 97.6029 49.7396 96.8047 50.7254 96.8047H55.746C56.7318 96.8047 57.53 97.6029 57.53 98.5887C57.53 99.5745 56.7318 100.373 55.746 100.373Z" fill="#00365D"/>
<path d="M91.6194 92.1467H60.4036C59.4178 92.1467 58.6196 91.3485 58.6196 90.3628C58.6196 89.377 59.4178 88.5788 60.4036 88.5788H91.6194C93.1699 88.5788 94.4329 87.3158 94.4329 85.7652V61.8689C94.4329 60.3183 93.1699 59.0553 91.6194 59.0553H43.7078C42.722 59.0553 41.9238 58.2571 41.9238 57.2713C41.9238 56.2855 42.722 55.4873 43.7078 55.4873H91.6194C95.1394 55.4873 98.0009 58.3488 98.0009 61.8688V85.7652C98.0009 89.2853 95.1394 92.1467 91.6194 92.1467Z" fill="#D29970"/>
<path d="M84.9656 106C83.9798 106 83.1816 105.202 83.1816 104.216V90.3631C83.1816 89.3773 83.9798 88.5791 84.9656 88.5791C85.9514 88.5791 86.7496 89.3773 86.7496 90.3631V104.216C86.7496 105.202 85.9514 106 84.9656 106Z" fill="#D29970"/>
<path d="M73.2292 101.1H61.8563C60.8705 101.1 60.0723 100.302 60.0723 99.3164C60.0723 98.3306 60.8705 97.5324 61.8563 97.5324H73.2292C73.9232 97.5324 74.4693 96.9593 74.4693 96.2299V90.3631C74.4693 89.3773 75.2675 88.5791 76.2533 88.5791C77.2391 88.5791 78.0373 89.3773 78.0373 90.3631V96.2299C78.0373 98.9163 75.8802 101.1 73.2292 101.1Z" fill="#D29970"/>
<path d="M45.4598 73.8757C44.474 73.8757 43.6758 73.0775 43.6758 72.0917V63.4427C43.6758 62.4569 44.474 61.6587 45.4598 61.6587C46.4456 61.6587 47.2438 62.4569 47.2438 63.4427V72.0917C47.2438 73.0775 46.4456 73.8757 45.4598 73.8757Z" fill="#D29970"/>
<path d="M54.1727 81.3785C53.1869 81.3785 52.3887 80.5803 52.3887 79.5945V63.4427C52.3887 62.4569 53.1869 61.6587 54.1727 61.6587C55.1585 61.6587 55.9567 62.4569 55.9567 63.4427V79.5945C55.9567 80.5803 55.1584 81.3785 54.1727 81.3785Z" fill="#D29970"/>
<path d="M62.9442 85.9761C61.9584 85.9761 61.1602 85.1779 61.1602 84.1921V63.4427C61.1602 62.4569 61.9584 61.6587 62.9442 61.6587C63.9299 61.6587 64.7282 62.4569 64.7282 63.4427V84.1921C64.7282 85.1779 63.9299 85.9761 62.9442 85.9761Z" fill="#D29970"/>
<path d="M71.6551 85.9761C70.6693 85.9761 69.8711 85.1779 69.8711 84.1921V63.4427C69.8711 62.4569 70.6693 61.6587 71.6551 61.6587C72.6409 61.6587 73.4391 62.4569 73.4391 63.4427V84.1921C73.4391 85.1779 72.6409 85.9761 71.6551 85.9761Z" fill="#D29970"/>
<path d="M80.368 85.9761C79.3822 85.9761 78.584 85.1779 78.584 84.1921V63.4427C78.584 62.4569 79.3822 61.6587 80.368 61.6587C81.3538 61.6587 82.152 62.4569 82.152 63.4427V84.1921C82.152 85.1779 81.3538 85.9761 80.368 85.9761Z" fill="#D29970"/>
<path d="M89.0789 85.9761C88.0931 85.9761 87.2949 85.1779 87.2949 84.1921V63.4427C87.2949 62.4569 88.0931 61.6587 89.0789 61.6587C90.0647 61.6587 90.8629 62.4569 90.8629 63.4427V84.1921C90.8629 85.1779 90.0647 85.9761 89.0789 85.9761Z" fill="#D29970"/>
</svg>
