<svg width="113" height="106" viewBox="0 0 113 106" fill="none" xmlns="http://www.w3.org/2000/svg">
<path d="M9.79297 87.2248C9.79297 92.8358 14.6544 97.3988 20.6322 97.3988C26.61 97.3988 31.4714 92.8358 31.4714 87.2248C31.4714 81.6138 26.61 77.0508 20.6322 77.0508C14.6544 77.0508 9.79297 81.6138 9.79297 87.2248ZM27.8583 87.2248C27.8583 90.9655 24.6174 94.0075 20.6322 94.0075C16.647 94.0075 13.406 90.9655 13.406 87.2248C13.406 83.4842 16.647 80.4421 20.6322 80.4421C24.6174 80.4421 27.8583 83.4842 27.8583 87.2248Z" fill="#00365D"/>
<path d="M98.3146 10.9197C93.334 10.9197 89.282 14.7231 89.282 19.398C89.282 23.4914 92.391 26.9166 96.5081 27.7051V32.9634C96.5081 35.7681 94.0765 38.0504 91.0885 38.0504H80.1571C79.2286 26.6877 69.103 17.7024 56.7643 17.7024C44.4257 17.7024 34.3 26.6877 33.3715 38.0504H27.8597C22.8791 38.0504 18.8271 41.8538 18.8271 46.5288V68.5725H17.0205C16.0215 68.5725 15.214 69.3305 15.214 70.2682V71.0601C14.28 71.3348 13.3713 71.6841 12.4952 72.1012L11.0716 70.765C10.3653 70.102 9.22353 70.102 8.51718 70.765L3.09757 75.852C2.39121 76.515 2.39121 77.5867 3.09757 78.2497L4.52112 79.5859C4.07671 80.4083 3.70456 81.2612 3.41191 82.1379H2.56825C1.56924 82.1379 0.761719 82.8959 0.761719 83.8336V90.6163C0.761719 91.554 1.56924 92.3119 2.56825 92.3119H3.41191C3.70456 93.1886 4.07671 94.0415 4.52112 94.8639L3.09757 96.2001C2.39121 96.8631 2.39121 97.9348 3.09757 98.5978L8.51718 103.685C9.22353 104.348 10.3653 104.348 11.0716 103.685L12.4952 102.349C13.3713 102.766 14.28 103.115 15.214 103.39V104.182C15.214 105.119 16.0215 105.877 17.0205 105.877H24.2467C25.2457 105.877 26.0532 105.119 26.0532 104.182V103.39C26.9872 103.115 27.8959 102.766 28.772 102.349L30.1956 103.685C30.902 104.348 32.0437 104.348 32.75 103.685L38.1696 98.5978C38.876 97.9348 38.876 96.8631 38.1696 96.2001L36.7461 94.8639C37.1905 94.0415 37.5627 93.1886 37.8553 92.3119H38.699C39.698 92.3119 40.5055 91.554 40.5055 90.6163V83.8336C40.5055 82.8959 39.698 82.1379 38.699 82.1379H37.8553C37.5627 81.2612 37.1905 80.4083 36.7461 79.5859L38.1696 78.2497C38.876 77.5867 38.876 76.515 38.1696 75.852L32.75 70.765C32.0437 70.102 30.902 70.102 30.1956 70.765L28.772 72.1012C27.8959 71.6841 26.9872 71.3348 26.0532 71.0601V70.2682C26.0532 69.3305 25.2457 68.5725 24.2467 68.5725H22.4401V46.5288C22.4401 43.7241 24.8717 41.4418 27.8597 41.4418H33.3679C33.7978 46.7797 36.233 51.726 40.3736 55.5125C42.7528 57.6863 44.1186 60.7538 44.1186 63.9247V71.9639H40.5055V75.3552H47.7316V80.4422C47.7316 81.3799 48.5392 82.1379 49.5382 82.1379H51.3447V83.8336C51.3447 86.6382 53.7763 88.9206 56.7643 88.9206C59.7523 88.9206 62.1839 86.6382 62.1839 83.8336V82.1379H63.9905C64.9895 82.1379 65.797 81.3799 65.797 80.4422V75.3552H73.0231V71.9639H69.4101V63.9247C69.4101 60.7538 70.7758 57.6863 73.155 55.5108C77.2938 51.726 79.729 46.7797 80.159 41.4418H91.0885C96.0691 41.4418 100.121 37.6384 100.121 32.9634V27.7051C104.238 26.9166 107.347 23.4931 107.347 19.398C107.347 14.7231 103.295 10.9197 98.3146 10.9197ZM23.8456 74.0072C25.3559 74.3293 26.8029 74.8855 28.1416 75.6536C28.8497 76.0589 29.7711 75.9623 30.3618 75.4061L31.4728 74.3615L34.338 77.0509L33.227 78.0937C32.6362 78.6465 32.5278 79.5079 32.9632 80.1777C33.7816 81.4342 34.3723 82.7924 34.7174 84.21C34.9016 84.9815 35.6333 85.5292 36.4769 85.5292H36.8924V88.9206H36.4769C35.6333 88.9206 34.9034 89.4683 34.7155 90.2398C34.3723 91.6574 33.7798 93.0156 32.9614 94.2721C32.5278 94.9419 32.6344 95.8016 33.2252 96.3561L34.338 97.3989L31.4728 100.088L30.3618 99.0454C29.7729 98.4893 28.8497 98.3875 28.1416 98.7979C26.8029 99.566 25.3559 100.12 23.8456 100.444C23.0237 100.617 22.4401 101.304 22.4401 102.096V102.486H18.8271V102.096C18.8271 101.304 18.2436 100.619 17.4216 100.443C15.9113 100.12 14.4643 99.5643 13.1256 98.7962C12.4157 98.3875 11.4962 98.4876 10.9054 99.0437L9.7944 100.088L6.92923 97.3989L8.04025 96.3561C8.63099 95.8033 8.73938 94.9419 8.304 94.2721C7.48564 93.0156 6.89491 91.6574 6.54986 90.2398C6.36559 89.4683 5.63394 88.9206 4.79029 88.9206H4.37479V85.5292H4.79029C5.63394 85.5292 6.36378 84.9815 6.55166 84.21C6.89491 82.7924 7.48745 81.4342 8.30581 80.1777C8.73938 79.5079 8.63279 78.6482 8.04206 78.0937L6.92923 77.0509L9.7944 74.3615L10.9054 75.4044C11.4943 75.9606 12.4157 76.0589 13.1256 75.652C14.4643 74.8838 15.9113 74.3293 17.4216 74.0055C18.2436 73.8325 18.8271 73.1457 18.8271 72.3539V71.9639H22.4401V72.3539C22.4401 73.1457 23.0237 73.8325 23.8456 74.0072ZM58.5709 83.8336C58.5709 84.7696 57.7615 85.5292 56.7643 85.5292C55.7671 85.5292 54.9578 84.7696 54.9578 83.8336V82.1379H58.5709V83.8336ZM62.1839 78.7466H51.3447V75.3552H62.1839V78.7466ZM47.7316 71.9639V68.5725H65.797V71.9639H47.7316ZM56.7643 49.9201C53.7763 49.9201 51.3447 47.6378 51.3447 44.8331C51.3447 42.0285 53.7763 39.7461 56.7643 39.7461C59.7523 39.7461 62.1839 42.0285 62.1839 44.8331C62.1839 47.6378 59.7523 49.9201 56.7643 49.9201ZM70.6349 53.0809C67.5602 55.8906 65.797 59.8449 65.797 63.9247V65.1812H58.5709V53.1402C62.6879 52.3517 65.797 48.9282 65.797 44.8331C65.797 40.1581 61.7449 36.3548 56.7643 36.3548C51.7837 36.3548 47.7316 40.1581 47.7316 44.8331C47.7316 48.9265 50.8407 52.3517 54.9578 53.1402V65.1812H47.7316V63.9247C47.7316 59.8449 45.9685 55.8923 42.8955 53.0826C39.0241 49.542 36.8924 44.806 36.8924 39.7461C36.8924 29.4618 45.8077 21.0937 56.7643 21.0937C67.721 21.0937 76.6362 29.4618 76.6362 39.7461C76.6362 44.806 74.5045 49.542 70.6349 53.0809ZM98.3146 24.4851C95.3266 24.4851 92.895 22.2027 92.895 19.398C92.895 16.5934 95.3266 14.311 98.3146 14.311C101.303 14.311 103.734 16.5934 103.734 19.398C103.734 22.2027 101.303 24.4851 98.3146 24.4851Z" fill="#00365D"/>
<path fill-rule="evenodd" clip-rule="evenodd" d="M56.7597 17.7021C69.0984 17.7021 79.224 26.6875 80.1525 38.0502L80.1544 41.4416C79.7244 46.7795 77.2892 51.7258 73.1504 55.5105C70.7712 57.6861 69.4055 60.7536 69.4055 63.9245V71.9636H73.0185V75.355H65.7924V80.442C65.7924 81.3797 64.9849 82.1377 63.9859 82.1377H62.1793V83.8334C62.1793 86.638 59.7477 88.9204 56.7597 88.9204C53.7717 88.9204 51.3401 86.638 51.3401 83.8334V82.1377H49.5336C48.5346 82.1377 47.727 81.3797 47.727 80.442V75.355H40.5009V71.9636H44.114V63.9245C44.114 60.7536 42.7482 57.6861 40.369 55.5122C36.2284 51.7258 33.7932 46.7795 33.3633 41.4416L33.3669 38.0502C34.2955 26.6875 44.4211 17.7021 56.7597 17.7021ZM58.5663 83.8334C58.5663 84.7694 57.7569 85.529 56.7597 85.529C55.7625 85.529 54.9532 84.7694 54.9532 83.8334V82.1377H58.5663V83.8334ZM62.1793 78.7463H51.3401V75.355H62.1793V78.7463ZM47.727 71.9636V68.5723H65.7924V71.9636H47.727ZM56.7597 49.9199C53.7717 49.9199 51.3401 47.6375 51.3401 44.8329C51.3401 42.0283 53.7717 39.7459 56.7597 39.7459C59.7477 39.7459 62.1793 42.0283 62.1793 44.8329C62.1793 47.6375 59.7477 49.9199 56.7597 49.9199ZM70.6303 53.0807C67.5556 55.8904 65.7924 59.8447 65.7924 63.9245V65.181H58.5663V53.14C62.6833 52.3515 65.7924 48.9279 65.7924 44.8329C65.7924 40.1579 61.7403 36.3545 56.7597 36.3545C51.7791 36.3545 47.727 40.1579 47.727 44.8329C47.727 48.9263 50.8361 52.3515 54.9532 53.14V65.181H47.727V63.9245C47.727 59.8447 45.9639 55.8921 42.8909 53.0823C39.0195 49.5418 36.8878 44.8058 36.8878 39.7459C36.8878 29.4616 45.8031 21.0935 56.7597 21.0935C67.7164 21.0935 76.6316 29.4616 76.6316 39.7459C76.6316 44.8058 74.4999 49.5418 70.6303 53.0807Z" fill="#D29970"/>
<path d="M100.123 0.74585H96.5098V7.52854H100.123V0.74585Z" fill="#00365D"/>
<path d="M109.684 2.93799L104.264 8.02539L106.818 10.4234L112.238 5.33601L109.684 2.93799Z" fill="#00365D"/>
<path d="M86.9454 2.93889L84.3906 5.33691L89.8106 10.4243L92.3654 8.02629L86.9454 2.93889Z" fill="#00365D"/>
</svg>
