<svg width="101" height="101" viewBox="0 0 101 101" fill="none" xmlns="http://www.w3.org/2000/svg">
<path d="M94.0667 20.0496V18.1262L88.0965 3.20211C87.4881 1.67404 86.0311 0.686523 84.3852 0.686523C82.7393 0.686523 81.2823 1.67404 80.6739 3.20211L74.7037 18.1262V20.0496H29.4279C28.6228 12.7997 22.4637 7.14088 15.0008 7.14088C6.99258 7.14088 0.478516 13.6566 0.478516 21.6632V86.2068C0.478516 94.2134 6.99258 100.729 15.0008 100.729H100.521V20.0496H94.0667ZM82.7716 20.0496V53.935H77.9308V20.0496H82.7716ZM77.9308 57.1622H90.8396V63.6165C90.8396 64.5056 90.1167 65.2301 89.226 65.2301H79.5444C78.6537 65.2301 77.9308 64.5056 77.9308 63.6165V57.1622ZM90.8396 53.935H85.9988V20.0496H90.8396V53.935ZM83.672 4.39778V4.39617C83.906 3.81043 84.8661 3.80721 85.1 4.39778L90.0715 16.8224H78.7021L83.672 4.39778ZM33.9605 36.981C36.1534 37.5474 38.2462 38.4139 40.1825 39.5563L41.2604 40.1937L46.1641 35.2883L53.0106 42.1348L48.1069 47.0385L48.7426 48.1148C49.885 50.0511 50.7515 52.1439 51.3179 54.3384L51.6309 55.5486H58.5678V65.2301H51.6309L51.3179 66.4403C50.7515 68.6348 49.885 70.7276 48.7426 72.6639L48.1069 73.7402L53.0106 78.6439L46.1641 85.4904L41.2604 80.5851L40.1825 81.2224C38.2462 82.3648 36.1534 83.2329 33.9605 83.7977L32.7503 84.1107V91.0476H28.676C29.2149 89.5308 29.5231 87.9059 29.5231 86.2068V78.0566C38.556 77.2385 45.659 69.632 45.659 60.3894C45.659 51.1467 38.556 43.5402 29.5231 42.7222V29.7311H32.7503V36.668L33.9605 36.981ZM31.9419 67.3794C31.1916 67.8135 30.3703 68.1055 29.5231 68.2782V52.4844C33.2005 53.2347 35.9775 56.4925 35.9775 60.3894C35.9775 62.2902 35.303 64.1361 34.0783 65.5883L36.5455 67.6683C38.2607 65.6351 39.2047 63.0502 39.2047 60.3894C39.2047 54.7111 34.9868 50.0107 29.5231 49.2233V45.9622C36.773 46.769 42.4319 52.9281 42.4319 60.3894C42.4319 67.8506 36.773 74.0113 29.5231 74.8165V71.5602C30.9431 71.3553 32.3163 70.8906 33.5587 70.1726L31.9419 67.3794ZM3.7057 21.6632C3.7057 15.4347 8.77398 10.3681 15.0008 10.3681C21.2277 10.3681 26.296 15.4347 26.296 21.6632V77.0997C23.6319 73.8015 19.5608 71.6845 15.0008 71.6845C10.4408 71.6845 6.36973 73.8015 3.7057 77.0997V21.6632ZM3.7057 86.2068C3.7057 79.9783 8.77398 74.9117 15.0008 74.9117C21.2277 74.9117 26.296 79.9783 26.296 86.2068C26.296 92.4353 21.2277 97.5019 15.0008 97.5019C8.77398 97.5019 3.7057 92.4353 3.7057 86.2068ZM97.2939 97.5019H24.1079C25.2487 96.5806 26.2492 95.4946 27.0673 94.2747H35.9775V86.5812C37.6234 86.0761 39.2127 85.4178 40.7263 84.6158L46.1641 90.0552L57.5738 78.6455L52.136 73.2061C52.9363 71.6926 53.5947 70.1032 54.0997 68.4573H61.7949V52.3214H54.0997C53.5963 50.6755 52.9363 49.0862 52.136 47.5726L57.5738 42.1332L46.1641 30.7235L40.7263 36.1629C39.2127 35.361 37.6217 34.7026 35.9775 34.1976V26.504H29.5231V23.2768H74.7037V63.6165C74.7037 66.2854 76.8756 68.4573 79.5444 68.4573H89.226C91.8949 68.4573 94.0667 66.2854 94.0667 63.6165V23.2768H97.2939V97.5019Z" fill="#00365D"/>
<path fill-rule="evenodd" clip-rule="evenodd" d="M40.1817 39.5562C38.2454 38.4138 36.1525 37.5473 33.9597 36.9809L32.7495 36.6679V29.7311H29.5223V26.5039H35.9766V34.1975C37.6209 34.7026 39.2119 35.3609 40.7254 36.1629L46.1632 30.7234L57.5729 42.1331L52.1351 47.5725C52.9355 49.0861 53.5954 50.6755 54.0989 52.3213H61.7941V68.4572H54.0989C53.5938 70.1031 52.9355 71.6925 52.1351 73.206L57.5729 78.6455L46.1632 90.0551L40.7254 84.6157C39.2119 85.4177 37.6225 86.076 35.9766 86.5811V94.2747H27.0664L28.6752 91.0475H32.7495V84.1107L33.9597 83.7976C36.1525 83.2329 38.2454 82.3648 40.1817 81.2224L41.2595 80.585L46.1632 85.4903L53.0097 78.6438L48.106 73.7401L48.7418 72.6639C49.8842 70.7276 50.7507 68.6347 51.317 66.4403L51.6301 65.2301H58.5669V55.5485H51.6301L51.317 54.3383C50.7507 52.1439 49.8842 50.051 48.7418 48.1147L48.106 47.0385L53.0097 42.1348L46.1632 35.2883L41.2595 40.1936L40.1817 39.5562ZM29.5223 78.0565C38.5552 77.2384 45.6582 69.6319 45.6582 60.3893C45.6582 51.1467 38.5552 43.5402 29.5223 42.7221V45.9622C36.7722 46.769 42.431 52.9281 42.431 60.3893C42.431 67.8505 36.7722 74.0112 29.5223 74.8164V78.0565ZM29.5223 71.5602C30.9422 71.3553 32.3154 70.8905 33.5579 70.1725L31.9411 67.3794C31.1907 67.8134 30.3694 68.1055 29.5223 68.2781V71.5602ZM29.5223 49.2233C34.9859 50.0107 39.2038 54.7111 39.2038 60.3893C39.2038 63.0501 38.2599 65.6351 36.5446 67.6682L34.0775 65.5883C35.3022 64.1361 35.9766 62.2901 35.9766 60.3893C35.9766 56.4925 33.1997 53.2346 29.5223 52.4843V49.2233Z" fill="#D29970"/>
<path d="M61.7949 94.2748H94.0667V71.6846H61.7949V94.2748ZM65.0221 74.9118H90.8395V91.0477H65.0221V74.9118Z" fill="#00365D"/>
<path d="M87.6118 78.1387H74.7031V81.3659H87.6118V78.1387Z" fill="#00365D"/>
<path d="M71.4772 78.1387H68.25V81.3659H71.4772V78.1387Z" fill="#00365D"/>
<path d="M81.1587 84.5933H68.25V87.8204H81.1587V84.5933Z" fill="#00365D"/>
<path d="M87.6119 84.5933H84.3848V87.8204H87.6119V84.5933Z" fill="#00365D"/>
<path d="M15.0015 78.1387C10.5529 78.1387 6.93359 81.758 6.93359 86.2066C6.93359 90.6553 10.5529 94.2746 15.0015 94.2746V91.0474C12.3327 91.0474 10.1608 88.8755 10.1608 86.2066C10.1608 83.5377 12.3327 81.3659 15.0015 81.3659C17.6704 81.3659 19.8423 83.5377 19.8423 86.2066H23.0695C23.0695 81.758 19.4502 78.1387 15.0015 78.1387Z" fill="#D29970"/>
</svg>
