<svg width="89" height="99" viewBox="0 0 89 99" fill="none" xmlns="http://www.w3.org/2000/svg">
<path d="M70.4886 95.6713H3.22352V3.94618H58.2586V16.1762H70.4886V22.2912H73.5461V14.0145L60.4203 0.888672H0.166016V98.7288H73.5461V92.6138H70.4886V95.6713ZM61.3161 6.10783L68.327 13.1187H61.3161V6.10783Z" fill="#00365D"/>
<path d="M24.6259 13.1187H21.5684V16.1762H24.6259V13.1187Z" fill="#00365D"/>
<path d="M30.7411 13.1187H27.6836V16.1762H30.7411V13.1187Z" fill="#00365D"/>
<path d="M36.8563 13.1187H33.7988V16.1762H36.8563V13.1187Z" fill="#00365D"/>
<path d="M88.8337 42.1654C88.8337 32.8935 81.2878 25.3491 72.0174 25.3491C62.7471 25.3491 55.2012 32.8935 55.2012 42.1654C55.2012 50.9236 61.9307 58.1271 70.4887 58.9037V62.348C69.8558 62.562 69.2611 62.8953 68.775 63.383C67.9097 64.2482 67.4312 65.4009 67.4312 66.6254V84.9705C67.4312 86.195 67.9097 87.3477 68.775 88.2129C69.6402 89.0782 70.7929 89.5567 72.0174 89.5567C73.242 89.5567 74.3947 89.0782 75.2599 88.2129C76.1252 87.3477 76.6037 86.195 76.6037 84.9705V66.6254C76.6037 65.4009 76.1252 64.2482 75.2599 63.383C74.7738 62.8968 74.1791 62.562 73.5462 62.348V58.9037C82.1042 58.1271 88.8337 50.9236 88.8337 42.1654ZM58.2587 42.1654C58.2587 34.5797 64.4303 28.4066 72.0174 28.4066C79.6046 28.4066 85.7762 34.5797 85.7762 42.1654C85.7762 49.7511 79.6046 55.9242 72.0174 55.9242C64.4303 55.9242 58.2587 49.7511 58.2587 42.1654ZM70.9366 65.5446C71.2256 65.2557 71.6077 65.0967 72.0174 65.0967C72.4272 65.0967 72.8093 65.2557 73.0983 65.5446C73.3872 65.8335 73.5462 66.2157 73.5462 66.6254V68.1542H70.4887V66.6254C70.4887 66.2157 70.6477 65.8335 70.9366 65.5446ZM73.0983 86.0513C72.5189 86.6276 71.516 86.6276 70.9366 86.0513C70.6477 85.7624 70.4887 85.3802 70.4887 84.9705V71.2117H73.5462V84.9705C73.5462 85.3802 73.3872 85.7624 73.0983 86.0513Z" fill="#D29970"/>
<path d="M78.581 36.498L70.4894 44.5897L66.9839 41.0843L64.8223 43.246L70.4894 48.913L80.7427 38.6597L78.581 36.498Z" fill="#00365D"/>
<path d="M12.3954 78.8555H9.33789V89.5567H12.3954V78.8555Z" fill="#00365D"/>
<path d="M18.5106 74.269H15.4531V89.5566H18.5106V74.269Z" fill="#00365D"/>
<path d="M24.6259 81.9126H21.5684V89.5564H24.6259V81.9126Z" fill="#00365D"/>
<path d="M30.7411 75.7979H27.6836V89.5566H30.7411V75.7979Z" fill="#00365D"/>
<path d="M36.8563 69.6826H33.7988V89.5564H36.8563V69.6826Z" fill="#00365D"/>
<path d="M42.9716 72.7402H39.9141V89.5565H42.9716V72.7402Z" fill="#00365D"/>
<path d="M49.0868 77.3267H46.0293V89.5567H49.0868V77.3267Z" fill="#00365D"/>
<path d="M55.202 71.2114H52.1445V89.5565H55.202V71.2114Z" fill="#00365D"/>
<path d="M61.3173 68.1538H58.2598V89.5563H61.3173V68.1538Z" fill="#00365D"/>
<path d="M44.4996 55.9238H21.5684V58.9813H44.4996V55.9238Z" fill="#00365D"/>
<path d="M32.2696 62.0391H21.5684V65.0966H32.2696V62.0391Z" fill="#00365D"/>
<path d="M61.3169 62.0391H35.3281V65.0966H61.3169V62.0391Z" fill="#00365D"/>
<path d="M18.5104 55.9238H9.33789V65.0963H18.5104V55.9238ZM15.4529 62.0388H12.3954V58.9813H15.4529V62.0388Z" fill="#D29970"/>
<path d="M41.4421 43.6938H21.5684V46.7514H41.4421V43.6938Z" fill="#00365D"/>
<path d="M49.0863 43.6938H44.5V46.7514H49.0863V43.6938Z" fill="#00365D"/>
<path d="M50.6147 49.8091H21.5684V52.8666H50.6147V49.8091Z" fill="#00365D"/>
<path d="M18.5104 43.6938H9.33789V52.8664H18.5104V43.6938ZM15.4529 49.8089H12.3954V46.7514H15.4529V49.8089Z" fill="#D29970"/>
<path d="M64.3737 19.2339H55.2012V22.2914H64.3737V19.2339Z" fill="#00365D"/>
<path d="M52.1434 19.2339H21.5684V22.2914H52.1434V19.2339Z" fill="#00365D"/>
<path d="M39.9134 25.3491H21.5684V28.4066H39.9134V25.3491Z" fill="#00365D"/>
<path d="M17.4303 19.6816L12.3961 24.7158L10.4195 22.7391L8.25781 24.9008L12.3961 29.0391L19.592 21.8433L17.4303 19.6816Z" fill="#D29970"/>
<path d="M52.1439 31.4639H33.7988V34.5214H52.1439V31.4639Z" fill="#00365D"/>
<path d="M30.7409 31.4639H21.5684V34.5214H30.7409V31.4639Z" fill="#00365D"/>
<path d="M49.0859 37.5791H21.5684V40.6366H49.0859V37.5791Z" fill="#00365D"/>
<path d="M11.9488 40.1883L13.9254 38.2116L15.9021 40.1883L18.0638 38.0266L16.0871 36.05L18.0638 34.0733L15.9021 31.9116L13.9254 33.8883L11.9488 31.9116L9.78711 34.0733L11.7638 36.05L9.78711 38.0266L11.9488 40.1883Z" fill="#D29970"/>
</svg>
