<svg width="138" height="79" viewBox="0 0 138 79" fill="none" xmlns="http://www.w3.org/2000/svg">
<path d="M27.4265 78.2131C22.3897 78.2131 18.2324 74.0558 18.2324 69.0191V34.2414C18.2324 29.2047 22.3897 25.0474 27.4265 25.0474C32.4633 25.0474 36.6206 29.2047 36.6206 34.2414V69.0191C36.6206 74.1358 32.4633 78.2131 27.4265 78.2131ZM27.4265 28.2453C24.1486 28.2453 21.4304 30.9636 21.4304 34.2414V69.0191C21.4304 72.297 24.1486 75.0152 27.4265 75.0152C30.7044 75.0152 33.4226 72.297 33.4226 69.0191V34.2414C33.4226 30.9636 30.7044 28.2453 27.4265 28.2453Z" fill="#00365D"/>
<path d="M110.573 78.2131C105.536 78.2131 101.379 74.0558 101.379 69.0191V34.2414C101.379 29.2047 105.536 25.0474 110.573 25.0474C115.61 25.0474 119.767 29.2047 119.767 34.2414V69.0191C119.767 74.1358 115.61 78.2131 110.573 78.2131ZM110.573 28.2453C107.295 28.2453 104.577 30.9636 104.577 34.2414V69.0191C104.577 72.297 107.295 75.0152 110.573 75.0152C113.851 75.0152 116.569 72.297 116.569 69.0191V34.2414C116.569 30.9636 113.851 28.2453 110.573 28.2453Z" fill="#00365D"/>
<path d="M81.6303 35.441H56.3665C55.4871 35.441 54.7676 34.7215 54.7676 33.8421V25.3675C54.7676 24.4881 55.4871 23.7686 56.3665 23.7686H81.6303C82.5097 23.7686 83.2293 24.4881 83.2293 25.3675V33.922C83.2293 34.7215 82.5097 35.441 81.6303 35.441ZM57.9655 32.2431H80.0313V26.8865H57.9655V32.2431Z" fill="#D29970"/>
<path d="M102.977 71.0177H35.0208C34.1414 71.0177 33.4219 70.2982 33.4219 69.4188V33.8416C33.4219 32.9622 34.1414 32.2427 35.0208 32.2427H102.977C103.857 32.2427 104.576 32.9622 104.576 33.8416V69.4188C104.576 70.2982 103.857 71.0177 102.977 71.0177ZM36.6198 67.8198H101.378V35.4406H36.6198V67.8198Z" fill="#00365D"/>
<path d="M136.229 71.0177H118.273C117.393 71.0177 116.674 70.2982 116.674 69.4188V33.8416C116.674 32.9622 117.393 32.2427 118.273 32.2427H136.229C137.108 32.2427 137.828 32.9622 137.828 33.8416V69.4188C137.828 70.2982 137.108 71.0177 136.229 71.0177ZM119.872 67.8198H134.63V35.4406H119.872V67.8198Z" fill="#00365D"/>
<path d="M19.5552 71.0177H1.59897C0.719537 71.0177 0 70.2982 0 69.4188V33.8416C0 32.9622 0.719537 32.2427 1.59897 32.2427H19.5552C20.4347 32.2427 21.1542 32.9622 21.1542 33.8416V69.4188C21.1542 70.2982 20.4347 71.0177 19.5552 71.0177ZM3.19794 67.8198H17.9563V35.4406H3.19794V67.8198Z" fill="#00365D"/>
<path d="M72.2778 26.966H65.722C64.8426 26.966 64.123 26.2465 64.123 25.3671V12.7352C64.123 11.8558 64.8426 11.1362 65.722 11.1362H72.2778C73.1572 11.1362 73.8768 11.8558 73.8768 12.7352V25.3671C73.8768 26.2465 73.1572 26.966 72.2778 26.966ZM67.321 23.7681H70.6788V14.3342H67.321V23.7681Z" fill="#D29970"/>
<path d="M95.3838 14.3344H42.6178C38.7802 14.3344 35.7422 11.2164 35.7422 7.45883C35.7422 3.70125 38.8602 0.583252 42.6178 0.583252H95.3838C99.2213 0.583252 102.259 3.70125 102.259 7.45883C102.259 11.2164 99.1414 14.3344 95.3838 14.3344ZM42.6178 3.70124C40.5391 3.70124 38.9401 5.38016 38.9401 7.37888C38.9401 9.37759 40.619 11.0565 42.6178 11.0565H95.3838C97.4625 11.0565 99.0614 9.37759 99.0614 7.37888C99.0614 5.38016 97.3825 3.70124 95.3838 3.70124H42.6178Z" fill="#D29970"/>
<path d="M91.833 52.0702C91.1328 52.0702 90.666 51.7504 90.666 51.2708V33.842C90.666 33.3623 91.1328 33.0425 91.833 33.0425C92.5332 33.0425 93 33.3623 93 33.842V51.1908C93 51.6705 92.5332 52.0702 91.833 52.0702Z" fill="#00365D"/>
<path d="M45.1074 70.2186C44.5719 70.2186 44.2148 69.8988 44.2148 69.4191V61.904C44.2148 61.4243 44.5719 61.1045 45.1074 61.1045C45.643 61.1045 46 61.4243 46 61.904V69.4191C46 69.8189 45.5537 70.2186 45.1074 70.2186Z" fill="#00365D"/>
<path d="M81.2155 66.9405C80.4862 66.9405 80 66.6207 80 66.141V49.112C80 48.6323 80.4862 48.3125 81.2155 48.3125C81.9448 48.3125 82.431 48.6323 82.431 49.112V66.141C82.431 66.6207 81.8233 66.9405 81.2155 66.9405Z" fill="#00365D"/>
</svg>
