<svg width="76" height="113" viewBox="0 0 76 113" fill="none" xmlns="http://www.w3.org/2000/svg">
<path d="M16.1036 61.5237C17.5512 60.438 19.1798 59.8951 20.9893 59.5332L30.5798 57.9047C32.9322 58.9904 35.4655 59.5332 37.9989 59.5332C40.5322 59.5332 43.0655 58.9904 45.4179 57.9047L55.0084 59.5332C58.0846 60.0761 60.9798 61.7047 62.7893 64.4189C63.1512 64.9618 64.4179 65.6856 65.3227 64.7809C66.0465 64.057 66.2274 63.1523 65.6846 62.2475C63.3322 58.8094 59.7132 56.638 55.5512 55.9142L47.0465 54.6475V47.9523C50.8465 45.4189 53.3798 41.438 54.1036 36.7332C54.2846 35.8285 53.5608 34.7428 52.656 34.7428C51.7512 34.5618 50.6655 35.2856 50.6655 36.1904C49.7608 42.3428 44.3322 47.0475 38.1798 47.0475C32.0274 47.0475 26.5989 42.3428 25.6941 36.1904C25.5132 35.2856 24.6084 34.5618 23.7036 34.7428C22.7989 34.9237 22.0751 35.8285 22.256 36.7332C22.9798 41.438 25.6941 45.4189 29.3132 47.9523V54.6475L20.2655 56.0951C17.9132 56.457 15.9227 57.3618 13.9322 58.6285C13.0274 59.1713 12.8465 60.257 13.3893 61.1618C14.1132 62.0666 15.7417 61.7047 16.1036 61.5237ZM32.5703 49.7618C34.1989 50.3047 36.1893 50.6666 37.9989 50.6666C39.8084 50.6666 41.7989 50.3047 43.4274 49.7618V55.0094C39.9893 56.457 36.0084 56.457 32.5703 55.0094V49.7618Z" fill="#00365D"/>
<path d="M19.9051 32.5714H56.0956C59.1718 32.5714 61.5242 30.219 61.5242 27.1429C61.5242 24.7905 59.8956 22.8 57.7242 22.0762C57.5432 19.181 56.6385 16.4667 55.3718 13.9333C54.8289 13.0286 53.7432 12.6667 52.8385 13.2095C51.9337 13.7524 51.5718 14.8381 52.1147 15.7429C53.2004 17.5524 53.7432 19.7238 54.1051 21.8952H21.8956C22.6194 15.7429 26.7813 10.4952 32.5718 8.32381V16.2857C32.5718 17.3714 33.2956 18.0952 34.3813 18.0952C35.467 18.0952 36.1908 17.3714 36.1908 16.2857V3.61905H39.8099V16.2857C39.8099 17.3714 40.5337 18.0952 41.6194 18.0952C42.7051 18.0952 43.4289 17.3714 43.4289 16.2857V8.14286C45.0575 8.68571 46.5051 9.40952 47.7718 10.4952C48.1337 10.6762 49.4004 11.4 50.3051 10.1333C50.848 9.40952 50.667 8.14286 49.9432 7.6C47.9528 6.15238 45.7813 5.06667 43.4289 4.34286V1.80952C43.4289 0.72381 42.7051 0 41.6194 0H34.3813C33.2956 0 32.5718 0.72381 32.5718 1.80952V4.34286C24.4289 6.69524 18.8194 13.5714 18.0956 21.8952C15.9242 22.619 14.4766 24.6095 14.4766 26.9619C14.4766 30.219 16.8289 32.5714 19.9051 32.5714ZM19.9051 25.3333H56.0956C57.1813 25.3333 57.9051 26.0571 57.9051 27.1429C57.9051 28.2286 57.1813 28.9524 56.0956 28.9524H19.9051C18.8194 28.9524 18.0956 28.2286 18.0956 27.1429C18.0956 26.0571 18.8194 25.3333 19.9051 25.3333Z" fill="#00365D"/>
<path d="M70.5715 95.9041C69.4858 95.9041 68.762 96.6279 68.762 97.7136V107.847L50.6668 101.876V65.866L68.762 71.8374V75.9993C68.762 77.0851 69.4858 77.8089 70.5715 77.8089C71.6572 77.8089 72.381 77.0851 72.381 75.9993V70.5708C72.381 69.847 71.8382 69.1232 71.1144 68.9422L49.9429 61.8851C49.4001 61.7041 48.4953 61.7041 47.7715 61.8851L27.1429 68.5803L5.97152 61.5232C5.42866 61.3422 4.88581 61.3422 4.34295 61.7041C3.98104 62.247 3.61914 62.7898 3.61914 63.3327V75.9993C3.61914 77.0851 4.34295 77.8089 5.42866 77.8089C6.51438 77.8089 7.23819 77.0851 7.23819 75.9993V65.866L25.3334 71.8374V86.8565C25.3334 87.9422 26.0572 88.666 27.1429 88.666C28.2287 88.666 28.9525 87.9422 28.9525 86.8565V71.8374L47.0477 65.866V101.876L28.9525 107.847V103.142C28.9525 102.056 28.2287 101.333 27.1429 101.333C26.0572 101.333 25.3334 102.056 25.3334 103.142V107.847L7.23819 101.876V97.8946C7.23819 96.8089 6.51438 96.0851 5.42866 96.0851C4.34295 96.0851 3.61914 96.8089 3.61914 97.8946V103.142C3.61914 103.866 4.162 104.59 4.88581 104.771L26.2382 111.828C26.781 112.009 27.6858 112.009 28.2287 111.828L48.8572 105.133L70.0287 112.19C70.2096 112.19 70.9334 112.552 71.6572 112.009C72.2001 111.647 72.381 111.104 72.381 110.561V97.8946C72.381 96.6279 71.6572 95.9041 70.5715 95.9041Z" fill="#D29970"/>
<path d="M70.5711 79.6191C67.495 79.6191 65.1426 81.9715 65.1426 85.0477V88.6668C65.1426 91.743 67.495 94.0953 70.5711 94.0953C73.6473 94.0953 75.9997 91.743 75.9997 88.6668V85.0477C75.9997 81.9715 73.6473 79.6191 70.5711 79.6191ZM72.3807 88.6668C72.3807 89.7525 71.6569 90.4763 70.5711 90.4763C69.4854 90.4763 68.7616 89.7525 68.7616 88.6668V85.0477C68.7616 83.962 69.4854 83.2382 70.5711 83.2382C71.6569 83.2382 72.3807 83.962 72.3807 85.0477V88.6668Z" fill="#00365D"/>
<path d="M10.8571 88.6668V85.0477C10.8571 81.9715 8.50476 79.6191 5.42857 79.6191C2.35238 79.6191 0 81.9715 0 85.0477V88.6668C0 91.743 2.35238 94.0953 5.42857 94.0953C8.50476 94.0953 10.8571 91.743 10.8571 88.6668ZM3.61905 88.6668V85.0477C3.61905 83.962 4.34286 83.2382 5.42857 83.2382C6.51429 83.2382 7.23809 83.962 7.23809 85.0477V88.6668C7.23809 89.7525 6.51429 90.4763 5.42857 90.4763C4.34286 90.4763 3.61905 89.7525 3.61905 88.6668Z" fill="#00365D"/>
<path d="M27.1435 99.5239C28.2292 99.5239 28.953 98.8001 28.953 97.7144V93.3715C28.953 92.2858 28.2292 91.562 27.1435 91.562C26.0578 91.562 25.334 92.2858 25.334 93.3715V97.7144C25.334 98.6192 26.0578 99.5239 27.1435 99.5239Z" fill="#D29970"/>
</svg>
