<svg width="274" height="87" viewBox="0 0 274 87" fill="none" xmlns="http://www.w3.org/2000/svg">
<path d="M14.5124 82.397H11.167V74.2628H7.20874V82.397H3.86328V71.3471H14.5124V82.397Z" fill="#00365D"/>
<path d="M23.2897 82.397H19.9443V71.3471H25.8402C27.0879 71.3471 28.0595 71.7116 28.7551 72.4405C29.4617 73.1584 29.815 74.0585 29.815 75.1409C29.815 76.2122 29.4617 77.1123 28.7551 77.8412C28.0595 78.5591 27.0879 78.918 25.8402 78.918H23.2897V82.397ZM25.4096 76.0023C25.7078 76.0023 25.9507 75.9305 26.1384 75.7869C26.3261 75.6323 26.4199 75.417 26.4199 75.1409C26.4199 74.8537 26.3261 74.6383 26.1384 74.4948C25.9507 74.3401 25.7078 74.2628 25.4096 74.2628H23.2897V76.0023H25.4096Z" fill="#00365D"/>
<path d="M44.3083 81.0054C43.1601 82.0656 41.7247 82.5957 40.0023 82.5957C38.2799 82.5957 36.839 82.0656 35.6797 81.0054C34.5314 79.9341 33.9573 78.5591 33.9573 76.8803C33.9573 75.2016 34.5314 73.8321 35.6797 72.7719C36.839 71.7006 38.2799 71.1649 40.0023 71.1649C41.7247 71.1649 43.1601 71.7006 44.3083 72.7719C45.4676 73.8321 46.0473 75.2016 46.0473 76.8803C46.0473 78.5591 45.4676 79.9341 44.3083 81.0054ZM38.0811 78.8517C38.578 79.3819 39.2184 79.6469 40.0023 79.6469C40.7862 79.6469 41.4211 79.3819 41.9069 78.8517C42.4037 78.3216 42.6522 77.6645 42.6522 76.8803C42.6522 76.0962 42.4037 75.4391 41.9069 74.9089C41.4211 74.3788 40.7862 74.1137 40.0023 74.1137C39.2184 74.1137 38.578 74.3788 38.0811 74.9089C37.5953 75.4391 37.3524 76.0962 37.3524 76.8803C37.3524 77.6645 37.5953 78.3216 38.0811 78.8517Z" fill="#00365D"/>
<path d="M59.2573 82.397H50.8771V71.3471H59.2573V74.2628H54.2226V75.3562H59.1414V78.2719H54.2226V79.4813H59.2573V82.397Z" fill="#00365D"/>
<path d="M74.9032 82.397H70.829L68.3448 78.5038L67.732 79.3322V82.397H64.3865V71.3471H67.732V75.4887L70.6303 71.3471H74.721L70.5475 76.4827L74.9032 82.397Z" fill="#00365D"/>
<path d="M84.8551 82.397H81.5096V74.2628H78.5451V71.3471H87.8031V74.2628H84.8551V82.397Z" fill="#00365D"/>
<path d="M13.207 49.8307L4.80964 64.9038H17.7795L26.0178 49.8307H13.207Z" fill="#00365D"/>
<path d="M26.0178 49.8307L63.0976 49.8308L44.3191 16.8793L37.7148 28.5795L44.3191 38.7673H32.3836L26.0178 49.8307Z" fill="#00365D"/>
<path d="M125.365 40.2216L122.756 32.7123H106.89L104.281 40.2216H97.6255L111.149 2.94149H118.496L131.967 40.2216H125.365ZM108.913 26.9605H120.733L114.823 10.1312L108.913 26.9605Z" fill="#00365D"/>
<path d="M149.711 2.94149C153.225 2.94149 156.153 4.11315 158.496 6.45647C160.874 8.79979 162.063 11.7112 162.063 15.1907C162.063 18.6346 160.874 21.546 158.496 23.9249C156.153 26.2682 153.225 27.4398 149.711 27.4398H142.097V40.2216H135.974V2.94149H149.711ZM149.711 21.688C151.521 21.688 153.012 21.0845 154.183 19.8773C155.354 18.6346 155.94 17.0724 155.94 15.1907C155.94 13.3089 155.354 11.7644 154.183 10.5573C153.012 9.31461 151.521 8.69328 149.711 8.69328H142.097V21.688H149.711Z" fill="#00365D"/>
<path d="M195.491 40.2216H188.196L173.502 22.4869V40.2216H167.379V2.94149H173.502V19.6643L187.664 2.94149H194.958L179.891 21.1022L195.491 40.2216Z" fill="#00365D"/>
<path d="M227.434 35.3219C223.707 39.0499 219.146 40.9139 213.751 40.9139C208.356 40.9139 203.777 39.0499 200.014 35.3219C196.287 31.5584 194.424 26.9783 194.424 21.5815C194.424 16.1848 196.287 11.6224 200.014 7.89442C203.777 4.1309 208.356 2.24915 213.751 2.24915C219.146 2.24915 223.707 4.1309 227.434 7.89442C231.196 11.6224 233.078 16.1848 233.078 21.5815C233.078 26.9783 231.196 31.5584 227.434 35.3219ZM204.327 31.1678C206.883 33.6887 210.024 34.9491 213.751 34.9491C217.478 34.9491 220.601 33.6887 223.121 31.1678C225.677 28.6115 226.955 25.4161 226.955 21.5815C226.955 17.747 225.677 14.5693 223.121 12.0485C220.601 9.49213 217.478 8.21396 213.751 8.21396C210.024 8.21396 206.883 9.49213 204.327 12.0485C201.807 14.5693 200.547 17.747 200.547 21.5815C200.547 25.4161 201.807 28.6115 204.327 31.1678Z" fill="#00365D"/>
<path d="M256.286 40.9139C250.678 40.9139 246.028 39.0677 242.336 35.3752C238.645 31.6472 236.799 27.0493 236.799 21.5815C236.799 16.1138 238.645 11.5337 242.336 7.84116C246.028 4.11315 250.678 2.24915 256.286 2.24915C259.658 2.24915 262.764 3.048 265.603 4.64572C268.478 6.24344 270.714 8.40924 272.312 11.1431L266.987 14.232C265.994 12.3858 264.538 10.9301 262.622 9.86493C260.74 8.76429 258.628 8.21396 256.286 8.21396C252.31 8.21396 249.08 9.47438 246.596 11.9952C244.147 14.5161 242.922 17.7115 242.922 21.5815C242.922 25.4516 244.147 28.647 246.596 31.1678C249.08 33.6887 252.31 34.9491 256.286 34.9491C258.628 34.9491 260.758 34.4165 262.675 33.3514C264.592 32.2507 266.029 30.7773 266.987 28.931L272.312 31.9667C270.75 34.7006 268.531 36.8841 265.656 38.5173C262.817 40.1151 259.693 40.9139 256.286 40.9139Z" fill="#00365D"/>
<path d="M29.3857 0L0 49.8308H13.2086L42.5943 0H29.3857Z" fill="#D29970"/>
<path d="M24.6992 61.5683H87.0105L52.0638 0.0386584L49.2353 4.96158L79.815 57.5829H27.0151L24.6992 61.5683Z" fill="#D29970"/>
<path d="M97.2937 55.6993H160.14V58.8064H99.1344L97.2937 55.6993Z" fill="#D29970"/>
<path d="M176.697 64.507C180.963 64.507 184.285 61.1622 184.285 56.8954C184.285 52.6287 181.049 49.3696 176.74 49.3696C172.432 49.3696 169.152 52.7144 169.152 56.9383C169.152 61.1622 172.432 64.507 176.697 64.507ZM176.697 62.8775C173.332 62.8775 170.889 60.2831 170.889 56.9383C170.889 53.5935 173.332 50.9991 176.74 50.9991C180.148 50.9991 182.549 53.5292 182.549 56.8954C182.549 60.2617 180.063 62.8775 176.697 62.8775ZM177.019 61.2265C178.819 61.2265 180.213 60.3689 180.77 58.9966L178.455 57.7316C178.091 58.4177 177.598 58.675 176.997 58.675C176.14 58.675 175.411 58.0532 175.411 56.9383C175.411 55.8234 176.14 55.2016 176.997 55.2016C177.598 55.2016 178.091 55.4589 178.455 56.145L180.77 54.88C180.213 53.5077 178.819 52.6501 177.019 52.6501C174.34 52.6501 172.41 54.4297 172.41 56.9383C172.41 59.4469 174.34 61.2265 177.019 61.2265Z" fill="#00365D"/>
<path d="M192.531 50.4466L189.113 51.6795L189.842 54.2385L192.157 53.6034V63.522H195.145V50.4466H192.531Z" fill="#00365D"/>
<path d="M206.729 54.7989C206.729 52.0904 204.768 50.1851 201.873 50.1851C198.998 50.1851 197.018 52.0904 197.018 54.7989C197.018 57.3392 198.774 59.1885 201.369 59.3939L198.531 63.522H201.967L205.963 57.4513C206.449 56.7228 206.729 55.8075 206.729 54.7989ZM200.006 54.7989C200.006 53.6594 200.884 52.987 201.873 52.987C202.882 52.987 203.741 53.6408 203.741 54.7989C203.741 55.957 202.882 56.6108 201.873 56.6108C200.884 56.6108 200.006 55.9383 200.006 54.7989Z" fill="#00365D"/>
<path d="M217.365 54.7989C217.365 52.0904 215.404 50.1851 212.51 50.1851C209.634 50.1851 207.654 52.0904 207.654 54.7989C207.654 57.3392 209.41 59.1885 212.005 59.3939L209.167 63.522H212.603L216.599 57.4513C217.085 56.7228 217.365 55.8075 217.365 54.7989ZM210.642 54.7989C210.642 53.6594 211.52 52.987 212.51 52.987C213.518 52.987 214.377 53.6408 214.377 54.7989C214.377 55.957 213.518 56.6108 212.51 56.6108C211.52 56.6108 210.642 55.9383 210.642 54.7989Z" fill="#00365D"/>
<path d="M224.28 55.7515L226.539 52.8749V50.4466H218.136V53.2485H222.916L220.545 56.2558L221.684 57.9557H222.3C223.533 57.9557 224.074 58.6094 224.074 59.4126C224.074 60.2158 223.533 60.8696 222.3 60.8696C221.161 60.8696 220.601 60.3466 220.302 59.4873L217.725 60.9817C218.528 62.9056 220.321 63.7836 222.3 63.7836C224.821 63.7836 227.062 62.2892 227.062 59.4126C227.062 57.6007 225.886 56.3119 224.28 55.7515Z" fill="#00365D"/>
<path d="M240.223 54.1825H233.688V63.522H236.489V56.8723H240.223V54.1825Z" fill="#00365D"/>
<path d="M245.742 63.7836C248.487 63.7836 250.69 61.6355 250.69 58.8523C250.69 56.0691 248.487 53.921 245.742 53.921C242.997 53.921 240.793 56.0691 240.793 58.8523C240.793 61.6355 242.997 63.7836 245.742 63.7836ZM245.742 61.0564C244.528 61.0564 243.594 60.1785 243.594 58.8523C243.594 57.526 244.528 56.6481 245.742 56.6481C246.955 56.6481 247.889 57.526 247.889 58.8523C247.889 60.1785 246.955 61.0564 245.742 61.0564Z" fill="#00365D"/>
<path d="M260.686 60.907V54.1825H253.161V57.6755C253.161 59.2819 252.881 60.1785 252.414 60.907H251.256V66.0251H253.983V63.522H259.174V66.0251H261.9V60.907H260.686ZM255.346 60.907C255.701 60.0664 255.887 59.039 255.887 57.6755V56.6855H257.96V60.907H255.346Z" fill="#00365D"/>
<path d="M269.894 54.1825V55.0604C269.278 54.3506 268.363 53.921 267.112 53.921C264.665 53.921 262.649 56.0691 262.649 58.8523C262.649 61.6355 264.665 63.7836 267.112 63.7836C268.363 63.7836 269.278 63.3539 269.894 62.6441V63.522H272.695V54.1825H269.894ZM267.672 61.1311C266.383 61.1311 265.45 60.2532 265.45 58.8523C265.45 57.4513 266.383 56.5734 267.672 56.5734C268.96 56.5734 269.894 57.4513 269.894 58.8523C269.894 60.2532 268.96 61.1311 267.672 61.1311Z" fill="#00365D"/>
</svg>
